<?xml version="1.0" encoding="UTF-8"?>
<svg width="28px" height="52px" viewBox="0 0 28 52" version="1.1" xmlns="http://www.w3.org/2000/svg" xmlns:xlink="http://www.w3.org/1999/xlink">
    <title>D4EBBDDF-7A6F-4BDA-B882-3C173BDEBD0F</title>
    <g id="1.-Landing" stroke="none" stroke-width="1" fill="none" fill-rule="evenodd">
        <g id="1.-Landing-Page-_-01_02" transform="translate(-417.000000, -2427.000000)" fill="#FFFFFF" fill-rule="nonzero">
            <g id="get-paid" transform="translate(348.000000, 2389.000000)">
                <g id="dollar-symbol" transform="translate(69.000000, 38.000000)">
                    <path d="M26.7374453,31.6341797 C26.4864844,30.7844063 26.182,30.0448281 25.8243984,29.4167656 C25.467,28.7880938 24.955125,28.1748594 24.2877578,27.5750313 C23.6212031,26.9755078 23.0215781,26.4926797 22.4898984,26.1256328 C21.9585234,25.7582813 21.2285938,25.3475625 20.3005156,24.8929688 C19.37325,24.4384766 18.6385469,24.1002734 18.0977266,23.8778516 C17.5561953,23.6557344 16.7728437,23.35125 15.7481797,22.9646016 C14.8397031,22.6168516 14.1632969,22.3509609 13.71825,22.1674375 C13.2737109,21.9837109 12.6891172,21.7228984 11.9641641,21.3843906 C11.2395156,21.0463906 10.6981875,20.7465781 10.3404844,20.4857656 C9.98288281,20.2249531 9.60121094,19.9060469 9.19516406,19.5291484 C8.78911719,19.15225 8.50403125,18.7510781 8.33960156,18.3258359 C8.17557812,17.9004922 8.0933125,17.4364531 8.0933125,16.9338203 C8.0933125,15.6196016 8.67303125,14.5463906 9.832875,13.7154063 C10.9928203,12.8844219 12.4911719,12.4687266 14.3277266,12.4687266 C15.1392109,12.4687266 15.9665391,12.5797344 16.8068672,12.8022578 C17.6471953,13.0247813 18.367375,13.2754375 18.9666953,13.5559531 C19.5665234,13.8364688 20.1317187,14.1458281 20.6635,14.4839297 C21.1951797,14.8223359 21.5719766,15.0782734 21.7945,15.25225 C22.0168203,15.4263281 22.1576875,15.5422109 22.2150703,15.6003047 C22.4667422,15.7935781 22.7270469,15.8611172 22.9977109,15.8033281 C23.2875703,15.7840313 23.5100938,15.6291484 23.6650781,15.3394922 L26.0142188,11.1059609 C26.2460859,10.7195156 26.1981484,10.3521641 25.8692891,10.0040078 C25.7531016,9.88802344 25.6086797,9.75284375 25.4334844,9.5980625 C25.2600156,9.44328125 24.8829141,9.16307031 24.3024844,8.75692188 C23.7226641,8.35107813 23.1089219,7.98860156 22.4617656,7.66959375 C21.8138984,7.35089063 20.9727578,7.02690625 19.9384453,6.69845313 C18.9047422,6.36949219 17.8364062,6.147375 16.73425,6.03149219 L16.73425,0.927875 C16.73425,0.657414063 16.6474141,0.434992188 16.4739453,0.260914062 C16.3000703,0.0872421875 16.0776484,0 15.8065781,0 L11.89175,0 C11.6404844,0 11.4230391,0.0917109375 11.2394141,0.2754375 C11.0557891,0.459164063 10.9639766,0.676507813 10.9639766,0.927875 L10.9639766,6.14727344 C7.92888281,6.72699219 5.46416406,8.02221875 3.56971875,10.0326484 C1.67547656,12.0431797 0.728,14.3818594 0.728,17.0498047 C0.728,17.8422969 0.81046875,18.5961953 0.974796875,19.3110938 C1.13892188,20.0266016 1.34204688,20.6693906 1.58376563,21.2395625 C1.82528125,21.8101406 2.1685625,22.3705625 2.61310156,22.9216406 C3.05764063,23.4725156 3.47821094,23.9462031 3.87440625,24.3422969 C4.27080469,24.7382891 4.78796094,25.1492109 5.42567188,25.5743516 C6.06378906,25.9998984 6.60989063,26.3432813 7.06428125,26.6040938 C7.51877344,26.8640938 8.12276563,27.1647188 8.87646094,27.5022109 C9.63035938,27.8407188 10.2250078,28.0965547 10.66,28.2709375 C11.0949922,28.4447109 11.6893359,28.6866328 12.4435391,28.9952813 C13.4872969,29.4012266 14.2606953,29.7154609 14.7632266,29.9378828 C15.2661641,30.1603047 15.903875,30.4695625 16.6775781,30.8658594 C17.4505703,31.26175 18.0157656,31.6243281 18.3736719,31.9530859 C18.7312734,32.2818438 19.0549531,32.6877891 19.3451172,33.1709219 C19.6352812,33.6540547 19.7806172,34.1663359 19.7806172,34.7078672 C19.7806172,36.2350625 19.1861719,37.414 17.9969766,38.2445781 C16.8082891,39.0760703 15.4304922,39.4916641 13.8649063,39.4916641 C13.1503125,39.4916641 12.4345,39.4147813 11.7195,39.2602031 C9.2064375,38.7569609 6.85780469,37.5487734 4.67339844,35.6351328 L4.61540625,35.5771406 C4.44132813,35.3650781 4.20925781,35.2779375 3.91960156,35.3168359 C3.61024219,35.3554297 3.38782031,35.4715156 3.25264063,35.6651953 L0.265890625,39.5794141 C-0.024171875,39.9659609 -0.0045703125,40.3621563 0.323984375,40.7681016 C0.420773438,40.8841875 0.589875,41.0585703 0.831390625,41.2901328 C1.07351563,41.5226094 1.52303125,41.8844766 2.1799375,42.378375 C2.83704688,42.8715625 3.55235156,43.3348906 4.32575,43.7703906 C5.09904688,44.2051797 6.0799375,44.6350938 7.26903125,45.0605391 C8.458125,45.4852734 9.69017969,45.7847813 10.9661094,45.9586563 L10.9661094,51.0330234 C10.9661094,51.2846953 11.0580234,51.5019375 11.2415469,51.6857656 C11.4252734,51.8696953 11.6426172,51.9611016 11.8938828,51.9611016 L15.8087109,51.9611016 C16.0797812,51.9611016 16.3022031,51.8742656 16.4759766,51.7004922 C16.64975,51.5267188 16.7362812,51.3042969 16.7362812,51.033125 L16.7362812,45.9587578 C19.8104766,45.4562266 22.3090156,44.1368281 24.2322031,42.0006641 C26.1555937,39.8645 27.1175938,37.3176172 27.1175938,34.3602188 C27.1165781,33.3938516 26.9911484,32.4852734 26.7374453,31.6341797 Z" id="Path"></path>
                </g>
            </g>
        </g>
    </g>
</svg>