<?xml version="1.0" encoding="UTF-8"?>
<svg width="52px" height="52px" viewBox="0 0 52 52" version="1.1" xmlns="http://www.w3.org/2000/svg" xmlns:xlink="http://www.w3.org/1999/xlink">
    <title>6BF6FAE8-B6AE-4032-8136-150E36EFB4E0</title>
    <defs>
        <path d="M31.9967254,0 L39,6.82867774 L39,52 L0,52 L0,0 L31.9967254,0 Z M31.5151515,40.5964912 C29.9649887,40.5964912 28.7083333,41.8218171 28.7083333,43.3333334 C28.7083333,44.8448495 29.9649887,46.0701754 31.5151515,46.0701754 C33.0653144,46.0701754 34.3219697,44.8448495 34.3219697,43.3333334 C34.3219697,41.8218171 33.0653144,40.5964912 31.5151515,40.5964912 Z M27.7727273,40.5964912 L3.4469697,40.5964912 L3.4469697,46.0701754 L27.7727273,46.0701754 L27.7727273,40.5964912 Z M31.5151515,33.754386 C29.9649887,33.754386 28.7083333,34.9797119 28.7083333,36.4912281 C28.7083333,38.0027442 29.9649887,39.2280701 31.5151515,39.2280701 C33.0653144,39.2280701 34.3219697,38.0027442 34.3219697,36.4912281 C34.3219697,34.9797119 33.0653144,33.754386 31.5151515,33.754386 Z M27.7727273,33.754386 L3.4469697,33.754386 L3.4469697,39.2280701 L27.7727273,39.2280701 L27.7727273,33.754386 Z M31.7790404,27.04 C30.2288776,27.04 28.9722222,28.2653259 28.9722222,29.7768421 C28.9722222,31.2883583 30.2288776,32.5136842 31.7790404,32.5136842 C33.3292033,32.5136842 34.5858586,31.2883583 34.5858586,29.7768421 C34.5858586,28.2653259 33.3292033,27.04 31.7790404,27.04 Z M27.7727273,26.9122807 L3.4469697,26.9122807 L3.4469697,32.3859649 L27.7727273,32.3859649 L27.7727273,26.9122807 Z M31.7790404,20.0912034 C30.2288776,20.0912034 28.9722222,21.3165293 28.9722222,22.8280454 C28.9722222,24.3395617 30.2288776,25.5648876 31.7790404,25.5648876 C33.3292033,25.5648876 34.5858586,24.3395617 34.5858586,22.8280454 C34.5858586,21.3165293 33.3292033,20.0912034 31.7790404,20.0912034 Z M27.7727273,20.0701754 L3.4469697,20.0701754 L3.4469697,25.5438596 L27.7727273,25.5438596 L27.7727273,20.0701754 Z M33.1386131,21.3364864 C33.1582917,21.3351745 33.1782341,21.3415209 33.1932381,21.3540009 L33.1932381,21.3540009 L33.6822242,21.7581473 C33.7135139,21.7839582 33.7165675,21.8288082 33.6890476,21.8582 L33.6890476,21.8582 L31.3274683,24.3860027 C31.3131052,24.40139 31.2924464,24.4101118 31.2680556,24.4101118 C31.2454365,24.4093318 31.2243254,24.3989791 31.2106786,24.3819964 L31.2106786,24.3819964 L30.0430079,22.9285018 C30.0179008,22.8972664 30.024498,22.8528064 30.0577103,22.8291936 L30.0577103,22.8291936 L30.577119,22.4601827 C30.5930278,22.4488018 30.6131964,22.4437673 30.6329504,22.4465327 C30.6527421,22.4490855 30.6706488,22.4589773 30.6826746,22.4739391 L30.6826746,22.4739391 L31.3132937,23.2589382 L33.0868532,21.3604891 C33.1000476,21.3463427 33.1186706,21.3377273 33.1386131,21.3364864 Z M31.5151515,13.2280701 C29.9649887,13.2280701 28.7083333,14.4533962 28.7083333,15.9649123 C28.7083333,17.4764284 29.9649887,18.7017543 31.5151515,18.7017543 C33.0653144,18.7017543 34.3219697,17.4764284 34.3219697,15.9649123 C34.3219697,14.4533962 33.0653144,13.2280701 31.5151515,13.2280701 Z M27.7727273,13.2280701 L3.4469697,13.2280701 L3.4469697,18.7017543 L27.7727273,18.7017543 L27.7727273,13.2280701 Z M27.7727273,6.38596492 L3.4469697,6.38596492 L3.4469697,11.8596492 L27.7727273,11.8596492 L27.7727273,6.38596492 Z M31.5151515,6.38596492 C29.9649887,6.38596492 28.7083333,7.61129086 28.7083333,9.12280701 C28.7083333,10.6343231 29.9649887,11.8596492 31.5151515,11.8596492 C33.0653144,11.8596492 34.3219697,10.6343231 34.3219697,9.12280701 C34.3219697,7.61129086 33.0653144,6.38596492 31.5151515,6.38596492 Z" id="path-1"></path>
    </defs>
    <g id="1.-Landing" stroke="none" stroke-width="1" fill="none" fill-rule="evenodd">
        <g id="1.-Landing-Page-_-01_02" transform="translate(-405.000000, -1688.000000)">
            <g id="Icon-/-How-we-work-/-Pin-Copy-3" transform="translate(405.000000, 1688.000000)">
                <g id="Icon-/-Pin" transform="translate(6.500000, 0.000000)">
                    <mask id="mask-2" fill="white">
                        <use xlink:href="#path-1"></use>
                    </mask>
                    <use id="Mask" fill="#75861E" fill-rule="nonzero" xlink:href="#path-1"></use>
                    <g id="Color-/-Spring-Green" mask="url(#mask-2)" fill="#FFFFFF">
                        <g transform="translate(-8.666667, 0.000000)">
                            <rect x="0" y="0" width="52" height="52"></rect>
                        </g>
                    </g>
                </g>
            </g>
        </g>
    </g>
</svg>