<?xml version="1.0" encoding="UTF-8"?>
<svg width="48px" height="48px" viewBox="0 0 48 48" version="1.1" xmlns="http://www.w3.org/2000/svg" xmlns:xlink="http://www.w3.org/1999/xlink">
    <title>8770C55B-8091-4088-AE93-5D25530987FA</title>
    <defs>
        <path d="M16,0 C24.8222328,0 32,7.17778125 32,15.9999375 C32,18.648375 31.337845,21.2744063 30.0839412,23.5956563 L30.0839412,23.5956563 L16.874967,47.484375 C16.6991861,47.80275 16.364218,48 16,48 C15.635782,48 15.3008139,47.80275 15.125033,47.484375 L15.125033,47.484375 L1.92093375,23.6035313 C0.662154957,21.2744062 0,18.6484687 0,16.0000312 C0,7.17778125 7.17776723,0 16,0 Z M16,8.0000625 C11.5888836,8.0000625 8.00004687,11.5889062 8.00004687,16.0000312 C8.00004687,20.4111562 11.5888836,24 16,24 C20.4111164,24 23.9999531,20.4111562 23.9999531,16.0000312 C23.9999531,11.5889062 20.4111164,8.0000625 16,8.0000625 Z M16.000001,11.5555562 C18.4546,11.5555562 20.4444457,13.5454019 20.4444457,16.000001 C20.4444457,18.4546 18.4546,20.4444457 16.000001,20.4444457 C13.5454019,20.4444457 11.5555562,18.4546 11.5555562,16.000001 C11.5555562,13.5454019 13.5454019,11.5555562 16.000001,11.5555562 Z" id="path-1"></path>
    </defs>
    <g id="1.-Landing" stroke="none" stroke-width="1" fill="none" fill-rule="evenodd">
        <g id="1.-Landing-Page-_-01_02" transform="translate(-406.000000, -2178.000000)">
            <g id="sign-up" transform="translate(348.000000, 2143.000000)">
                <g id="Icon-/-How-we-work-/-Pick" transform="translate(58.000000, 35.000000)">
                    <g id="Icon-/-Pick" transform="translate(8.000000, 0.000000)">
                        <mask id="mask-2" fill="white">
                            <use xlink:href="#path-1"></use>
                        </mask>
                        <use id="Mask" fill="#004467" fill-rule="nonzero" xlink:href="#path-1"></use>
                        <g id="Color-/-Spring-Green" mask="url(#mask-2)" fill="#FFFFFF">
                            <g transform="translate(-8.000000, 0.000000)">
                                <rect x="0" y="0" width="48" height="48"></rect>
                            </g>
                        </g>
                    </g>
                </g>
            </g>
        </g>
    </g>
</svg>