<svg xmlns="http://www.w3.org/2000/svg" width="22" height="16" viewBox="0 0 22 16">
    <path fill="#D3DAE2" fill-rule="nonzero" d="M8.929 0c.356 0 .644.292.644.652v8.383c0 .07-.01.14-.033.206l-2.07 6.287a.645.645 0 0 1-.612.446H4.787a.648.648 0 0 1-.645-.652V9.687H.645A.648.648 0 0 1 0 9.035V.652C0 .292.289 0 .645 0h8.284zm12.426 0c.356 0 .645.292.645.652v8.383a.66.66 0 0 1-.033.206l-2.071 6.287a.645.645 0 0 1-.612.446h-2.07a.648.648 0 0 1-.645-.652V9.687H13.07a.648.648 0 0 1-.644-.652V.652c0-.36.288-.652.644-.652h8.284z"/>
</svg>
