<?xml version="1.0" encoding="UTF-8"?>
<svg width="45px" height="56px" viewBox="0 0 45 56" version="1.1" xmlns="http://www.w3.org/2000/svg" xmlns:xlink="http://www.w3.org/1999/xlink">
    <!-- Generator: Sketch 52.6 (67491) - http://www.bohemiancoding.com/sketch -->
    <title>pinner_beta_logo</title>
    <desc>Created with Sketch.</desc>
    <g id="Page-1" stroke="none" stroke-width="1" fill="none" fill-rule="evenodd">
        <g id="Artboard" transform="translate(-192.000000, -84.000000)">
            <g id="pinner_beta_logo" transform="translate(192.000000, 84.000000)">
                <g id="Logo-PINDO-Copy-3">
                    <g id="Group">
                        <path d="M19.749433,24.2341316 C15.0772291,24.2341316 11.276131,28.0598525 11.276131,32.7623022 C11.276131,37.4647682 15.0772291,41.2904891 19.749433,41.2904891 C24.421629,41.2904891 28.222764,37.4647682 28.222764,32.7623022 C28.222764,28.0598525 24.421629,24.2341316 19.749433,24.2341316 Z M19.749433,23.0578634 C25.074565,23.0578634 29.391464,27.4026919 29.391464,32.7623022 C29.391464,38.1219125 25.074565,42.4667555 19.749433,42.4667555 C14.4242938,42.4667555 10.1074307,38.1219144 10.1074307,32.7623022 C10.1074307,27.40269 14.4242938,23.0578634 19.749433,23.0578634 Z M36.185157,41.7818293 C39.107883,42.2556742 41.46894,44.614728 41.946248,47.5553108 C42.730418,52.3863887 38.635963,56.5021698 33.834683,55.7040017 C30.928254,55.220837 28.594947,52.8628659 28.116006,49.9374394 C27.85068,48.3168298 28.139051,46.7811155 28.81596,45.4818854 C29.067378,44.9993291 29.007567,44.4139983 28.636944,44.0168223 L28.311721,43.6682945 C27.896893,43.2237341 27.227302,43.1486148 26.721185,43.4839885 C24.715245,44.8132344 22.318796,45.5925892 19.737417,45.5925892 C16.8028706,45.5925892 14.1075679,44.5862219 11.9547304,42.9070723 C11.4654138,42.5254221 10.7765688,42.5527441 10.3287019,42.9828723 L9.3917703,43.8827033 C9.0552802,44.2058716 8.9065045,44.6960314 9.0531505,45.1402732 C9.2827176,45.8357285 9.3470686,46.606723 9.1936018,47.4089717 C8.8571476,49.1677701 7.4468073,50.5852169 5.6967967,50.910391 C2.5965806,51.48646 -0.0658558,48.8056935 0.5082956,45.6851713 C0.8213736,43.9836203 2.1456775,42.5925939 3.8211348,42.2040788 C4.7635849,41.9855424 5.6654342,42.0768138 6.4572451,42.389996 C6.9111197,42.5695154 7.4294964,42.4371778 7.7823046,42.0983354 L8.7644128,41.1551064 C9.1937745,40.7427487 9.270033,40.0855935 8.9531921,39.5805307 C7.7139892,37.6051512 6.9896735,35.2713375 6.9896735,32.7623131 C6.9896735,28.808069 8.7714135,25.2773598 11.5666027,22.9248161 C12.047307,22.5202339 12.1646267,21.8263465 11.8304605,21.2928211 L11.782521,21.2162753 C11.4940855,20.7557637 10.947548,20.5535605 10.4193863,20.6708902 C9.9766566,20.7692419 9.5173139,20.82253 9.045006,20.82253 C5.2106172,20.82253 2.1517141,17.481156 2.5857956,13.5335858 C2.9160621,10.5301245 5.3504137,8.09443524 8.3360154,7.77556303 C10.6399813,7.52949144 12.7265756,8.49926992 14.0553188,10.1225535 C14.3974857,10.5405649 14.9504338,10.7169768 15.4552913,10.5295063 L20.74188,8.56638649 C21.244601,8.37970617 21.572119,7.89084976 21.552556,7.35189285 C21.550009,7.281595 21.548664,7.2109772 21.548664,7.14001362 C21.548664,3.19667519 24.724851,2.55795385e-13 28.642829,2.55795385e-13 C30.611269,2.55795385e-13 32.391671,0.807834692 33.676856,2.11096556 L32.407881,3.33959635 C31.24829,2.17576463 29.559486,1.54571618 27.736102,1.84808974 C25.524561,2.21483256 23.742613,4.01254019 23.382984,6.23918571 C22.788176,9.92201579 25.92105,13.0568426 29.584855,12.4260183 C31.833089,12.0389242 33.616261,10.1712315 33.924145,7.89658325 C33.984517,7.45051658 33.990553,7.01388966 33.948032,6.5915519 L35.488326,5.29193266 C35.861582,6.69575423 35.865309,8.25244123 35.146425,9.90615787 C34.106333,12.2987658 31.861142,14.0267301 29.276051,14.2523631 C26.658719,14.4808112 24.305828,13.2772028 22.902265,11.3338722 C22.569372,10.8729578 21.988609,10.6689324 21.457447,10.8661726 L16.3487226,12.7632421 C15.8451889,12.9502247 15.5108645,13.4406833 15.5378021,13.980191 C15.5427594,14.0795131 15.5453496,14.1794688 15.5453496,14.2800653 C15.5453496,15.9153515 14.9462751,17.4072279 13.9598571,18.5530639 C13.595753,18.9760104 13.5748878,19.5991959 13.8714248,20.07259 L13.9457767,20.1912902 C14.257243,20.6885268 14.8689085,20.8985599 15.417921,20.6981054 C17.0635339,20.0972707 18.8632971,19.822222 20.748392,19.9723012 C27.23867,20.4890137 32.385656,26.0141348 32.483694,32.5660877 C32.52777,35.5115874 31.577642,38.2264865 29.958219,40.4107206 C29.597921,40.8966732 29.634162,41.5703534 30.046586,42.0123322 L30.274319,42.2563839 C30.667577,42.6778223 31.28689,42.7564501 31.795813,42.4882952 C33.076804,41.8133296 34.588218,41.522929 36.185157,41.7818293 Z M4.8534561,48.8198108 C6.1044227,48.8198108 7.1220305,47.7955752 7.1220305,46.536586 C7.1220305,45.2775968 6.1044227,44.2533611 4.8534561,44.2533611 C3.6026407,44.2533611 2.5849538,45.2775968 2.5849538,46.536586 C2.5849538,47.7955752 3.6026407,48.8198108 4.8534561,48.8198108 Z M9.045006,18.7338034 C11.4850344,18.7338034 13.4700585,16.7358912 13.4700585,14.2800653 C13.4700585,11.8242394 11.4850344,9.82632617 9.045006,9.82632617 C6.6049777,9.82632617 4.6199535,11.8242384 4.6199535,14.2800653 C4.6199535,16.7358921 6.6049777,18.7338034 9.045006,18.7338034 Z M19.737417,42.5127424 C25.087868,42.5127424 29.425208,38.1473608 29.425208,32.762313 C29.425208,27.3772652 25.087868,23.0118457 19.737417,23.0118457 C14.3870459,23.0118457 10.0497062,27.3772634 10.0497062,32.762313 C10.0497062,38.1473626 14.3870459,42.5127424 19.737417,42.5127424 Z M35.030616,53.6345339 C37.709033,53.6345339 39.887937,51.4414797 39.887937,48.745803 C39.887937,46.0501626 37.709033,43.8571084 35.030616,43.8571084 C32.352358,43.8571084 30.173367,46.0501626 30.173367,48.745803 C30.173367,51.4414797 32.352358,53.6345339 35.030616,53.6345339 Z M11.230832,13.9002833 C11.230832,13.9002833 11.5212821,15.8500752 10.5306119,17.6085911 C10.0792484,17.8118806 9.5825714,17.9304903 9.0568631,17.9304903 C8.5312987,17.9304903 8.0347225,17.8120273 7.5834525,17.6088355 C6.5926816,15.8502725 6.8831389,13.9002833 6.8831389,13.9002833 C7.4948835,13.5924552 8.2433309,13.4845828 8.683492,13.4458953 C8.1874986,13.2859505 7.8260638,12.8236684 7.8260638,12.2714112 C7.8260638,11.5872064 8.377206,11.0325469 9.057007,11.0325469 C9.7368081,11.0325469 10.2878999,11.5872065 10.2878999,12.2714112 C10.2878999,12.8236684 9.9265154,13.2859505 9.430522,13.4458953 C9.8706832,13.4845828 10.6191306,13.5924552 11.230832,13.9002833 Z M37.495892,48.1606714 C37.495892,48.1606714 37.82528,50.371822 36.701814,52.3660547 C36.189942,52.5965938 35.626698,52.7311039 35.030516,52.7311039 C34.434506,52.7311039 33.871363,52.5967604 33.359606,52.3663335 C32.236032,50.3720429 32.56542,48.1606714 32.56542,48.1606714 C33.259165,47.8115824 34.107931,47.6892488 34.607097,47.6453764 C34.044623,47.4639924 33.634738,46.9397433 33.634738,46.3134621 C33.634738,45.5375433 34.259757,44.9085357 35.030681,44.9085357 C35.801605,44.9085357 36.426574,45.5375433 36.426574,46.3134621 C36.426574,46.9397433 36.016747,47.4639924 35.454265,47.6453764 C35.953432,47.6892488 36.802197,47.8115824 37.495892,48.1606714 Z M28.910608,9.96697881 L25.152118,6.30822294 L27.504139,5.80853736 L29.076292,7.51802681 L34.917671,1.86272112 L38.516269,1.86272112 L28.910608,9.96697881 Z M6.3356517,46.5369227 C6.3356517,47.3528287 5.6762122,48.0165374 4.8655579,48.0165374 C4.0548965,48.0165374 3.395457,47.3528288 3.395457,46.5369227 C3.395457,45.7210166 4.0548964,45.0565222 4.8655579,45.0565222 C5.6762122,45.0565222 6.3356517,45.7210166 6.3356517,46.5369227 Z" id="Combined-Shape" fill="#BAD141" fill-rule="nonzero"></path>
                        <path d="M19.74944,19.9319934 C26.789846,19.9319934 32.497198,25.6763407 32.497198,32.7623276 C32.497198,39.848262 26.789846,45.592611 19.74944,45.592611 C12.7090849,45.592611 7.0016818,39.8482619 7.0016818,32.7623276 C7.0016818,25.6763407 12.7090849,19.9319934 19.74944,19.9319934 Z M19.74944,42.5127569 C25.09984,42.5127569 29.437202,38.1473645 29.437202,32.7623276 C29.437202,27.3772906 25.09984,23.0118457 19.74944,23.0118457 C14.3990469,23.0118457 10.0617288,27.3772924 10.0617288,32.7623276 C10.0617288,38.1473627 14.399047,42.5127569 19.74944,42.5127569 Z" id="Combined-Shape" fill="#004467" fill-rule="nonzero"></path>
                        <g id="Group-2" transform="translate(39.000000, 4.000000)" fill="#004467">
                            <polygon id="Path" points="0.784083571 0.505786281 -4.15223411e-14 0.505786281 -4.15223411e-14 6.10622664e-15 2.1391241 6.10622664e-15 2.1391241 0.505786281 1.35896894 0.505786281 1.35896894 2.69912153 0.784083571 2.69912153"></polygon>
                            <polygon id="Path" points="4.83807808 0.809258847 4.08214087 2.69912153 3.83268716 2.69912153 3.07674994 0.809258847 3.07674994 2.69912153 2.50611684 2.69912153 2.50611684 6.10622664e-15 3.30623783 6.10622664e-15 3.95740322 1.63087345 4.60891399 6.10622664e-15 5.41296338 6.10622664e-15 5.41296338 2.69912153 4.83807808 2.69912153"></polygon>
                        </g>
                        <path d="M19.749721,45.6540005 C12.6863274,45.6540005 6.9405253,39.8710001 6.9405253,32.7624796 C6.9405253,25.6533527 12.6863274,19.8703523 19.749721,19.8703523 C26.812517,19.8703523 32.558319,25.6533527 32.558319,32.7624796 C32.558319,39.8710001 26.812517,45.6540005 19.749721,45.6540005 Z M19.749721,23.0735973 C14.4415183,23.0735973 10.1231659,27.4199102 10.1231659,32.7624796 C10.1231659,38.105049 14.4415183,42.4513601 19.749721,42.4513601 C25.057326,42.4513601 29.375678,38.1050472 29.375678,32.7624796 C29.375678,27.419912 25.057326,23.0735973 19.749721,23.0735973 Z" id="Shape" fill="#004E7C" fill-rule="nonzero"></path>
                    </g>
                </g>
            </g>
        </g>
    </g>
</svg>