<?xml version="1.0" encoding="utf-8"?>
<!-- Generator: Adobe Illustrator 24.1.0, SVG Export Plug-In . SVG Version: 6.00 Build 0)  -->
<svg version="1.1" xmlns="http://www.w3.org/2000/svg" xmlns:xlink="http://www.w3.org/1999/xlink" x="0px" y="0px"
	 viewBox="0 0 1008 612" style="enable-background:new 0 0 1008 612;" xml:space="preserve">
<style type="text/css">
	.st0{opacity:0.5;}
	.st1{display:none;}
	.st2{display:inline;opacity:0.5;fill:#FFFFFF;}
	.st3{display:inline;fill:#32C2D9;stroke:#12477B;stroke-width:19;stroke-miterlimit:10;}
	.st4{display:inline;fill:url(#SVGID_1_);}
	.st5{display:inline;fill:#E58549;}
	.st6{display:inline;}
	.st7{fill:none;}
	.st8{display:inline;fill:#BACF3F;}
	.st9{display:inline;fill:none;stroke:#BACF3F;stroke-width:2;stroke-miterlimit:10;}
	.st10{fill:#6D6E71;}
	.st11{fill:#708700;}
	.st12{display:inline;fill:none;}
	.st13{fill:#58595B;}
	.st14{font-family:'Metropolis-Bold';}
	.st15{font-size:79px;}
</style>
<g id="Layer_2">
</g>
<g id="Layer_5" class="st0">
</g>
<g id="Layer_1">
</g>
<g id="Layer_4" class="st1">
	<polygon class="st2" points="285.21,207.17 227.21,303.26 295.38,426.82 691.58,426.82 759.9,313.64 701.17,207.17 	"/>
</g>
<g id="Layer_3" class="st1">
	<ellipse class="st3" cx="476.55" cy="301.5" rx="326.22" ry="239.43"/>
	
		<radialGradient id="SVGID_1_" cx="491.5029" cy="329.4287" r="265.304" gradientTransform="matrix(1.0481 0 0 1.1429 -38.5948 -74.9947)" gradientUnits="userSpaceOnUse">
		<stop  offset="0" style="stop-color:#FFFFFF"/>
		<stop  offset="0.8203" style="stop-color:#32C2D9"/>
	</radialGradient>
	<ellipse class="st4" cx="476.54" cy="301.5" rx="326.22" ry="239.43"/>
	<path class="st5" d="M374.19,336.41"/>
	<g class="st6">
		<path class="st7" d="M533.62,419.2"/>
	</g>
	<g class="st6">
		<path class="st7" d="M374.19,336.41"/>
	</g>
	<path class="st8" d="M442.79,378.63l-0.52-0.2c-1.64-0.63-2.47-2.49-1.84-4.14l1.95-5.08c0.63-1.64,2.49-2.47,4.14-1.84l0.52,0.2
		c1.64,0.63,2.47,2.49,1.84,4.14l-1.95,5.08C446.3,378.43,444.44,379.26,442.79,378.63z"/>
	<ellipse class="st9" cx="477.55" cy="300.83" rx="326.22" ry="239.43"/>
</g>
<g id="Layer_6">
	<path class="st10" d="M480.38,579.82c-75.84,0-147.14-29.53-200.77-83.16c-53.63-53.63-83.16-124.93-83.16-200.77
		s29.53-147.14,83.16-200.77c53.63-53.63,124.93-83.16,200.77-83.16c75.84,0,147.14,29.53,200.77,83.16
		c53.63,53.63,83.16,124.93,83.16,200.77s-29.53,147.14-83.16,200.77S556.22,579.82,480.38,579.82z M480.38,15.96
		c-74.77,0-145.07,29.12-197.94,81.99s-81.99,123.17-81.99,197.94c0,74.77,29.12,145.07,81.99,197.94
		c52.87,52.87,123.17,81.99,197.94,81.99s145.07-29.12,197.94-81.99c52.87-52.87,81.99-123.17,81.99-197.94
		c0-74.77-29.12-145.07-81.99-197.94C625.45,45.08,555.15,15.96,480.38,15.96z"/>
</g>
<g id="Layer_8">
	<path class="st11" d="M480.38,13.96c-155.7,0-281.93,126.22-281.93,281.93s126.22,281.93,281.93,281.93
		s281.93-126.22,281.93-281.93S636.09,13.96,480.38,13.96z M611.88,322.76h-89.07V415h-84.33v-92.23h-89.6v-78.53h89.6V152h84.33
		v92.23h89.07V322.76z"/>
</g>
<g id="Layer_7" class="st1">
	<rect x="153.88" y="391.1" class="st12" width="652.45" height="210.07"/>
	<text transform="matrix(1 0 0 1 293.3109 446.3156)" class="st6"><tspan x="0" y="0" class="st13 st14 st15">COVID-19 </tspan><tspan x="97.17" y="75" class="st13 st14 st15">Help</tspan></text>
</g>
</svg>
