<?xml version="1.0" encoding="UTF-8"?>
<svg width="38px" height="38px" viewBox="0 0 38 38" version="1.1" xmlns="http://www.w3.org/2000/svg" xmlns:xlink="http://www.w3.org/1999/xlink">
    <!-- Generator: Sketch 63.1 (92452) - https://sketch.com -->
    <title>iconfinder_coronavirus-17_5868882</title>
    <desc>Created with Sketch.</desc>
    <g id="contractor" stroke="none" stroke-width="1" fill="none" fill-rule="evenodd">
        <g id="Artboard" transform="translate(-300.000000, -564.000000)" fill="#708700" fill-rule="nonzero">
            <g id="Group-2-Copy" transform="translate(269.000000, 543.000000)">
                <g id="Group" transform="translate(28.000000, 21.000000)">
                    <g id="iconfinder_coronavirus-17_5868882" transform="translate(3.000000, 0.000000)">
                        <path d="M35.4565209,16.4681943 C34.5556735,16.4707188 33.7244501,16.9531497 33.2753836,17.7340972 L29.0396985,17.7340972 C28.8148114,15.9340128 28.1075528,14.2281839 26.9927461,12.7970761 L29.9891198,9.80068408 C31.0959905,10.0973744 32.2641329,9.61360055 32.837148,8.62120315 C33.4101631,7.62880575 33.2451592,6.37525725 32.4348546,5.56494777 C31.6245501,4.7546383 30.3710092,4.5896333 29.3786179,5.16265189 C28.3862265,5.73567048 27.9024556,6.90382 28.1991441,8.01069747 L25.2027703,11.0070895 C23.7716713,9.89227599 22.0658528,9.18501309 20.2657794,8.9601246 L20.2657794,4.72441371 C21.2581602,4.15145889 21.7419873,2.98338985 21.4454058,1.87652615 C21.1488244,0.769662446 20.1457869,0 18.9998842,0 C17.8539816,0 16.8509441,0.769662446 16.5543627,1.87652615 C16.2577812,2.98338985 16.7416083,4.15145889 17.7339891,4.72441371 L17.7339891,8.9601246 C15.9339157,9.18501309 14.2280972,9.89227599 12.7969981,11.0070895 L9.80062437,8.01069747 C10.0973129,6.90382 9.61354198,5.73567048 8.62115062,5.16265189 C7.62875927,4.5896333 6.37521841,4.7546383 5.56491387,5.56494777 C4.75460933,6.37525725 4.58960534,7.62880575 5.16262043,8.62120315 C5.73563553,9.61360055 6.90377794,10.0973744 8.01064866,9.80068408 L11.0070224,12.7970761 C9.89221571,14.2281839 9.18495713,15.9340128 8.96007001,17.7340972 L4.72438492,17.7340972 C4.1514336,16.7417103 2.98337167,16.2578803 1.87651471,16.5544635 C0.769657757,16.8510467 0,17.8540904 0,19 C0,20.1459096 0.769657757,21.1489533 1.87651471,21.4455365 C2.98337167,21.7421197 4.1514336,21.2582897 4.72438492,20.2659028 L8.96007001,20.2659028 C9.18495713,22.0659872 9.89221571,23.7718161 11.0070224,25.2029239 L8.01064866,28.1993159 C6.90377794,27.9026256 5.73563553,28.3863995 5.16262043,29.3787968 C4.58960534,30.3711942 4.75460933,31.6247427 5.56491387,32.4350522 C6.37521841,33.2453617 7.62875927,33.4103667 8.62115062,32.8373481 C9.61354198,32.2643295 10.0973129,31.09618 9.80062437,29.9893025 L12.7969981,26.9929105 C14.2280972,28.107724 15.9339157,28.8149869 17.7339891,29.0398754 L17.7339891,33.2755863 C16.7416083,33.8485411 16.2577812,35.0166102 16.5543627,36.1234739 C16.8509441,37.2303376 17.8539816,38 18.9998842,38 C20.1457869,38 21.1488244,37.2303376 21.4454058,36.1234739 C21.7419873,35.0166102 21.2581602,33.8485411 20.2657794,33.2755863 L20.2657794,29.0398754 C22.0658528,28.8149869 23.7716713,28.107724 25.2027703,26.9929105 L28.1991441,29.9893025 C27.9024556,31.09618 28.3862265,32.2643295 29.3786179,32.8373481 C30.3710092,33.4103667 31.6245501,33.2453617 32.4348546,32.4350522 C33.2451592,31.6247427 33.4101631,30.3711942 32.837148,29.3787968 C32.2641329,28.3863995 31.0959905,27.9026256 29.9891198,28.1993159 L26.9927461,25.2029239 C28.1075528,23.7718161 28.8148114,22.0659872 29.0396985,20.2659028 L33.2753836,20.2659028 C33.8904451,21.3311982 35.1822129,21.80025 36.3374884,21.3777792 C37.492764,20.9553083 38.1772103,19.7635779 37.9599522,18.5528104 C37.7426942,17.342043 36.6866063,16.4626349 35.4565209,16.4681943 Z M18.9998842,12.6704858 C21.097288,12.6704858 22.7975696,14.3707778 22.7975696,16.4681943 C22.7975696,18.5656108 21.097288,20.2659028 18.9998842,20.2659028 C16.9024805,20.2659028 15.2021989,18.5656108 15.2021989,16.4681943 C15.2021989,14.3707778 16.9024805,12.6704858 18.9998842,12.6704858 L18.9998842,12.6704858 Z M15.2021989,24.0636113 C14.5030643,24.0636113 13.9363037,23.4968473 13.9363037,22.7977085 C13.9363037,22.0985697 14.5030643,21.5318057 15.2021989,21.5318057 C15.9013334,21.5318057 16.468094,22.0985697 16.468094,22.7977085 C16.468094,23.4968473 15.9013334,24.0636113 15.2021989,24.0636113 Z M22.7975696,24.0636113 C22.098435,24.0636113 21.5316745,23.4968473 21.5316745,22.7977085 C21.5316745,22.0985697 22.098435,21.5318057 22.7975696,21.5318057 C23.4967042,21.5318057 24.0634647,22.0985697 24.0634647,22.7977085 C24.0634647,23.4968473 23.4967042,24.0636113 22.7975696,24.0636113 Z" id="Shape"></path>
                        <circle id="Oval" cx="18.9394904" cy="16.3980892" r="1.27070064"></circle>
                    </g>
                </g>
            </g>
        </g>
    </g>
</svg>