<?xml version="1.0" encoding="UTF-8"?>
<svg width="127px" height="57px" viewBox="0 0 127 57" version="1.1" xmlns="http://www.w3.org/2000/svg" xmlns:xlink="http://www.w3.org/1999/xlink">
    <!-- Generator: Sketch 55.2 (78181) - https://sketchapp.com -->
    <title>Doer without tagline</title>
    <desc>Created with Sketch.</desc>
    <g id="9.-Beta-Tag" stroke="none" stroke-width="1" fill="none" fill-rule="evenodd">
        <g id="Artboard" transform="translate(-368.000000, -122.000000)">
            <g id="Doer-without-tagline" transform="translate(369.000000, 122.000000)">
                <g id="Logo-PINDO-Copy-2">
                    <g id="Group">
                        <path d="M100.749433,24.2341316 C96.0772291,24.2341316 92.276131,28.0598525 92.276131,32.7623022 C92.276131,37.4647682 96.0772291,41.2904891 100.749433,41.2904891 C105.421629,41.2904891 109.222764,37.4647682 109.222764,32.7623022 C109.222764,28.0598525 105.421629,24.2341316 100.749433,24.2341316 Z M100.749433,23.0578634 C106.074565,23.0578634 110.391464,27.4026919 110.391464,32.7623022 C110.391464,38.1219125 106.074565,42.4667555 100.749433,42.4667555 C95.4242938,42.4667555 91.1074307,38.1219144 91.1074307,32.7623022 C91.1074307,27.40269 95.4242938,23.0578634 100.749433,23.0578634 Z M117.185157,41.7818293 C120.107883,42.2556742 122.46894,44.614728 122.946248,47.5553108 C123.730418,52.3863887 119.635963,56.5021698 114.834683,55.7040017 C111.928254,55.220837 109.594947,52.8628659 109.116006,49.9374394 C108.85068,48.3168298 109.139051,46.7811155 109.81596,45.4818854 C110.067378,44.9993291 110.007567,44.4139983 109.636944,44.0168223 L109.311721,43.6682945 C108.896893,43.2237341 108.227302,43.1486148 107.721185,43.4839885 C105.715245,44.8132344 103.318796,45.5925892 100.737417,45.5925892 C97.8028706,45.5925892 95.1075679,44.5862219 92.9547304,42.9070723 C92.4654138,42.5254221 91.7765688,42.5527441 91.3287019,42.9828723 L90.3917703,43.8827033 C90.0552802,44.2058716 89.9065045,44.6960314 90.0531505,45.1402732 C90.2827176,45.8357285 90.3470686,46.606723 90.1936018,47.4089717 C89.8571476,49.1677701 88.4468073,50.5852169 86.6967967,50.910391 C83.5965806,51.48646 80.9341442,48.8056935 81.5082956,45.6851713 C81.8213736,43.9836203 83.1456775,42.5925939 84.8211348,42.2040788 C85.7635849,41.9855424 86.6654342,42.0768138 87.4572451,42.389996 C87.9111197,42.5695154 88.4294964,42.4371778 88.7823046,42.0983354 L89.7644128,41.1551064 C90.1937745,40.7427487 90.270033,40.0855935 89.9531921,39.5805307 C88.7139892,37.6051512 87.9896735,35.2713375 87.9896735,32.7623131 C87.9896735,28.808069 89.7714135,25.2773598 92.5666027,22.9248161 C93.047307,22.5202339 93.1646267,21.8263465 92.8304605,21.2928211 L92.782521,21.2162753 C92.4940855,20.7557637 91.947548,20.5535605 91.4193863,20.6708902 C90.9766566,20.7692419 90.5173139,20.82253 90.045006,20.82253 C86.2106172,20.82253 83.1517141,17.481156 83.5857956,13.5335858 C83.9160621,10.5301245 86.3504137,8.09443524 89.3360154,7.77556303 C91.6399813,7.52949144 93.7265756,8.49926992 95.0553188,10.1225535 C95.3974857,10.5405649 95.9504338,10.7169768 96.4552913,10.5295063 L101.74188,8.56638649 C102.244601,8.37970617 102.572119,7.89084976 102.552556,7.35189285 C102.550009,7.281595 102.548664,7.2109772 102.548664,7.14001362 C102.548664,3.19667519 105.724851,2.45137244e-13 109.642829,2.45137244e-13 C111.611269,2.45137244e-13 113.391671,0.807834692 114.676856,2.11096556 L113.407881,3.33959635 C112.24829,2.17576463 110.559486,1.54571618 108.736102,1.84808974 C106.524561,2.21483256 104.742613,4.01254019 104.382984,6.23918571 C103.788176,9.92201579 106.92105,13.0568426 110.584855,12.4260183 C112.833089,12.0389242 114.616261,10.1712315 114.924145,7.89658325 C114.984517,7.45051658 114.990553,7.01388966 114.948032,6.5915519 L116.488326,5.29193266 C116.861582,6.69575423 116.865309,8.25244123 116.146425,9.90615787 C115.106333,12.2987658 112.861142,14.0267301 110.276051,14.2523631 C107.658719,14.4808112 105.305828,13.2772028 103.902265,11.3338722 C103.569372,10.8729578 102.988609,10.6689324 102.457447,10.8661726 L97.3487226,12.7632421 C96.8451889,12.9502247 96.5108645,13.4406833 96.5378021,13.980191 C96.5427594,14.0795131 96.5453496,14.1794688 96.5453496,14.2800653 C96.5453496,15.9153515 95.9462751,17.4072279 94.9598571,18.5530639 C94.595753,18.9760104 94.5748878,19.5991959 94.8714248,20.07259 L94.9457767,20.1912902 C95.257243,20.6885268 95.8689085,20.8985599 96.417921,20.6981054 C98.0635339,20.0972707 99.8632971,19.822222 101.748392,19.9723012 C108.23867,20.4890137 113.385656,26.0141348 113.483694,32.5660877 C113.52777,35.5115874 112.577642,38.2264865 110.958219,40.4107206 C110.597921,40.8966732 110.634162,41.5703534 111.046586,42.0123322 L111.274319,42.2563839 C111.667577,42.6778223 112.28689,42.7564501 112.795813,42.4882952 C114.076804,41.8133296 115.588218,41.522929 117.185157,41.7818293 Z M85.8534561,48.8198108 C87.1044227,48.8198108 88.1220305,47.7955752 88.1220305,46.536586 C88.1220305,45.2775968 87.1044227,44.2533611 85.8534561,44.2533611 C84.6026407,44.2533611 83.5849538,45.2775968 83.5849538,46.536586 C83.5849538,47.7955752 84.6026407,48.8198108 85.8534561,48.8198108 Z M90.045006,18.7338034 C92.4850344,18.7338034 94.4700585,16.7358912 94.4700585,14.2800653 C94.4700585,11.8242394 92.4850344,9.82632617 90.045006,9.82632617 C87.6049777,9.82632617 85.6199535,11.8242384 85.6199535,14.2800653 C85.6199535,16.7358921 87.6049777,18.7338034 90.045006,18.7338034 Z M100.737417,42.5127424 C106.087868,42.5127424 110.425208,38.1473608 110.425208,32.762313 C110.425208,27.3772652 106.087868,23.0118457 100.737417,23.0118457 C95.3870459,23.0118457 91.0497062,27.3772634 91.0497062,32.762313 C91.0497062,38.1473626 95.3870459,42.5127424 100.737417,42.5127424 Z M116.030616,53.6345339 C118.709033,53.6345339 120.887937,51.4414797 120.887937,48.745803 C120.887937,46.0501626 118.709033,43.8571084 116.030616,43.8571084 C113.352358,43.8571084 111.173367,46.0501626 111.173367,48.745803 C111.173367,51.4414797 113.352358,53.6345339 116.030616,53.6345339 Z M92.230832,13.9002833 C92.230832,13.9002833 92.5212821,15.8500752 91.5306119,17.6085911 C91.0792484,17.8118806 90.5825714,17.9304903 90.0568631,17.9304903 C89.5312987,17.9304903 89.0347225,17.8120273 88.5834525,17.6088355 C87.5926816,15.8502725 87.8831389,13.9002833 87.8831389,13.9002833 C88.4948835,13.5924552 89.2433309,13.4845828 89.683492,13.4458953 C89.1874986,13.2859505 88.8260638,12.8236684 88.8260638,12.2714112 C88.8260638,11.5872064 89.377206,11.0325469 90.057007,11.0325469 C90.7368081,11.0325469 91.2878999,11.5872065 91.2878999,12.2714112 C91.2878999,12.8236684 90.9265154,13.2859505 90.430522,13.4458953 C90.8706832,13.4845828 91.6191306,13.5924552 92.230832,13.9002833 Z M118.495892,48.1606714 C118.495892,48.1606714 118.82528,50.371822 117.701814,52.3660547 C117.189942,52.5965938 116.626698,52.7311039 116.030516,52.7311039 C115.434506,52.7311039 114.871363,52.5967604 114.359606,52.3663335 C113.236032,50.3720429 113.56542,48.1606714 113.56542,48.1606714 C114.259165,47.8115824 115.107931,47.6892488 115.607097,47.6453764 C115.044623,47.4639924 114.634738,46.9397433 114.634738,46.3134621 C114.634738,45.5375433 115.259757,44.9085357 116.030681,44.9085357 C116.801605,44.9085357 117.426574,45.5375433 117.426574,46.3134621 C117.426574,46.9397433 117.016747,47.4639924 116.454265,47.6453764 C116.953432,47.6892488 117.802197,47.8115824 118.495892,48.1606714 Z M109.910608,9.96697881 L106.152118,6.30822294 L108.504139,5.80853736 L110.076292,7.51802681 L115.917671,1.86272112 L119.516269,1.86272112 L109.910608,9.96697881 Z M87.3356517,46.5369227 C87.3356517,47.3528287 86.6762122,48.0165374 85.8655579,48.0165374 C85.0548965,48.0165374 84.395457,47.3528288 84.395457,46.5369227 C84.395457,45.7210166 85.0548964,45.0565222 85.8655579,45.0565222 C86.6762122,45.0565222 87.3356517,45.7210166 87.3356517,46.5369227 Z M29.8271347,18.3927952 C27.9152704,18.3927952 26.3653981,16.8328891 26.3653981,14.9086475 C26.3653981,12.9844058 27.9152704,11.4244997 29.8271347,11.4244997 C31.738999,11.4244997 33.2888713,12.9844058 33.2888713,14.9086475 C33.2888713,16.8328891 31.738999,18.3927952 29.8271347,18.3927952 Z" id="Combined-Shape" fill="#E6854A" fill-rule="nonzero"></path>
                        <path d="M84.8851764,23.1930035 C85.6804912,25.0901336 86.0780227,27.13554 86.0780227,29.329025 C86.0780227,31.5224123 85.6804912,33.5753225 84.8851764,35.4870641 C84.0901062,37.3992982 82.9635679,39.0519005 81.5058421,40.4448278 C80.0480156,41.8380954 78.3101212,42.9347166 76.2928784,43.7349305 C74.2752902,44.5353942 72.058886,44.9357455 69.6442052,44.9357455 L58.9089698,44.9357455 L58.9089698,13.8112984 L69.6442052,13.8112984 C72.0588859,13.8112984 74.2752902,14.2038561 76.2928784,14.9895581 C78.3101212,15.7749179 80.0480156,16.8643302 81.5058421,18.2575997 C82.9635679,19.6507695 84.0901062,21.2958715 84.8851764,23.1930035 Z M81.549882,34.2644307 C82.1535396,32.7821655 82.4556814,31.1669725 82.4556814,29.4178234 C82.4556814,27.6987318 82.1535396,26.0832455 81.549882,24.5714153 C80.9460733,23.0595851 80.0921562,21.7481025 78.9875336,20.6363303 C77.8831627,19.5249021 76.5358279,18.6504506 74.9454501,18.0129741 C73.3550651,17.3755954 71.5877868,17.057078 69.6442052,17.057078 L62.3989901,17.057078 L62.3989901,41.6900149 L69.6442052,41.6900149 C71.5877869,41.6900149 73.3550651,41.378462 74.9454501,40.755892 C76.5358279,40.1337601 77.8831627,39.2663709 78.9875336,38.1550893 C80.0921562,37.0433189 80.9460733,35.7464967 81.549882,34.2644307 Z M13.7648787,13.7115655 C19.7568843,13.7115655 24.6589339,18.6453997 24.6589339,24.6761485 L24.6589339,24.6766391 C24.6589339,30.7074367 19.7568842,35.641224 13.7648787,35.641224 L6.92333775,35.641224 L6.92333775,44.9248145 L0,44.9248145 L0,35.641224 L0,13.7115655 L6.92333775,13.7115655 L13.7648787,13.7115655 Z M13.6299801,29.3811961 C16.1910587,29.3811961 18.3045205,27.2537079 18.3045205,24.6761485 C18.3045205,22.0985891 16.1910587,19.9716422 13.6299801,19.9716422 L6.92333775,19.9716422 L6.92333775,29.3811961 L13.6299801,29.3811961 Z M33.2888737,44.9248145 L26.3653993,44.9248145 L26.3653993,21.275581 L33.2888737,21.275581 L33.2888737,44.9248145 Z M35.0024458,44.9248145 L35.0024458,21.2755809 L41.9259994,21.2755809 L41.9259994,24.7426993 C43.3644933,22.3272526 45.9607944,21.0534039 48.9483279,21.0534039 C53.4671045,21.0534039 57.1953976,24.4222412 57.1953976,28.9703519 L57.1953976,30.8681972 L57.1953976,44.9248145 L50.2708044,44.9248145 L50.2708044,31.10567 C50.2708044,28.7959432 48.3933113,26.9065342 46.0981231,26.9065342 C43.8032551,26.9065342 41.9259995,28.7959432 41.9259995,31.10567 L41.9259995,44.9248145 L40.7625622,44.9248145 L35.0024458,44.9248145 Z M100.74944,19.9319934 C107.789846,19.9319934 113.497198,25.6763407 113.497198,32.7623276 C113.497198,39.848262 107.789846,45.592611 100.74944,45.592611 C93.7090849,45.592611 88.0016818,39.8482619 88.0016818,32.7623276 C88.0016818,25.6763407 93.7090849,19.9319934 100.74944,19.9319934 Z M100.74944,42.5127569 C106.09984,42.5127569 110.437202,38.1473645 110.437202,32.7623276 C110.437202,27.3772906 106.09984,23.0118457 100.74944,23.0118457 C95.3990469,23.0118457 91.0617288,27.3772924 91.0617288,32.7623276 C91.0617288,38.1473627 95.399047,42.5127569 100.74944,42.5127569 Z" id="Combined-Shape" fill="#004467"></path>
                        <g id="Group-2" transform="translate(120.000000, 4.000000)" fill="#004467">
                            <polygon id="Path" points="0.784083571 0.505786281 -4.15223411e-14 0.505786281 -4.15223411e-14 6.10622664e-15 2.1391241 6.10622664e-15 2.1391241 0.505786281 1.35896894 0.505786281 1.35896894 2.69912153 0.784083571 2.69912153"></polygon>
                            <polygon id="Path" points="4.83807808 0.809258847 4.08214087 2.69912153 3.83268716 2.69912153 3.07674994 0.809258847 3.07674994 2.69912153 2.50611684 2.69912153 2.50611684 6.10622664e-15 3.30623783 6.10622664e-15 3.95740322 1.63087345 4.60891399 6.10622664e-15 5.41296338 6.10622664e-15 5.41296338 2.69912153 4.83807808 2.69912153"></polygon>
                        </g>
                        <path d="M100.749721,45.6540005 C93.6863274,45.6540005 87.9405253,39.8710001 87.9405253,32.7624796 C87.9405253,25.6533527 93.6863274,19.8703523 100.749721,19.8703523 C107.812517,19.8703523 113.558319,25.6533527 113.558319,32.7624796 C113.558319,39.8710001 107.812517,45.6540005 100.749721,45.6540005 Z M100.749721,23.0735973 C95.4415183,23.0735973 91.1231659,27.4199102 91.1231659,32.7624796 C91.1231659,38.105049 95.4415183,42.4513601 100.749721,42.4513601 C106.057326,42.4513601 110.375678,38.1050472 110.375678,32.7624796 C110.375678,27.419912 106.057326,23.0735973 100.749721,23.0735973 Z" id="Shape" fill="#004E7C" fill-rule="nonzero"></path>
                    </g>
                    <g id="Group" transform="translate(118.823956, 4.745763)"></g>
                </g>
                <rect id="Rectangle" stroke="#FFFFFF" fill="#E6854A" x="-0.5" y="41.5" width="50" height="15" rx="7"></rect>
                <text id="BETA" font-family="Montserrat-Bold, Montserrat" font-size="12" font-weight="bold" letter-spacing="1" fill="#FFFFFF">
                    <tspan x="6" y="53.5">BET</tspan>
                    <tspan x="33.648" y="53.5">A</tspan>
                </text>
            </g>
        </g>
    </g>
</svg>