<?xml version="1.0" encoding="UTF-8"?>
<svg width="554px" height="716px" viewBox="0 0 554 716" version="1.1" xmlns="http://www.w3.org/2000/svg" xmlns:xlink="http://www.w3.org/1999/xlink">
    <!-- Generator: sketchtool 53 (72520) - https://sketchapp.com -->
    <title>37D69360-ACB0-403A-AE03-033577851074</title>
    <desc>Created with sketchtool.</desc>
    <g id="1.-Marketing-Pages" stroke="none" stroke-width="1" fill="none" fill-rule="evenodd" opacity="0.600000024">
        <g id="1.-Homepage-_-16" transform="translate(-40.000000, 0.000000)" fill="#BAD141" fill-rule="nonzero">
            <g id="Group-5" transform="translate(-240.000000, -91.000000)">
                <g id="Group" transform="translate(280.000000, 0.000000)">
                    <path d="M375.445436,66.0702641 C375.454983,66.0702613 375.464531,66.0702599 375.474079,66.0702599 C401.660923,66.0702599 425.344875,76.7955298 442.442062,94.0970801 L425.561473,110.40947 C425.535197,110.383151 425.508901,110.356852 425.482584,110.330574 L425.401153,110.40926 C412.607272,97.5938214 394.970802,89.6532048 375.4867,89.6068334 C375.482497,89.6068327 375.478288,89.6068323 375.474079,89.6068323 C336.294789,89.6068323 304.533821,121.511168 304.533821,160.866641 C304.533821,200.205458 336.267009,232.098542 375.422666,232.126438 C379.407178,232.120496 383.468146,231.784589 387.57999,231.093024 C394.96608,229.817402 401.961703,227.394665 408.378562,224.013957 C428.133023,213.526168 442.472318,193.765955 445.571871,170.911371 C446.374998,164.989043 446.455301,159.192043 445.889638,153.584758 L466.380036,136.329999 C466.389742,136.366433 466.39943,136.402875 466.409098,136.439324 L466.539015,136.32992 C468.628331,144.16848 469.84666,152.365889 469.84666,160.866641 C469.84666,213.221363 427.594414,255.663576 375.474079,255.663576 C375.402116,255.663576 375.330172,255.663495 375.258248,255.663333 C343.877438,255.644842 316.090803,240.235198 298.948784,216.547499 C294.520343,210.428041 286.794497,207.71924 279.728496,210.337954 L211.767588,235.524929 C205.772172,237.746898 201.580018,243.196658 201.023019,249.45213 C201.167328,251.503757 201.240706,253.575059 201.240706,255.663576 C201.240706,278.239398 192.666754,298.803703 178.611318,314.2501 C175.133404,319.72923 175.282485,326.94555 178.812314,332.56953 L179.80141,334.145487 C183.944819,340.747187 192.081751,343.535751 199.385216,340.874361 C221.276659,332.897211 245.21875,329.245449 270.295995,331.238018 C356.635588,338.098296 425.105497,411.454112 426.409681,498.442946 C426.996018,537.549698 414.356562,573.594814 392.813514,602.594409 C388.020502,609.046295 388.502607,617.990598 393.989059,623.858654 L397.018562,627.098874 C402.250035,632.69422 410.48871,633.738143 417.258863,630.17791 C430.169838,623.388364 444.84038,619.529679 460.432173,619.553072 C460.438614,619.553071 460.44505,619.55307 460.451487,619.55307 C466.859935,619.55307 473.117453,620.202174 479.162435,621.438501 C483.615932,622.341879 487.961824,623.57466 492.172706,625.109867 C528.077073,638.149405 553.73677,672.693485 553.73677,713.2578 C553.73677,765.009601 511.971608,806.962529 460.451487,806.962529 C460.403962,806.962529 460.356446,806.962493 460.308938,806.962422 C455.088945,806.963398 449.768805,806.533717 444.381777,805.639933 C405.717806,799.225062 374.678033,767.918798 368.306716,729.078556 C364.777113,707.562079 368.613284,687.172738 377.618141,669.923147 C380.962731,663.516353 380.167069,655.745045 375.236709,650.471828 L370.910297,645.844501 C365.391877,639.94217 356.484361,638.944828 349.751536,643.39751 C323.066698,661.045615 291.18695,671.392937 256.847094,671.392937 C217.809078,671.392937 181.953704,658.03162 153.314697,635.737921 C146.805362,630.670835 137.641718,631.033583 131.683785,636.744301 L119.219867,648.691159 C115.244637,652.501507 113.238793,658.060389 114.205844,663.38802 C116.565756,669.785289 117.855003,676.704608 117.855003,683.926414 C117.855003,706.122142 105.676551,725.460683 87.6655832,735.567473 C82.2551341,738.626712 76.329488,740.833262 70.0778272,741.994018 C66.4923597,742.679577 62.7915903,743.038366 59.0073935,743.038366 C58.9762477,743.038366 58.9451075,743.038342 58.913973,743.038293 C22.6999145,743.078798 -5.8948556,710.259686 1.04378756,672.622129 C5.20863678,650.031011 22.8257349,631.56266 45.1141946,626.40443 C49.833102,625.312355 54.4754933,624.802996 58.9921133,624.814128 C58.9972117,624.814126 59.0023026,624.814126 59.0073935,624.814126 C67.0815552,624.814126 74.775916,626.447502 81.7808666,629.403254 C87.4071113,630.928618 93.5255996,629.106536 97.8092858,625.000499 L110.874186,612.477455 C116.585946,607.002674 117.600406,598.277769 113.385499,591.572161 C96.900493,565.345482 87.2649845,534.359952 87.2649845,501.048188 C87.2649845,448.548561 110.967314,401.672113 148.151469,370.437908 C154.546236,365.06636 156.10693,355.853769 151.661546,348.77027 L151.023812,347.753988 C147.518884,342.169069 141.149087,339.44568 134.71764,340.203361 C128.313007,341.722691 121.63324,342.526655 114.766541,342.526655 C114.678115,342.526655 114.589721,342.526521 114.501358,342.526255 C63.5422439,342.465117 22.9100214,298.127481 28.6805863,245.752612 C33.0740932,205.876318 65.458057,173.538209 105.175252,169.304613 C108.346532,168.966574 111.486853,168.801357 114.588252,168.80069 C114.647683,168.800569 114.707105,168.800509 114.766541,168.800509 C142.517412,168.800509 167.215174,181.931371 183.038128,202.345188 C187.590674,206.513294 193.983292,208.054325 199.88235,205.86811 L270.209375,179.804201 C276.897023,177.325688 281.253968,170.835249 280.993725,163.679637 C280.959842,162.746308 280.941944,161.808731 280.941944,160.866563 C280.941944,108.511728 323.194477,66.0701754 375.315004,66.0701754 C375.358487,66.0701754 375.401963,66.070205 375.445433,66.0702641 Z M460.27342,778.164062 C460.279335,778.164064 460.285251,778.164065 460.291168,778.164065 C495.921903,778.164065 524.907678,749.047367 524.907678,713.257462 C524.907678,677.48834 495.954778,648.384376 460.351797,648.351369 C424.768039,648.40562 395.835551,677.501568 395.835551,713.257799 C395.835551,748.987774 424.725564,778.067243 460.27342,778.164062 Z M58.9362379,653.612431 C42.3282785,653.651131 28.8290364,667.234875 28.8290364,683.926414 C28.8290364,700.60849 42.3135178,714.186503 58.9089945,714.239984 C75.5221341,714.206307 89.0257182,700.620762 89.0257182,683.926174 C89.0257182,667.240714 75.5368975,653.660899 58.9362362,653.612431 Z M114.560949,314.794738 C114.576262,314.79475 114.591576,314.794756 114.606891,314.794756 C147.066373,314.794756 173.472973,288.268915 173.472973,255.663456 C173.472973,223.075673 147.094997,196.560906 114.659679,196.532166 C82.2493119,196.590309 55.8996932,223.094084 55.8996932,255.663576 C55.8996932,288.19999 82.1958177,314.683013 114.560949,314.794738 Z M256.847095,630.502489 C328.023669,630.502489 385.722914,572.54428 385.722914,501.048187 C385.722914,429.552094 328.023668,371.593381 256.847095,371.593381 C185.671575,371.593381 127.972329,429.55207 127.972329,501.048187 C127.972329,572.544304 185.671575,630.502489 256.847095,630.502489 Z M143.684742,250.621174 C143.684742,250.621174 147.548574,276.508131 134.369775,299.85556 C128.365326,302.55459 121.758076,304.129344 114.764626,304.129344 C107.773089,304.129344 101.16718,302.556537 95.1639742,299.858805 C81.9838367,276.510751 85.8477643,250.621174 85.8477643,250.621174 C93.985749,246.534208 103.942278,245.102011 109.797703,244.588365 C103.199547,242.464813 98.3914116,236.327196 98.3914116,228.994998 C98.3914116,219.910962 105.723207,212.54687 114.76654,212.54687 C123.809873,212.54687 131.140999,219.910963 131.140999,228.994998 C131.140999,236.327196 126.333533,242.464813 119.735377,244.588365 C125.590802,245.102011 135.547331,246.534208 143.684742,250.621174 Z M493.086505,705.488799 C493.086505,705.488799 497.468335,734.845758 482.522965,761.322747 C475.71357,764.383563 468.220786,766.169424 460.289828,766.169424 C452.361167,766.169424 444.869722,764.385774 438.061859,761.326448 C423.115053,734.848691 427.496883,705.488799 427.496883,705.488799 C436.725708,700.854021 448.016761,699.229825 454.657127,698.647341 C447.174584,696.239145 441.721918,689.278805 441.721918,680.963807 C441.721918,670.662105 450.036493,662.310909 460.292029,662.310909 C470.547566,662.310909 478.861471,670.662105 478.861471,680.963807 C478.861471,689.278805 473.409571,696.239145 465.926932,698.647341 C472.567298,699.229825 483.858351,700.854021 493.086505,705.488799 Z M378.877245,198.399557 L328.878384,149.823061 L360.167106,143.188846 L381.08132,165.885361 L458.788668,90.8011133 L506.660502,90.8011133 L378.877245,198.399557 Z M78.5645914,683.930644 C78.5645914,694.763249 69.7921257,703.575164 59.0080635,703.575164 C48.2239059,703.575164 39.4514402,694.76325 39.4514402,683.930644 C39.4514402,673.098039 48.2239053,664.275693 59.0080635,664.275693 C69.7921257,664.275693 78.5645914,673.098039 78.5645914,683.930644 Z" id="Combined-Shape"></path>
                </g>
            </g>
        </g>
    </g>
</svg>