<svg xmlns="http://www.w3.org/2000/svg" width="299" height="447" viewBox="0 0 299 447">
    <g fill="none" fill-rule="evenodd" transform="translate(-25)">
        <path fill="#00467C" fill-rule="nonzero" d="M91.857 117.82s2.47 16.528-5.955 31.433c-3.839 1.723-8.063 2.729-12.534 2.729-4.47 0-8.693-1.005-12.53-2.727-8.426-14.906-5.956-31.434-5.956-31.434 5.202-2.61 11.568-3.524 15.31-3.852-4.217-1.355-7.291-5.274-7.291-9.955 0-5.8 4.687-10.5 10.468-10.5 5.782 0 10.469 4.7 10.469 10.5 0 4.681-3.074 8.6-7.292 9.955 3.743.328 10.108 1.243 15.31 3.852zm223.37 290.397s2.801 18.742-6.753 35.646c-4.354 1.954-9.144 3.094-14.214 3.094-5.069 0-9.858-1.139-14.21-3.092-9.556-16.904-6.754-35.648-6.754-35.648 5.9-2.959 13.118-3.996 17.363-4.368-4.783-1.537-8.27-5.98-8.27-11.289 0-6.577 5.316-11.908 11.872-11.908 6.557 0 11.872 5.331 11.872 11.908 0 5.308-3.486 9.752-8.27 11.29 4.246.371 11.464 1.408 17.364 4.367zM285.156 55.871l13.1-11.016c1.335 5.004 2.114 10.238 2.114 15.665 0 33.424-27.012 60.52-60.332 60.52s-60.331-27.096-60.331-60.52c0-33.424 27.01-60.52 60.33-60.52 16.742 0 31.883 6.847 42.813 17.893l-10.792 10.414c-8.203-8.206-19.52-13.28-32.02-13.28-25.047 0-45.352 20.368-45.352 45.493 0 25.126 20.305 45.494 45.352 45.494 25.047 0 45.352-20.368 45.352-45.494 0-1.57-.08-3.12-.234-4.649zm-42.942 28.61L210.25 53.47l20.002-4.235 13.37 14.49L293.3 15.789h30.604l-81.69 68.693zM50.226 394.455c0 6.916-5.608 12.542-12.503 12.542-6.894 0-12.502-5.626-12.502-12.542 0-6.916 5.608-12.548 12.502-12.548 6.895 0 12.503 5.632 12.503 12.548z" opacity=".8"/>
        <circle cx="164" cy="278" r="80.3" stroke="#BAD141" stroke-width="5.4"/>
        <path fill="#BAD141" d="M125 280.884l13.1-3.538 9.742 9.407L184.282 253H205l-58.408 50z"/>
    </g>
</svg>
