<svg xmlns="http://www.w3.org/2000/svg" width="145" height="66" viewBox="0 0 145 66">
    <g fill="none" fill-rule="evenodd">
        <g>
            <path fill="#BAD141" fill-rule="nonzero" d="M118.624 28.562c5.501 0 9.977 4.509 9.977 10.05 0 5.543-4.476 10.052-9.977 10.052-5.5 0-9.976-4.51-9.976-10.051 0-5.542 4.475-10.051 9.976-10.051zm0-1.387c-6.27 0-11.352 5.121-11.352 11.438 0 6.316 5.082 11.437 11.352 11.437 6.27 0 11.353-5.12 11.353-11.437 0-6.317-5.083-11.438-11.353-11.438z"/>
            <path fill="#BAD141" fill-rule="nonzero" d="M137.976 49.243a8.181 8.181 0 0 0-5.168.832c-.6.317-1.328.224-1.791-.273l-.269-.287a1.478 1.478 0 0 1-.104-1.888 15.092 15.092 0 0 0 2.974-9.246c-.116-7.721-6.176-14.233-13.817-14.842a14.783 14.783 0 0 0-6.277.855 1.453 1.453 0 0 1-1.733-.597l-.088-.14c-.349-.558-.324-1.292.105-1.79a7.696 7.696 0 0 0 1.857-5.39 1.46 1.46 0 0 1 .955-1.435l6.015-2.235c.626-.233 1.31.008 1.702.55 1.652 2.291 4.422 3.71 7.504 3.44 3.044-.265 5.687-2.302 6.912-5.122.846-1.949.842-3.784.403-5.438l-1.814 1.532c.05.497.043 1.012-.028 1.538-.363 2.68-2.462 4.882-5.11 5.338-4.313.743-8.002-2.951-7.301-7.292.423-2.624 2.521-4.743 5.125-5.175a6.25 6.25 0 0 1 5.5 1.758l1.495-1.448A8.295 8.295 0 0 0 129.096 0c-4.614 0-8.353 3.768-8.353 8.415 0 .084.001.167.004.25a1.469 1.469 0 0 1-.954 1.431l-6.225 2.314c-.594.22-1.245.013-1.648-.48-1.565-1.913-4.021-3.056-6.734-2.766-3.515.376-6.382 3.247-6.77 6.786-.512 4.653 3.09 8.59 7.605 8.59.556 0 1.097-.062 1.618-.178.622-.138 1.265.1 1.605.643l.056.09a1.485 1.485 0 0 1-.31 1.924 15.119 15.119 0 0 0-5.39 11.594c0 2.957.854 5.707 2.313 8.035.373.596.283 1.37-.223 1.856l-1.156 1.112c-.415.4-1.026.555-1.56.344a5.176 5.176 0 0 0-3.104-.22c-1.973.458-3.532 2.098-3.9 4.103-.677 3.678 2.458 6.837 6.108 6.159 2.061-.384 3.722-2.054 4.118-4.127a5.306 5.306 0 0 0-.166-2.674c-.172-.524.003-1.101.399-1.482l1.103-1.06a1.458 1.458 0 0 1 1.915-.09 14.833 14.833 0 0 0 9.163 3.165c3.04 0 5.861-.918 8.223-2.485a1.454 1.454 0 0 1 1.873.217l.383.411c.436.468.506 1.158.21 1.727a8.366 8.366 0 0 0-.824 5.25c.564 3.449 3.311 6.228 6.734 6.797 5.653.94 10.474-3.91 9.55-9.604-.562-3.465-3.342-6.246-6.783-6.804zm-36.89 8.295c-1.473 0-2.671-1.208-2.671-2.691 0-1.484 1.198-2.691 2.67-2.691 1.473 0 2.672 1.207 2.672 2.69 0 1.484-1.199 2.692-2.671 2.692zm4.935-35.459c-2.873 0-5.21-2.355-5.21-5.249 0-2.894 2.337-5.249 5.21-5.249 2.873 0 5.21 2.355 5.21 5.25 0 2.893-2.337 5.248-5.21 5.248zm12.59 28.025c-6.3 0-11.407-5.145-11.407-11.491 0-6.347 5.107-11.492 11.406-11.492 6.3 0 11.407 5.145 11.407 11.492 0 6.346-5.107 11.491-11.407 11.491zm18.006 13.108c-3.154 0-5.72-2.585-5.72-5.762 0-3.177 2.566-5.761 5.72-5.761 3.153 0 5.719 2.584 5.719 5.761s-2.566 5.762-5.72 5.762z"/>
            <path fill="#FFF" d="M99.945 27.335a17.088 17.088 0 0 0-3.978-5.817c-1.717-1.642-3.763-2.926-6.138-3.852-2.376-.926-4.985-1.388-7.829-1.388H69.36V52.96H82c2.844 0 5.453-.472 7.829-1.415 2.375-.943 4.421-2.236 6.138-3.878 1.716-1.642 3.042-3.59 3.978-5.843.937-2.253 1.405-4.673 1.405-7.258s-.468-4.995-1.405-7.231zm-3.927 13.048a13.847 13.847 0 0 1-3.017 4.585c-1.3 1.31-2.886 2.333-4.759 3.066-1.872.733-3.953 1.1-6.242 1.1h-8.53V20.104H82c2.289 0 4.37.375 6.242 1.127 1.873.75 3.46 1.781 4.76 3.091 1.3 1.31 2.305 2.856 3.016 4.638.711 1.782 1.067 3.686 1.067 5.712 0 2.062-.356 3.965-1.067 5.712zM16.207 16.16H0v36.787h8.152V42.006h8.055c7.055 0 12.827-5.815 12.827-12.923S23.262 16.16 16.207 16.16zm-.159 18.468H8.152v-11.09h7.896c3.016 0 5.504 2.507 5.504 5.545 0 3.037-2.488 5.545-5.504 5.545zM31.043 52.947h8.152V25.075h-8.152zM41.213 52.947H49.365V36.66c0-2.722 2.21-4.949 4.912-4.949s4.913 2.227 4.913 4.95v16.286H67.343V34.144c0-5.36-4.39-9.331-9.71-9.331h-.001c-3.517 0-6.574 1.501-8.268 4.348v-4.086h-8.151v27.872z"/>
            <path fill="#BAD141" d="M108.594 16.382c-.72-.362-1.601-.49-2.12-.535a1.454 1.454 0 0 0 1.01-1.384c0-.807-.649-1.46-1.45-1.46-.8 0-1.448.653-1.448 1.46 0 .65.425 1.195 1.01 1.384-.52.046-1.4.173-2.12.535 0 0-.343 2.299.824 4.371.531.24 1.116.38 1.735.38s1.203-.14 1.735-.38c1.166-2.073.824-4.37.824-4.37zM139.52 56.76c-.817-.41-1.817-.555-2.404-.607a1.649 1.649 0 0 0 1.144-1.57 1.65 1.65 0 0 0-1.643-1.655 1.65 1.65 0 0 0-1.644 1.656c0 .738.483 1.356 1.145 1.57-.588.051-1.587.195-2.404.607 0 0-.388 2.606.935 4.956.603.272 1.266.43 1.968.43s1.365-.158 1.967-.43c1.323-2.35.935-4.956.935-4.956z"/>
            <path fill="#BAD141" fill-rule="nonzero" d="M106.035 11.581c2.873 0 5.21 2.355 5.21 5.25 0 2.893-2.337 5.248-5.21 5.248-2.873 0-5.21-2.355-5.21-5.249 0-2.894 2.337-5.249 5.21-5.249zm0-2.462c-4.227 0-7.654 3.453-7.654 7.711 0 4.259 3.427 7.71 7.654 7.71s7.654-3.451 7.654-7.71c0-4.258-3.427-7.71-7.654-7.71zM101.1 52.156c1.473 0 2.67 1.207 2.67 2.69 0 1.484-1.197 2.692-2.67 2.692-1.473 0-2.671-1.208-2.671-2.691 0-1.484 1.198-2.691 2.67-2.691zm0-2.557c-2.877 0-5.209 2.35-5.209 5.248s2.332 5.247 5.209 5.247c2.876 0 5.208-2.35 5.208-5.247 0-2.898-2.332-5.248-5.208-5.248zM136.63 51.689c3.154 0 5.72 2.584 5.72 5.761s-2.566 5.762-5.72 5.762c-3.153 0-5.718-2.585-5.718-5.762 0-3.177 2.565-5.761 5.719-5.761zm0-2.557c-4.559 0-8.256 3.724-8.256 8.318 0 4.594 3.697 8.319 8.257 8.319s8.256-3.725 8.256-8.319c0-4.594-3.696-8.318-8.256-8.318z"/>
            <path fill="#BAD141" d="M135.356 7.769c.022.212.033.428.033.646 0 3.494-2.812 6.326-6.28 6.326-3.467 0-6.278-2.832-6.278-6.326 0-3.494 2.811-6.326 6.279-6.326 1.73 0 3.297.706 4.433 1.847l1.494-1.448A8.295 8.295 0 0 0 129.11 0c-4.613 0-8.353 3.768-8.353 8.415 0 4.648 3.74 8.415 8.353 8.415 4.613 0 8.352-3.767 8.352-8.415a8.46 8.46 0 0 0-.292-2.178l-1.814 1.532z"/>
            <path fill="#BAD141" d="M129.41 11.747l-4.424-4.312 2.769-.59 1.851 2.016 6.878-6.666h4.237zM102.83 54.847a1.74 1.74 0 0 0-1.73-1.745 1.74 1.74 0 0 0-1.731 1.745 1.74 1.74 0 0 0 1.73 1.744 1.74 1.74 0 0 0 1.732-1.744z"/>
            <path fill="#004E7C" fill-rule="nonzero" d="M118.625 53.807c-8.317 0-15.082-6.816-15.082-15.194 0-8.379 6.765-15.194 15.082-15.194 8.316 0 15.08 6.815 15.08 15.194 0 8.378-6.764 15.194-15.08 15.194zm0-26.613c-6.25 0-11.335 5.122-11.335 11.419 0 6.297 5.085 11.419 11.335 11.419 6.249 0 11.333-5.122 11.333-11.42 0-6.296-5.084-11.418-11.333-11.418z"/>
            <path fill="#FFF" fill-rule="nonzero" d="M118.624 23.491c-8.29 0-15.01 6.77-15.01 15.122 0 8.351 6.72 15.121 15.01 15.121s15.01-6.77 15.01-15.121c0-8.352-6.72-15.122-15.01-15.122zm0 26.613c-6.3 0-11.406-5.145-11.406-11.491 0-6.347 5.107-11.492 11.406-11.492 6.3 0 11.407 5.145 11.407 11.492 0 6.346-5.107 11.491-11.407 11.491z"/>
            <ellipse cx="35.119" cy="17.571" fill="#BAD141" rx="4.076" ry="4.106"/>
        </g>
        <g fill="#FFF">
            <path d="M140.841 8.031V6.308h-.616v-.397h1.68v.397h-.613v1.723h-.451zM144.023 8.031V6.547l-.593 1.484h-.196l-.593-1.484V8.03h-.448v-2.12h.628l.51 1.281.512-1.281h.631v2.12h-.45z"/>
        </g>
    </g>
</svg>
