<?xml version="1.0" encoding="UTF-8"?>
<svg width="1285px" height="622px" viewBox="0 0 1285 622" version="1.1" xmlns="http://www.w3.org/2000/svg" xmlns:xlink="http://www.w3.org/1999/xlink">
    <!-- Generator: Sketch 55.2 (78181) - https://sketchapp.com -->
    <title>Shape</title>
    <desc>Created with Sketch.</desc>
    <g id="2.-Login-and-Registration" stroke="none" stroke-width="1" fill="none" fill-rule="evenodd" opacity="0.900000036">
        <g id="2.-Login-_-08" transform="translate(-114.000000, -116.000000)" fill="#F3F6F9" fill-rule="nonzero">
            <g id="Bg-Logo" transform="translate(114.000000, 116.000000)">
                <path d="M276.108793,-1.53477231e-12 L408.676467,-1.53477231e-12 C340.727696,57.148519 297.527568,142.915338 297.527568,238.799568 C297.527568,410.859079 436.634266,550.33878 608.230816,550.33878 C779.829905,550.33878 918.936602,410.859022 918.936602,238.799568 C918.936602,142.91536 875.736464,57.1485286 807.787241,-1.53477231e-12 L939.438077,-1.53477231e-12 C987.128404,66.0989273 1015.73661,146.547078 1017.02803,232.529905 C1018.44163,326.642549 987.969257,413.387193 936.031278,483.176384 C924.475839,498.703216 925.638143,520.228196 938.865391,534.35001 L946.169198,542.147785 C958.781718,555.613305 978.644281,558.125567 994.966393,549.557661 C1026.09337,533.218229 1061.46248,523.932081 1099.05262,523.98838 L1099.09918,523.988375 C1114.54926,523.988375 1129.63547,525.550481 1144.20927,528.525771 C1154.94617,530.699804 1165.42365,533.66656 1175.57564,537.361124 C1220.18121,553.531584 1258.22829,583.44418 1284.63164,622 L1284.63164,622 L1009.18881,622 C1034.54485,603.969563 1065.48871,593.343919 1098.85884,593.293134 C1098.81012,593.293089 1098.7614,593.293067 1098.71267,593.293067 C1065.25146,593.293067 1034.22014,603.926355 1008.80332,622 L904.131546,622 C903.386366,613.372001 899.893701,605.056162 893.655486,598.39614 L883.22497,587.260212 C869.920651,573.055914 848.445584,570.655752 832.213465,581.371389 C807.594152,597.624173 781.14074,611.304 753.222719,622 L463.238232,622 C425.35351,607.478356 390.17331,587.452163 358.625302,562.938148 C342.931992,550.743914 320.83943,551.616889 306.475491,565.360059 L276.42632,594.110858 C268.69917,601.504187 264.058526,611.632965 263.772439,622 L176.738073,622 C164.272835,611.964484 148.453591,605.953983 131.260501,605.953983 C131.203303,605.953983 131.14612,605.95405 131.088952,605.954183 C148.200051,606.004051 163.939816,612.006246 176.353124,622 L0.580648447,622 C18.0674335,581.633701 54.218198,550.536615 97.7654874,540.476566 C109.142268,537.848423 120.334575,536.622622 131.223662,536.649411 L131.260501,536.649407 C150.726439,536.649407 169.276719,540.580221 186.164903,547.693407 C199.729176,551.364283 214.480196,546.979338 224.807704,537.097925 L256.305777,506.9605 C270.076218,493.785125 272.521974,472.78814 262.360285,456.65071 C222.616702,393.534701 199.386524,318.966244 199.386524,238.799569 C199.386524,149.634632 227.847661,67.2097196 276.108793,-1.53477231e-12 Z M745.786155,-5.92795186e-06 L779.863407,-5.92795186e-06 C854.346155,53.3570766 902.878049,140.625553 902.878049,239.227632 C902.878049,401.650107 771.189706,533.319537 608.743902,533.319537 C446.298099,533.319537 314.609756,401.650107 314.609756,239.227632 C314.609756,140.625553 363.14165,53.3570766 437.624398,-5.92795186e-06 L471.70165,-5.92795186e-06 C388.859299,47.5452444 333.060976,136.871176 333.060976,239.227632 C333.060976,391.461243 456.488426,514.870968 608.743902,514.870968 C760.999379,514.870968 884.426829,391.461243 884.426829,239.227632 C884.426829,136.871176 828.628506,47.5452444 745.786145,-5.92795186e-06 L745.786155,-5.92795186e-06 Z" id="Shape"></path>
            </g>
        </g>
    </g>
</svg>