<svg xmlns="http://www.w3.org/2000/svg" width="126" height="56" viewBox="0 0 126 56">
    <g fill="none" fill-rule="evenodd">
        <path fill="#E6854A" fill-rule="nonzero" d="M100.75 24.234c-4.673 0-8.474 3.826-8.474 8.528 0 4.703 3.801 8.528 8.473 8.528 4.673 0 8.474-3.825 8.474-8.528 0-4.702-3.801-8.528-8.474-8.528zm0-1.176c5.325 0 9.641 4.345 9.641 9.704 0 5.36-4.316 9.705-9.642 9.705-5.325 0-9.642-4.345-9.642-9.705s4.317-9.704 9.642-9.704zm16.435 18.724c2.923.474 5.284 2.833 5.761 5.773.784 4.831-3.31 8.947-8.111 8.149-2.907-.483-5.24-2.841-5.719-5.767a7.093 7.093 0 0 1 .7-4.455 1.274 1.274 0 0 0-.18-1.465l-.324-.349a1.236 1.236 0 0 0-1.59-.184 12.596 12.596 0 0 1-6.985 2.109c-2.934 0-5.63-1.007-7.782-2.686a1.239 1.239 0 0 0-1.626.076l-.937.9c-.337.323-.485.813-.339 1.257.23.696.294 1.467.14 2.269-.336 1.759-1.746 3.176-3.496 3.501-3.1.576-5.763-2.104-5.189-5.225.313-1.701 1.638-3.092 3.313-3.48a4.4 4.4 0 0 1 2.636.185c.454.18.972.047 1.325-.292l.982-.943c.43-.412.506-1.07.19-1.574a12.785 12.785 0 0 1-1.964-6.819c0-3.954 1.781-7.485 4.577-9.837.48-.405.598-1.099.263-1.632l-.047-.077c-.289-.46-.835-.662-1.364-.545a6.328 6.328 0 0 1-1.374.152c-3.834 0-6.893-3.342-6.46-7.29.331-3.003 2.765-5.439 5.751-5.757a6.458 6.458 0 0 1 5.72 2.347c.341.418.894.594 1.4.407l5.286-1.964c.503-.186.83-.675.81-1.214a5.85 5.85 0 0 1-.003-.212c0-3.943 3.176-7.14 7.094-7.14 1.968 0 3.749.808 5.034 2.111l-1.27 1.229a5.31 5.31 0 0 0-4.67-1.492c-2.212.367-3.994 2.165-4.354 4.391-.595 3.683 2.538 6.818 6.202 6.187 2.248-.387 4.031-2.255 4.34-4.53.06-.445.066-.882.023-1.304l1.54-1.3c.374 1.404.377 2.96-.342 4.614-1.04 2.393-3.285 4.12-5.87 4.346a7.068 7.068 0 0 1-6.374-2.918c-.333-.461-.913-.665-1.445-.468l-5.108 1.897a1.239 1.239 0 0 0-.811 1.217 6.526 6.526 0 0 1-1.578 4.573c-.364.423-.385 1.046-.089 1.52l.075.118c.311.498.923.708 1.472.507 1.646-.6 3.445-.876 5.33-.726 6.49.517 11.638 6.042 11.736 12.594a12.797 12.797 0 0 1-2.526 7.845c-.36.486-.324 1.16.089 1.601l.227.244c.394.422 1.013.5 1.522.232a6.954 6.954 0 0 1 4.39-.706zM85.853 48.82a2.278 2.278 0 0 0 2.269-2.283 2.278 2.278 0 0 0-2.269-2.284 2.278 2.278 0 0 0-2.268 2.284 2.278 2.278 0 0 0 2.268 2.283zm4.192-30.086c2.44 0 4.425-1.998 4.425-4.454 0-2.456-1.985-4.454-4.425-4.454-2.44 0-4.425 1.998-4.425 4.454 0 2.456 1.985 4.454 4.425 4.454zm10.692 23.779c5.35 0 9.688-4.366 9.688-9.75 0-5.386-4.337-9.751-9.688-9.751-5.35 0-9.687 4.365-9.687 9.75s4.337 9.75 9.687 9.75zm15.294 11.122c2.678 0 4.857-2.194 4.857-4.89 0-2.695-2.179-4.888-4.857-4.888-2.679 0-4.858 2.193-4.858 4.889 0 2.695 2.18 4.889 4.858 4.889zM92.23 13.9s.29 1.95-.7 3.709a3.576 3.576 0 0 1-1.474.321 3.576 3.576 0 0 1-1.474-.321c-.99-1.759-.7-3.709-.7-3.709.612-.308 1.36-.415 1.8-.454a1.235 1.235 0 0 1 .374-2.413c.68 0 1.23.554 1.23 1.238 0 .553-.36 1.015-.856 1.175.44.039 1.188.146 1.8.454zm26.265 34.26s.33 2.212-.794 4.206a4.056 4.056 0 0 1-1.671.365c-.596 0-1.16-.134-1.671-.365-1.124-1.994-.795-4.205-.795-4.205.694-.35 1.543-.472 2.042-.516a1.4 1.4 0 0 1-.972-1.332 1.4 1.4 0 0 1 1.396-1.404 1.4 1.4 0 0 1 1.396 1.404 1.4 1.4 0 0 1-.973 1.332c.5.044 1.348.167 2.042.516zM109.91 9.968l-3.759-3.659 2.352-.5 1.572 1.71 5.842-5.655h3.598l-9.605 8.104zm-22.575 36.57c0 .816-.66 1.48-1.47 1.48-.811 0-1.47-.664-1.47-1.48s.659-1.48 1.47-1.48c.81 0 1.47.664 1.47 1.48zM29.827 18.393c-1.912 0-3.462-1.56-3.462-3.484 0-1.925 1.55-3.485 3.462-3.485 1.912 0 3.462 1.56 3.462 3.485 0 1.924-1.55 3.484-3.462 3.484z"/>
        <path fill="#004467" d="M84.885 23.193c.795 1.897 1.193 3.943 1.193 6.136s-.398 4.246-1.193 6.158a14.442 14.442 0 0 1-3.38 4.958c-1.457 1.393-3.195 2.49-5.212 3.29-2.018.8-4.234 1.2-6.649 1.2H58.91V13.812h10.735c2.415 0 4.631.393 6.649 1.179 2.017.785 3.755 1.874 5.213 3.268a14.499 14.499 0 0 1 3.38 4.935zM81.55 34.264c.604-1.482.906-3.097.906-4.846 0-1.72-.302-3.335-.906-4.847a11.64 11.64 0 0 0-2.562-3.935c-1.105-1.111-2.452-1.986-4.043-2.623-1.59-.637-3.357-.956-5.3-.956h-7.246V41.69h7.245c1.944 0 3.711-.312 5.301-.934 1.59-.622 2.938-1.49 4.043-2.6a11.748 11.748 0 0 0 2.562-3.892zM13.765 13.712c5.992 0 10.894 4.933 10.894 10.964 0 6.031-4.902 10.965-10.894 10.965H6.923v9.284H0V13.71h13.765zm-.135 15.67c2.561 0 4.675-2.128 4.675-4.706 0-2.577-2.114-4.704-4.675-4.704H6.923v9.41h6.707zm19.659 15.543h-6.924v-23.65h6.924v23.65zm1.713 0v-23.65h6.924v3.468c1.438-2.416 4.035-3.69 7.022-3.69 4.52 0 8.247 3.37 8.247 7.917v15.955h-6.924v-13.82c0-2.31-1.878-4.198-4.173-4.198s-4.172 1.889-4.172 4.199v13.819h-6.923zm65.747-24.993c7.04 0 12.748 5.744 12.748 12.83s-5.707 12.83-12.748 12.83c-7.04 0-12.747-5.744-12.747-12.83s5.707-12.83 12.747-12.83zm0 22.58c5.35 0 9.688-4.365 9.688-9.75s-4.337-9.75-9.688-9.75c-5.35 0-9.687 4.365-9.687 9.75s4.337 9.75 9.687 9.75z"/>
        <g fill="#004467">
            <path d="M120.784 4.506H120V4h2.14v.506h-.781v2.193h-.575zM124.838 4.81l-.756 1.89h-.25l-.755-1.89V6.7h-.57V4h.8l.65 1.63.652-1.63h.804v2.7h-.575z"/>
        </g>
        <path fill="#004E7C" fill-rule="nonzero" d="M100.75 45.654c-7.064 0-12.81-5.783-12.81-12.892 0-7.109 5.746-12.892 12.81-12.892 7.063 0 12.808 5.783 12.808 12.892 0 7.109-5.745 12.892-12.808 12.892zm0-22.58c-5.308 0-9.627 4.346-9.627 9.688 0 5.343 4.319 9.69 9.627 9.69 5.307 0 9.626-4.347 9.626-9.69 0-5.342-4.319-9.688-9.626-9.688z"/>
    </g>
</svg>
