<svg xmlns="http://www.w3.org/2000/svg" width="132" height="60" viewBox="0 0 132 60">
    <g fill="none" fill-rule="evenodd">
        <g>
            <path fill="#BAD141" fill-rule="nonzero" d="M108.062 25.965c5.011 0 9.088 4.1 9.088 9.137 0 5.039-4.077 9.138-9.088 9.138-5.011 0-9.088-4.1-9.088-9.138s4.077-9.137 9.088-9.137zm0-1.26c-5.712 0-10.342 4.655-10.342 10.397 0 5.743 4.63 10.398 10.342 10.398 5.712 0 10.342-4.655 10.342-10.398 0-5.742-4.63-10.397-10.342-10.397z"/>
            <path fill="#BAD141" fill-rule="nonzero" d="M125.69 44.766a7.466 7.466 0 0 0-4.707.757c-.546.287-1.21.203-1.632-.248l-.245-.262a1.342 1.342 0 0 1-.094-1.716 13.701 13.701 0 0 0 2.708-8.405c-.105-7.02-5.625-12.94-12.587-13.493a13.493 13.493 0 0 0-5.717.778 1.325 1.325 0 0 1-1.579-.543l-.08-.128c-.318-.507-.295-1.175.095-1.628a6.988 6.988 0 0 0 1.693-4.9 1.327 1.327 0 0 1 .87-1.303l5.479-2.033c.57-.211 1.193.008 1.55.501a7.584 7.584 0 0 0 6.836 3.127c2.773-.241 5.18-2.093 6.296-4.656.771-1.772.767-3.44.367-4.944l-1.652 1.392c.046.453.04.92-.026 1.399-.33 2.437-2.242 4.438-4.654 4.853-3.93.675-7.29-2.683-6.652-6.63.386-2.385 2.297-4.311 4.67-4.704a5.7 5.7 0 0 1 5.01 1.598L123 2.262A7.564 7.564 0 0 0 117.6 0c-4.202 0-7.608 3.425-7.608 7.65 0 .076.001.152.004.227a1.335 1.335 0 0 1-.87 1.301l-5.67 2.104c-.541.2-1.135.011-1.502-.436A6.93 6.93 0 0 0 95.82 8.33c-3.202.342-5.813 2.951-6.167 6.17-.466 4.229 2.815 7.809 6.928 7.809.506 0 .999-.057 1.474-.163.566-.125 1.152.091 1.462.585l.051.082a1.348 1.348 0 0 1-.283 1.748 13.733 13.733 0 0 0-4.909 10.54c0 2.689.777 5.19 2.106 7.306.34.54.258 1.245-.202 1.687l-1.054 1.01c-.378.363-.934.505-1.421.313a4.724 4.724 0 0 0-2.827-.2c-1.798.417-3.218 1.907-3.554 3.73-.616 3.344 2.24 6.216 5.565 5.599 1.877-.349 3.39-1.867 3.75-3.752a4.815 4.815 0 0 0-.15-2.43c-.157-.476.003-1.002.363-1.348l1.005-.964a1.33 1.33 0 0 1 1.744-.081 13.53 13.53 0 0 0 8.348 2.877c2.769 0 5.34-.835 7.49-2.259a1.326 1.326 0 0 1 1.707.197l.348.374c.398.425.462 1.053.192 1.57a7.592 7.592 0 0 0-.75 4.773c.513 3.135 3.016 5.661 6.133 6.179 5.15.855 9.542-3.555 8.7-8.73-.511-3.152-3.044-5.68-6.178-6.187zm-33.605 7.54a2.443 2.443 0 0 1-2.433-2.445 2.443 2.443 0 0 1 2.433-2.447 2.443 2.443 0 0 1 2.433 2.447 2.443 2.443 0 0 1-2.433 2.446zm4.496-32.234c-2.618 0-4.747-2.14-4.747-4.772 0-2.631 2.13-4.772 4.747-4.772s4.746 2.14 4.746 4.772c0 2.631-2.13 4.772-4.746 4.772zm11.468 25.477c-5.739 0-10.39-4.677-10.39-10.447s4.651-10.446 10.39-10.446c5.739 0 10.39 4.677 10.39 10.446 0 5.77-4.651 10.447-10.39 10.447zm16.403 11.917c-2.872 0-5.21-2.35-5.21-5.238 0-2.889 2.338-5.238 5.21-5.238 2.873 0 5.21 2.35 5.21 5.238 0 2.888-2.337 5.238-5.21 5.238z"/>
            <path fill="#00467C" d="M91.046 24.85a15.534 15.534 0 0 0-3.624-5.288c-1.564-1.493-3.428-2.66-5.592-3.502-2.164-.842-4.541-1.262-7.131-1.262H63.185v33.347h11.514c2.59 0 4.967-.429 7.131-1.286 2.164-.858 4.028-2.032 5.592-3.525a15.472 15.472 0 0 0 3.624-5.312c.853-2.048 1.28-4.248 1.28-6.598 0-2.35-.427-4.542-1.28-6.574zM87.47 36.712a12.586 12.586 0 0 1-2.749 4.168c-1.184 1.191-2.63 2.12-4.335 2.787-1.706.667-3.601 1-5.686 1h-7.771V18.276h7.771c2.085 0 3.98.342 5.686 1.025 1.706.683 3.151 1.62 4.335 2.81a12.47 12.47 0 0 1 2.749 4.217c.647 1.62.971 3.35.971 5.192 0 1.874-.324 3.605-.971 5.193zM14.764 14.691H0v33.443h7.426v-9.947h7.338c6.427 0 11.685-5.286 11.685-11.748S21.19 14.69 14.764 14.69zm-.145 16.789H7.426V21.398h7.193c2.747 0 5.014 2.28 5.014 5.04 0 2.762-2.267 5.042-5.014 5.042zM28.279 48.134h7.426V22.795h-7.426zM37.543 48.134h7.426V33.328c0-2.475 2.014-4.5 4.475-4.5 2.462 0 4.475 2.025 4.475 4.5v14.806h7.428V31.04c0-4.873-4-8.483-8.846-8.483-3.204 0-5.99 1.365-7.532 3.953v-3.715h-7.426v25.339z"/>
            <path fill="#BAD141" d="M98.925 14.893c-.656-.33-1.459-.445-1.931-.487a1.324 1.324 0 0 0-.4-2.586 1.324 1.324 0 0 0-.401 2.586c-.472.042-1.275.157-1.931.487 0 0-.312 2.09.75 3.974a3.84 3.84 0 0 0 1.581.344 3.84 3.84 0 0 0 1.581-.345c1.063-1.884.751-3.973.751-3.973zM127.096 51.6c-.744-.373-1.654-.504-2.19-.551a1.501 1.501 0 0 0-.454-2.932 1.501 1.501 0 0 0-.454 2.932c-.535.047-1.446.178-2.19.552 0 0-.353 2.369.852 4.506.549.247 1.153.39 1.792.39.64 0 1.244-.144 1.793-.39 1.205-2.137.851-4.506.851-4.506z"/>
            <path fill="#BAD141" fill-rule="nonzero" d="M96.593 10.528c2.618 0 4.747 2.14 4.747 4.772 0 2.631-2.13 4.772-4.747 4.772s-4.746-2.14-4.746-4.772c0-2.631 2.13-4.772 4.746-4.772zm0-2.238c-3.85 0-6.972 3.139-6.972 7.01s3.122 7.01 6.972 7.01c3.851 0 6.973-3.139 6.973-7.01s-3.122-7.01-6.973-7.01zM92.098 47.414a2.443 2.443 0 0 1 2.433 2.447 2.443 2.443 0 0 1-2.433 2.446 2.443 2.443 0 0 1-2.434-2.446 2.443 2.443 0 0 1 2.434-2.447zm0-2.324c-2.62 0-4.745 2.136-4.745 4.77 0 2.635 2.124 4.77 4.745 4.77 2.62 0 4.744-2.135 4.744-4.77 0-2.634-2.124-4.77-4.744-4.77zM124.465 46.99c2.873 0 5.21 2.35 5.21 5.238 0 2.888-2.337 5.238-5.21 5.238-2.873 0-5.21-2.35-5.21-5.238 0-2.889 2.337-5.238 5.21-5.238zm0-2.324c-4.154 0-7.521 3.385-7.521 7.562 0 4.176 3.367 7.562 7.521 7.562s7.521-3.386 7.521-7.562c0-4.177-3.367-7.562-7.52-7.562z"/>
            <path fill="#BAD141" d="M123.304 7.062c.02.194.03.39.03.588 0 3.176-2.561 5.75-5.72 5.75-3.16 0-5.72-2.574-5.72-5.75s2.56-5.75 5.72-5.75c1.576 0 3.003.64 4.038 1.678l1.361-1.316a7.564 7.564 0 0 0-5.4-2.262c-4.202 0-7.608 3.425-7.608 7.65 0 4.225 3.406 7.65 7.609 7.65 4.202 0 7.609-3.425 7.609-7.65 0-.686-.099-1.348-.267-1.98l-1.652 1.392z"/>
            <path fill="#BAD141" d="M117.888 10.679l-4.031-3.92 2.522-.536 1.687 1.832 6.265-6.06h3.86zM93.675 49.861c0-.874-.708-1.586-1.577-1.586-.87 0-1.577.712-1.577 1.586 0 .874.707 1.585 1.577 1.585s1.577-.71 1.577-1.585z"/>
            <path fill="#004E7C" fill-rule="nonzero" d="M108.062 48.915c-7.576 0-13.739-6.196-13.739-13.812 0-7.617 6.163-13.813 13.74-13.813 7.575 0 13.737 6.196 13.737 13.813 0 7.616-6.162 13.812-13.738 13.812zm0-24.193c-5.693 0-10.325 4.656-10.325 10.38 0 5.725 4.632 10.382 10.325 10.382s10.325-4.657 10.325-10.381c0-5.725-4.632-10.381-10.325-10.381z"/>
            <path fill="#00467C" fill-rule="nonzero" d="M108.062 21.356c-7.551 0-13.673 6.154-13.673 13.746 0 7.593 6.122 13.747 13.673 13.747s13.673-6.154 13.673-13.747c0-7.592-6.122-13.746-13.673-13.746zm0 24.193c-5.739 0-10.391-4.677-10.391-10.447s4.652-10.446 10.39-10.446c5.74 0 10.392 4.677 10.392 10.446 0 5.77-4.652 10.447-10.391 10.447z"/>
            <ellipse cx="31.992" cy="15.974" fill="#BAD141" rx="3.713" ry="3.733"/>
        </g>
        <g fill="#00467C">
            <path d="M128.3 7.301V5.735h-.56v-.362h1.53v.362h-.559V7.3h-.41zM131.2 7.301v-1.35l-.541 1.35h-.179l-.54-1.35v1.35h-.408V5.373h.572l.465 1.165.466-1.165h.575v1.928h-.41z"/>
        </g>
    </g>
</svg>
