<?xml version="1.0" encoding="UTF-8"?>
<svg width="109px" height="14px" viewBox="0 0 109 14" version="1.1" xmlns="http://www.w3.org/2000/svg" xmlns:xlink="http://www.w3.org/1999/xlink">
    <!-- Generator: Sketch 55.2 (78181) - https://sketchapp.com -->
    <title>Pinner Tigline</title>
    <desc>Created with Sketch.</desc>
    <g id="9.-Beta-Tag-+-LOGO" stroke="none" stroke-width="1" fill="none" fill-rule="evenodd">
        <g id="Artboard" transform="translate(-163.000000, -532.000000)" fill="#004467" fill-rule="nonzero">
            <path d="M163.252,545 L164.968,536.756 L168.388,536.756 C169.912,536.756 170.968,537.692 170.968,539.036 C170.968,540.74 169.3,542.132 167.296,542.132 L165.076,542.132 L164.464,545 L163.252,545 Z M165.304,541.004 L167.464,541.004 C168.7,541.004 169.756,540.116 169.756,539.084 C169.756,538.376 169.096,537.884 168.136,537.884 L165.952,537.884 L165.304,541.004 Z M173.116,537.764 C172.732,537.764 172.468,537.464 172.468,537.104 C172.468,536.708 172.828,536.336 173.248,536.336 C173.632,536.336 173.884,536.624 173.884,536.984 C173.884,537.392 173.512,537.764 173.116,537.764 Z M170.992,545 L172.288,538.796 L173.476,538.796 L172.18,545 L170.992,545 Z M178.288,538.652 C179.488,538.652 180.232,539.42 180.232,540.524 C180.232,540.98 180.136,541.28 179.368,545 L178.204,545 C178.96,541.352 179.032,541.112 179.032,540.776 C179.032,540.092 178.636,539.684 177.976,539.684 C177.028,539.684 176.116,540.332 175.9,541.1 L175.084,545 L173.896,545 L175.192,538.796 L176.38,538.796 L176.212,539.624 C176.692,539.048 177.496,538.652 178.288,538.652 Z M186.628,537.764 C186.244,537.764 185.98,537.464 185.98,537.104 C185.98,536.708 186.34,536.336 186.76,536.336 C187.144,536.336 187.396,536.624 187.396,536.984 C187.396,537.392 187.024,537.764 186.628,537.764 Z M184.504,545 L185.8,538.796 L186.988,538.796 L185.692,545 L184.504,545 Z M191.584,539.804 L190.132,539.804 C189.328,543.632 189.352,543.5 189.352,543.62 C189.352,543.932 189.532,544.112 189.784,544.112 C190.084,544.112 190.384,543.98 190.516,543.848 L190.84,544.736 C190.444,545 189.988,545.144 189.544,545.144 C188.716,545.144 188.176,544.592 188.176,543.8 C188.176,543.5 188.236,543.284 188.968,539.804 L188.032,539.804 L188.236,538.796 L189.172,538.796 L189.532,537.092 L190.696,537.092 L190.336,538.796 L191.8,538.796 L191.584,539.804 Z M192.784,545.144 C192.352,545.144 192.064,544.832 192.064,544.436 C192.064,543.908 192.508,543.548 192.952,543.548 C193.36,543.548 193.648,543.872 193.648,544.256 C193.648,544.724 193.228,545.144 192.784,545.144 Z M198.772,545 L200.488,536.756 L203.296,536.756 C205.54,536.756 207.112,538.124 207.112,540.068 C207.112,542.744 204.616,545 201.664,545 L198.772,545 Z M200.224,543.896 L201.88,543.896 C204.052,543.896 205.876,542.168 205.876,540.128 C205.876,538.808 204.772,537.86 203.224,537.86 L201.484,537.86 L200.224,543.896 Z M210.652,545.144 C209.188,545.144 208,543.932 208,542.468 C208,540.392 209.848,538.652 211.948,538.652 C213.424,538.652 214.636,539.864 214.636,541.328 C214.636,543.404 212.776,545.144 210.652,545.144 Z M210.808,544.112 C212.236,544.112 213.46,542.852 213.46,541.388 C213.46,540.452 212.704,539.684 211.792,539.684 C210.388,539.684 209.176,540.956 209.176,542.42 C209.176,543.344 209.92,544.112 210.808,544.112 Z M220.876,537.764 C220.492,537.764 220.228,537.464 220.228,537.104 C220.228,536.708 220.588,536.336 221.008,536.336 C221.392,536.336 221.644,536.624 221.644,536.984 C221.644,537.392 221.272,537.764 220.876,537.764 Z M218.752,545 L220.048,538.796 L221.236,538.796 L219.94,545 L218.752,545 Z M225.832,539.804 L224.38,539.804 C223.576,543.632 223.6,543.5 223.6,543.62 C223.6,543.932 223.78,544.112 224.032,544.112 C224.332,544.112 224.632,543.98 224.764,543.848 L225.088,544.736 C224.692,545 224.236,545.144 223.792,545.144 C222.964,545.144 222.424,544.592 222.424,543.8 C222.424,543.5 222.484,543.284 223.216,539.804 L222.28,539.804 L222.484,538.796 L223.42,538.796 L223.78,537.092 L224.944,537.092 L224.584,538.796 L226.048,538.796 L225.832,539.804 Z M227.032,545.144 C226.6,545.144 226.312,544.832 226.312,544.436 C226.312,543.908 226.756,543.548 227.2,543.548 C227.608,543.548 227.896,543.872 227.896,544.256 C227.896,544.724 227.476,545.144 227.032,545.144 Z M233.02,545 L234.736,536.756 L237.544,536.756 C239.788,536.756 241.36,538.124 241.36,540.068 C241.36,542.744 238.864,545 235.912,545 L233.02,545 Z M234.472,543.896 L236.128,543.896 C238.3,543.896 240.124,542.168 240.124,540.128 C240.124,538.808 239.02,537.86 237.472,537.86 L235.732,537.86 L234.472,543.896 Z M244.9,545.144 C243.436,545.144 242.248,543.932 242.248,542.468 C242.248,540.392 244.096,538.652 246.196,538.652 C247.672,538.652 248.884,539.864 248.884,541.328 C248.884,543.404 247.024,545.144 244.9,545.144 Z M245.056,544.112 C246.484,544.112 247.708,542.852 247.708,541.388 C247.708,540.452 246.952,539.684 246.04,539.684 C244.636,539.684 243.424,540.956 243.424,542.42 C243.424,543.344 244.168,544.112 245.056,544.112 Z M253.972,538.652 C255.172,538.652 255.916,539.42 255.916,540.524 C255.916,540.98 255.82,541.28 255.052,545 L253.888,545 C254.644,541.352 254.716,541.112 254.716,540.776 C254.716,540.092 254.32,539.684 253.66,539.684 C252.712,539.684 251.8,540.332 251.584,541.1 L250.768,545 L249.58,545 L250.876,538.796 L252.064,538.796 L251.896,539.624 C252.376,539.048 253.18,538.652 253.972,538.652 Z M260.128,542.312 L258.16,542.312 L258.16,542.492 C258.16,543.488 258.736,544.088 259.72,544.088 C260.428,544.088 261.22,543.788 261.676,543.38 L262.324,544.22 C261.664,544.796 260.5,545.144 259.6,545.144 C258.076,545.144 257.02,544.1 257.02,542.552 C257.02,540.452 258.844,538.652 260.836,538.652 C262.06,538.652 263.092,539.312 263.092,540.356 C263.092,541.544 261.988,542.336 260.128,542.312 Z M260.764,539.696 C259.648,539.696 258.772,540.416 258.388,541.364 L260.308,541.364 C261.34,541.364 261.928,541.04 261.928,540.5 C261.928,540.008 261.436,539.696 260.764,539.696 Z M264.352,545.144 C263.92,545.144 263.632,544.832 263.632,544.436 C263.632,543.908 264.076,543.548 264.52,543.548 C264.928,543.548 265.216,543.872 265.216,544.256 C265.216,544.724 264.796,545.144 264.352,545.144 Z M266.784084,532.505786 L266,532.505786 L266,532 L268.139124,532 L268.139124,532.505786 L267.358969,532.505786 L267.358969,534.699122 L266.784084,534.699122 L266.784084,532.505786 Z M270.838078,532.809259 L270.082141,534.699122 L269.832687,534.699122 L269.07675,532.809259 L269.07675,534.699122 L268.506117,534.699122 L268.506117,532 L269.306238,532 L269.957403,533.630873 L270.608914,532 L271.412963,532 L271.412963,534.699122 L270.838078,534.699122 L270.838078,532.809259 Z" id="Pinner-Tigline"></path>
        </g>
    </g>
</svg>