<?xml version="1.0" encoding="UTF-8"?>
<svg width="1071px" height="623px" viewBox="0 0 1071 623" version="1.1" xmlns="http://www.w3.org/2000/svg" xmlns:xlink="http://www.w3.org/1999/xlink">
    <!-- Generator: Sketch 55.2 (78181) - https://sketchapp.com -->
    <title>Combined Shape@2x</title>
    <desc>Created with Sketch.</desc>
    <g id="2.-Login-and-Registration" stroke="none" stroke-width="1" fill="none" fill-rule="evenodd">
        <g id="2.-Registration--_-03" transform="translate(-182.000000, -115.000000)" fill="#F3F6F9" fill-rule="nonzero">
            <path d="M1172.4406,738 L1011.60982,738 C1081.20025,664.845198 1123.92827,565.777959 1123.92827,456.70465 C1123.92827,313.609877 1050.38832,187.736086 939.132294,115 L1128.11323,115 C1204.02538,206.474694 1250.40665,322.980679 1252.29212,448.500992 C1253.89034,554.893862 1224.34176,654.090333 1172.4406,738 Z M262.379027,738.000002 C211.801871,656.218733 182.3148,560.014328 182.3148,456.704652 C182.3148,326.753757 228.521764,207.744148 305.273514,115 L495.538663,115 C384.283508,187.736071 310.743567,313.60984 310.743567,456.70465 C310.743567,565.777981 353.471577,664.845209 423.061616,738 L262.378972,738 Z M981.259928,738 L944.514188,738 C1026.3985,671.883055 1078.76829,570.68816 1078.76829,457.26476 C1078.76829,297.931256 975.423232,162.729137 832.090843,115 L894.106574,115 C1018.11403,178.900246 1102.91382,308.181998 1102.91382,457.26476 C1102.91382,567.990661 1056.13617,667.793839 981.259928,738 Z M454.751454,738 C379.875209,667.793839 333.097561,567.990661 333.097561,457.26476 C333.097561,308.181998 417.897354,178.900246 541.904857,114.999975 L603.920539,115 C460.58815,162.729137 357.243089,297.931256 357.243089,457.26476 C357.243089,570.68816 409.61288,671.883055 491.497195,738 L454.751454,738 Z" id="Combined-Shape"></path>
        </g>
    </g>
</svg>