<svg xmlns="http://www.w3.org/2000/svg" width="354" height="473" viewBox="0 0 354 473">
    <g fill="none" fill-rule="evenodd">
        <path fill="#00467C" fill-rule="nonzero" d="M240.02 0h.018c16.741 0 31.882 6.847 42.812 17.893l-10.792 10.414a45.792 45.792 0 0 0-.05-.05l-.052.05c-8.18-8.182-19.454-13.251-31.91-13.28h-.008c-25.047 0-45.352 20.368-45.352 45.493 0 25.115 20.287 45.476 45.32 45.494a47.319 47.319 0 0 0 7.771-.66 44.938 44.938 0 0 0 13.297-4.52c12.628-6.695 21.795-19.31 23.777-33.901.513-3.781.565-7.482.203-11.062l13.1-11.016.018.07.083-.07c1.336 5.004 2.115 10.238 2.115 15.665 0 33.424-27.012 60.52-60.332 60.52h-.138c-20.062-.012-37.825-9.85-48.784-24.972-2.831-3.907-7.77-5.636-12.288-3.965l-43.446 16.08c-3.833 1.419-6.513 4.898-6.87 8.892.093 1.31.14 2.632.14 3.965 0 14.413-5.482 27.542-14.467 37.403-2.223 3.498-2.128 8.105.128 11.695l.633 1.006a10.517 10.517 0 0 0 12.52 4.296 107.205 107.205 0 0 1 45.332-6.152c55.197 4.38 98.969 51.212 99.803 106.747.375 24.967-7.706 47.979-21.478 66.492-3.064 4.12-2.756 9.83.751 13.576l1.937 2.069c3.345 3.572 8.612 4.238 12.94 1.965a58.974 58.974 0 0 1 27.6-6.783h.012c4.097 0 8.098.415 11.962 1.204a57.923 57.923 0 0 1 8.318 2.344C337.596 365.226 354 387.28 354 413.177c0 33.04-26.7 59.823-59.637 59.823h-.09c-3.338 0-6.739-.274-10.183-.844-24.717-4.096-44.561-24.082-48.634-48.879-2.257-13.736.196-26.753 5.953-37.766 2.138-4.09 1.63-9.051-1.523-12.418l-2.766-2.954c-3.528-3.768-9.222-4.405-13.526-1.562-17.06 11.267-37.44 17.873-59.393 17.873-24.957 0-47.88-8.53-66.188-22.763-4.161-3.235-10.02-3.003-13.828.642l-7.969 7.627c-2.54 2.433-3.823 5.982-3.205 9.383a37.766 37.766 0 0 1 2.333 13.112c0 14.17-7.786 26.517-19.3 32.969a36.342 36.342 0 0 1-11.244 4.103 37.708 37.708 0 0 1-7.137.667c-23.151.025-41.432-20.927-36.996-44.956 2.663-14.422 13.925-26.213 28.174-29.506a38.92 38.92 0 0 1 8.872-1.015h.01c5.162 0 10.08 1.043 14.559 2.93 3.597.974 7.508-.19 10.247-2.811l8.352-7.995c3.652-3.495 4.3-9.065 1.606-13.346-10.54-16.744-16.7-36.526-16.7-57.793 0-33.516 15.154-63.443 38.925-83.384 4.088-3.43 5.086-9.31 2.244-13.833l-.408-.649c-2.24-3.565-6.312-5.304-10.424-4.82a55.273 55.273 0 0 1-12.924 1.483c-32.578-.04-58.554-28.345-54.865-61.782 2.809-25.458 23.512-46.103 48.903-48.806a56.952 56.952 0 0 1 6.131-.322c17.741 0 33.53 8.383 43.646 21.416 2.91 2.66 6.997 3.644 10.768 2.249l44.96-16.64a10.564 10.564 0 0 0 6.894-10.294 49.428 49.428 0 0 1-.033-1.796c0-33.424 27.012-60.52 60.332-60.52h.084zm54.23 454.615h.01c22.78 0 41.31-18.59 41.31-41.438 0-22.836-18.51-41.416-41.27-41.437-22.749.034-41.245 18.61-41.245 41.437 0 22.81 18.469 41.376 41.195 41.438zM37.678 375.098c-10.618.025-19.248 8.697-19.248 19.353 0 10.65 8.62 19.319 19.23 19.353 10.62-.021 19.254-8.695 19.254-19.353 0-10.652-8.624-19.322-19.236-19.353zm35.56-216.307h.03c20.75 0 37.632-16.935 37.632-37.751 0-20.805-16.863-37.732-37.599-37.75-20.72.037-37.565 16.957-37.565 37.75 0 20.772 16.811 37.68 37.502 37.75zm90.963 201.553c45.502 0 82.389-37.001 82.389-82.646 0-45.644-36.887-82.646-82.39-82.646-45.501 0-82.388 37.002-82.388 82.646 0 45.645 36.887 82.647 82.389 82.647zm78.013-275.862L210.25 53.469l20.002-4.235 13.37 14.49L293.3 15.789h30.604l-81.69 68.693z" opacity=".8"/>
        <circle cx="164" cy="278" r="80.3" stroke="#BAD141" stroke-width="5.4"/>
        <path fill="#336B96" d="M191.49 270.416c-7.877-4.016-17.513-5.423-23.18-5.928 6.386-2.087 11.038-8.119 11.038-15.324 0-8.927-7.095-16.164-15.848-16.164-8.752 0-15.849 7.237-15.849 16.164 0 7.205 4.654 13.237 11.04 15.324-5.667.505-15.304 1.912-23.18 5.928 0 0-3.74 25.443 9.017 48.387 5.81 2.651 12.204 4.197 18.97 4.197 6.77 0 13.164-1.548 18.975-4.2 12.756-22.944 9.016-48.384 9.016-48.384zM91.668 116.113c-5.112-2.589-11.367-3.496-15.046-3.82a10.367 10.367 0 0 0 7.166-9.876C83.788 96.664 79.182 92 73.5 92c-5.681 0-10.288 4.664-10.288 10.417 0 4.643 3.021 8.53 7.166 9.875-3.678.325-9.934 1.232-15.046 3.82 0 0-2.428 16.397 5.853 31.183 3.771 1.709 7.921 2.705 12.314 2.705 4.394 0 8.545-.997 12.317-2.707 8.28-14.786 5.852-31.18 5.852-31.18zM315.227 408.217c-5.9-2.959-13.118-3.996-17.363-4.368 4.783-1.537 8.269-5.98 8.269-11.289 0-6.577-5.315-11.908-11.872-11.908-6.556 0-11.871 5.331-11.871 11.908 0 5.308 3.486 9.752 8.27 11.29-4.246.371-11.464 1.408-17.364 4.367 0 0-2.802 18.744 6.754 35.648 4.352 1.953 9.141 3.092 14.21 3.092 5.07 0 9.86-1.14 14.214-3.094 9.554-16.904 6.753-35.646 6.753-35.646z"/>
        <path fill="#C8DA67" fill-rule="nonzero" d="M41.514 393.151c-1.131-.628-2.334-1.106-3.524-1.602-.69-.287-1.351-.622-1.935-1.088-1.148-.921-.928-2.416.417-3.008.381-.167.78-.221 1.185-.245a8.956 8.956 0 0 1 4.452.885c.702.34.934.233 1.173-.503.25-.777.458-1.566.69-2.35.155-.526-.036-.872-.53-1.094a11.28 11.28 0 0 0-2.81-.843c-1.273-.197-1.273-.203-1.279-1.489-.006-1.811-.006-1.811-1.816-1.811-.261 0-.523-.006-.785 0-.845.024-.988.173-1.012 1.028-.012.383 0 .765-.006 1.154-.006 1.136-.012 1.118-1.095 1.513-2.62.957-4.238 2.75-4.411 5.62-.155 2.542 1.167 4.258 3.244 5.508 1.28.77 2.696 1.225 4.054 1.83.53.232 1.035.501 1.476.872 1.303 1.082 1.065 2.882-.482 3.564-.828.365-1.703.454-2.602.34-1.386-.173-2.714-.537-3.964-1.19-.732-.382-.946-.28-1.196.515a63.305 63.305 0 0 0-.596 2.075c-.255.933-.16 1.154.727 1.59 1.13.55 2.339.832 3.571 1.029.964.155.994.197 1.006 1.202.006.454.006.915.012 1.369.006.574.28.909.869.92.667.013 1.34.013 2.006-.005.548-.012.827-.311.827-.867 0-.622.03-1.25.006-1.872-.03-.634.244-.956.851-1.124 1.4-.383 2.59-1.136 3.506-2.26 2.548-3.11 1.578-7.66-2.03-9.663z"/>
    </g>
</svg>
