<?xml version="1.0" encoding="UTF-8"?>
<svg width="58px" height="24px" viewBox="0 0 58 24" version="1.1" xmlns="http://www.w3.org/2000/svg" xmlns:xlink="http://www.w3.org/1999/xlink">
    <!-- Generator: sketchtool 58 (101010) - https://sketch.com -->
    <title>774F62D0-314E-4E76-92B1-8A7BEE8E33CD</title>
    <desc>Created with sketchtool.</desc>
    <g id="8.-Settings" stroke="none" stroke-width="1" fill="none" fill-rule="evenodd">
        <g id="8.-Settings-_-Add-Payment-Method-(Bank-Account-Connected)-_-01-" transform="translate(-691.000000, -308.000000)" fill="#FFFFFF">
            <g id="Stripe-Button" transform="translate(634.000000, 298.000000)">
                <g id="Stripe-Button-Copy" transform="translate(57.000000, 10.000000)">
                    <path d="M39.8105556,5.06275033 C42.63,5.06275033 45.2883333,7.5941255 45.3044444,12.2403204 C45.3044444,17.3190921 42.6783333,19.6261682 39.7944444,19.6261682 C38.4652778,19.6261682 37.6317166,19.105161 37.0548082,18.6968041 L36.9427778,18.6168224 L36.9266667,23.1508678 L32.8988889,24 L32.8988889,5.31909212 L36.4433333,5.31909212 L36.6527778,6.31241656 C37.2166667,5.79973298 38.2316667,5.06275033 39.8105556,5.06275033 Z M14.9672222,1.85847797 L14.9511111,5.33511348 L18.0122222,5.33511348 L18.0122222,8.74766355 L14.9511111,8.74766355 L14.9511111,14.435247 C14.9511111,16.7386611 17.3532844,16.1090019 17.963167,15.8802105 L18.0122222,15.8611482 L18.0122222,19.1134846 C17.4805556,19.4018692 16.5138889,19.6421896 15.1927778,19.6421896 C12.8805892,19.6421896 11.1289312,18.0000956 11.0248934,15.7385072 L11.02,15.5246996 L11.0361111,2.69158879 L14.9672222,1.85847797 Z M5.44555556,5.06275033 C6.78277778,5.06275033 8.10388889,5.27102804 9.44111111,5.79973298 L9.44111111,5.79973298 L9.44111111,9.564753 C8.21666667,8.90787717 6.67,8.53938585 5.44555556,8.53938585 C4.59166667,8.53938585 4.07611111,8.77970628 4.07611111,9.40453939 C4.07611111,11.1989319 10.2144444,10.3497997 10.2305556,15.1241656 C10.2305556,17.9919893 7.92666667,19.6421896 4.57555556,19.6421896 C3.19,19.6421896 1.67555556,19.3698264 0.177222222,18.728972 L0.177222222,18.728972 L0.177222222,14.9158879 C1.53055556,15.6528705 3.23833333,16.1975968 4.57555556,16.1975968 C5.47777778,16.1975968 6.12222222,15.9572764 6.12222222,15.2202937 C6.12222222,13.3137517 4.89297491e-12,14.0186916 4.89297491e-12,9.59679573 C4.89297491e-12,6.76101469 2.175,5.06275033 5.44555556,5.06275033 Z M52.1838889,5.06275033 C56.0022222,5.06275033 58,8.29906542 58,12.400534 C58,12.7465955 57.9739,13.4560214 57.96868,13.7462804 L57.9677778,13.8264352 L50.0894444,13.8264352 C50.2666667,15.7169559 51.6522222,16.2616822 53.215,16.2616822 C54.6873077,16.2616822 55.8713314,15.9750041 56.9064611,15.5024578 L57.1622222,15.3805073 L57.1622222,18.5847797 C56.0666667,19.1935915 54.6166667,19.6261682 52.6994444,19.6261682 C48.7683333,19.6261682 46.0294444,17.1909212 46.0294444,12.3684913 C46.0294444,8.29906542 48.3494444,5.06275033 52.1838889,5.06275033 Z M31.4005556,5.33511397 L31.4005556,19.3538056 L27.3566667,19.3538056 L27.3566667,5.33511397 L31.4005556,5.33511397 Z M26.315765,5.31474535 L26.3738889,5.33511348 L26.3738889,9.0200267 C25.8952546,8.85113485 24.3956626,8.6381008 23.4349094,9.70641643 L23.3127778,9.85313752 L23.3127778,19.3538051 L19.285,19.3538051 L19.285,5.33511348 L22.765,5.33511348 L23.0227778,6.52069426 C23.9405556,4.85005294 25.7294444,5.12102542 26.315765,5.31474535 Z M38.8438889,8.61949266 C37.9961966,8.61949266 37.4367883,8.89251941 37.026274,9.29995934 L36.9266667,9.40453939 L36.9427778,15.3484646 C37.3294444,15.76502 37.8933333,16.1014686 38.8438889,16.1014686 C40.3261111,16.1014686 41.325,14.4993324 41.325,12.35247 C41.325,10.2536716 40.31,8.61949266 38.8438889,8.61949266 Z M52.1677778,8.31508678 C51.1933778,8.31508678 50.1298898,9.00905527 50.0463698,10.6663111 L50.0411111,10.8785047 L54.1977778,10.8785047 C54.1977778,9.06809079 53.1505556,8.31508678 52.1677778,8.31508678 Z M31.4005556,-1.1031176e-12 L31.4005556,3.25233645 L27.3566667,4.11748999 L27.3566667,0.849132176 L31.4005556,-1.1031176e-12 Z" id="Combined-Shape"></path>
                </g>
            </g>
        </g>
    </g>
</svg>