<?xml version="1.0" encoding="UTF-8"?>
<svg width="354px" height="473px" viewBox="0 0 354 473" version="1.1" xmlns="http://www.w3.org/2000/svg" xmlns:xlink="http://www.w3.org/1999/xlink">
    <!-- Generator: Sketch 56 (81588) - https://sketch.com -->
    <title>You</title>
    <desc>Created with Sketch.</desc>
    <g id="5.-Bennefits" stroke="none" stroke-width="1" fill="none" fill-rule="evenodd">
        <g id="You" transform="translate(-543.000000, -310.000000)">
            <g transform="translate(543.000000, 310.000000)">
                <g id="Icon">
                    <path d="M239.899943,121.039937 C219.838414,121.028132 202.074614,111.190317 191.115843,96.0676322 C188.284771,92.1608517 183.345693,90.4315011 178.828449,92.1033389 L135.381521,108.18319 C131.09924,109.768083 128.255992,113.925286 128.485082,118.498235 C128.527241,119.340104 128.549269,120.187344 128.549269,121.040015 C128.549269,134.900951 123.454466,147.546323 115.065516,157.258604 C111.969008,160.843563 111.791561,166.125779 114.313447,170.13834 L114.94577,171.144461 C117.594622,175.359114 122.796505,177.139387 127.465558,175.440304 C141.460603,170.347537 156.766612,168.016182 172.798317,169.288276 C227.994609,173.668011 271.766937,220.499781 272.600692,276.035135 C272.975534,301.001641 264.895219,324.01354 251.122901,342.527442 C248.058762,346.64645 248.366968,352.356667 251.874418,356.102947 L253.811158,358.171566 C257.155602,361.743743 262.422528,362.410204 266.750639,360.137282 C277.64477,354.416171 290.498526,351.954691 304.07963,354.149169 C328.935825,358.165551 349.015336,378.161251 353.074584,403.08608 C359.743523,444.035035 324.922406,478.921024 284.090126,472.155629 C259.372523,468.060252 239.529016,448.073728 235.455878,423.277366 C233.199428,409.540832 235.651865,396.523882 241.408606,385.51141 C243.546779,381.421188 243.038118,376.459835 239.886174,373.093311 L237.120329,370.139136 C233.592442,366.370974 227.89793,365.734252 223.593683,368.57693 C206.534255,379.843822 186.153757,386.449752 164.20053,386.449752 C139.243803,386.449752 116.321716,377.919629 98.0130014,363.686901 C93.8516295,360.451975 87.9933769,360.683561 84.1845122,364.329393 L76.2164174,371.956498 C73.3547516,374.695721 72.089495,378.850391 73.3366398,382.615853 C75.2889828,388.510638 75.8362532,395.045705 74.5311013,401.845688 C71.6697415,416.753531 59.6755627,428.768027 44.7926723,431.524253 C18.427017,436.407101 -4.21556018,413.684515 0.667286001,387.234492 C3.32984464,372.811886 14.5923308,361.021333 28.8411854,357.72822 C36.8562119,355.875872 44.5259512,356.649502 51.2598734,359.304083 C55.1198305,360.825717 59.5283428,359.704003 62.5287845,356.831923 L70.8810825,348.836969 C74.5325702,345.341763 75.1811076,339.771615 72.4865475,335.490626 C61.9477996,318.747007 55.7878872,298.965246 55.7878872,277.698371 C55.7878872,244.181595 70.9406189,214.254764 94.7121859,194.314244 C98.8003151,190.884944 99.7980559,185.003448 96.9561536,180.481205 L96.5484544,179.832391 C94.0954667,175.929024 89.4474625,174.215119 84.9557336,175.209623 C81.1905576,176.043268 77.2840971,176.494945 73.267375,176.494945 C40.6579792,176.494945 14.6436683,148.172949 18.3352959,114.712741 C21.1440338,89.254944 41.8468728,68.6096698 67.2377945,65.9068603 C86.8317745,63.8211198 104.577126,72.0411104 115.877366,85.8003096 C118.78731,89.3434384 123.489833,90.8387327 127.783372,89.2497038 L172.742942,72.6100007 C177.018308,71.0276698 179.803672,66.8840482 179.6373,62.315767 C179.61564,61.7199118 179.604197,61.1213445 179.604197,60.5198463 C179.604197,27.0955073 206.615943,0 239.936227,0 C239.964025,0 239.991819,1.88810211e-05 240.019609,5.66309333e-05 C240.025713,5.48120764e-05 240.031818,5.39025841e-05 240.037922,5.39025841e-05 C256.778986,5.39025841e-05 271.91997,6.84727355 282.85008,17.8929177 L272.058439,28.3070625 C272.041641,28.2902599 272.02483,28.2734704 272.008006,28.2566941 L271.955948,28.3069289 C263.77691,20.1253049 252.50204,15.0558618 240.045991,15.0262574 C240.043304,15.026257 240.040613,15.0262567 240.037922,15.0262567 C214.99088,15.0262567 194.686317,35.3946012 194.686317,60.5198962 C194.686317,85.634557 214.97312,105.995719 240.005055,106.013528 C242.552325,106.009734 245.148473,105.795285 247.777146,105.353776 C252.499021,104.539395 256.971273,102.992673 261.073525,100.834363 C273.702413,94.138756 282.869422,81.5234541 284.850945,66.9326462 C285.364378,63.1517169 285.415715,59.4508004 285.054091,55.871001 L298.153458,44.8552297 C298.159663,44.8784897 298.165856,44.9017547 298.172037,44.9250246 L298.255092,44.8551791 C299.590777,49.8594673 300.369646,55.0928516 300.369646,60.5198962 C300.369646,93.9441624 273.358084,121.040092 240.037922,121.040092 C239.991917,121.040092 239.945924,121.04004 239.899943,121.039937 Z M37.6205183,413.804175 C48.2593098,413.804175 56.9135118,405.122598 56.9135118,394.451213 C56.9135118,383.779828 48.2593098,375.09825 37.6205183,375.09825 C26.9830121,375.09825 18.3281368,383.779828 18.3281368,394.451213 C18.3281368,405.122598 26.9830117,413.804175 37.6205183,413.804175 Z M73.267375,158.79058 C94.0184918,158.79058 110.900045,141.85597 110.900045,121.040015 C110.900045,100.224059 94.0184918,83.2894419 73.267375,83.2894419 C52.5162582,83.2894419 35.6347054,100.224051 35.6347054,121.040015 C35.6347054,141.855978 52.5162582,158.79058 73.267375,158.79058 Z M164.200531,360.3445 C209.703211,360.3445 246.58993,323.342859 246.58993,277.698371 C246.58993,232.053883 209.70321,195.05192 164.200531,195.05192 C118.698525,195.05192 81.8118046,232.053868 81.8118046,277.698371 C81.8118046,323.342874 118.698525,360.3445 164.200531,360.3445 Z M294.260887,454.614504 C317.039364,454.614504 335.569765,436.025841 335.569765,413.176874 C335.569765,390.328214 317.039364,371.739552 294.260887,371.739552 C271.483756,371.739552 252.952621,390.328214 252.952621,413.176874 C252.952621,436.025841 271.483757,454.614504 294.260887,454.614504 Z M242.213542,84.4816352 L210.249624,53.4694614 L230.252283,49.2340501 L243.622592,63.7239439 L293.30035,15.7887088 L323.904475,15.7887088 L242.213542,84.4816352 Z" id="Combined-Shape" fill="#00467C" fill-rule="nonzero" opacity="0.800000012"></path>
                    <circle id="Oval" stroke="#BAD141" stroke-width="5.39999986" cx="164" cy="278" r="80.3000001"></circle>
                </g>
                <path d="M91.6683277,116.112781 C86.5559241,113.52448 80.3006726,112.617444 76.6219055,112.292154 C80.7672926,110.947292 83.7876488,107.060277 83.7876488,102.416749 C83.7876488,96.6637425 79.1817396,92 73.5001657,92 C67.8185917,92 63.2123114,96.6637422 63.2123114,102.416749 C63.2123114,107.060277 66.2330918,110.947292 70.3784258,112.292154 C66.6996584,112.617444 60.4444072,113.524479 55.3316322,116.112781 C55.3316322,116.112781 52.9040955,132.508872 61.184636,147.29543 C64.9561969,149.003917 69.1064626,150 73.4989459,150 C77.8927022,150 82.0437098,149.002682 85.8161192,147.293363 C94.0958644,132.507235 91.6683277,116.112781 91.6683277,116.112781 Z" id="Path" fill="#336B96"></path>
                <path d="M315.226715,408.217209 C309.327221,405.258278 302.10893,404.221359 297.863792,403.84949 C302.64739,402.312051 306.132751,397.868436 306.132751,392.559981 C306.132751,385.983175 300.81773,380.65161 294.261438,380.65161 C287.705147,380.65161 282.389697,385.983175 282.389697,392.559981 C282.389697,397.868436 285.875548,402.312051 290.659085,403.84949 C286.413946,404.221359 279.195655,405.258277 273.295733,408.217209 C273.295733,408.217209 270.49446,426.961132 280.049847,443.865044 C284.402066,445.818177 289.191294,446.956894 294.260031,446.956894 C299.330236,446.956894 304.12032,445.816765 308.473518,443.862681 C318.027987,426.95926 315.226715,408.217209 315.226715,408.217209 Z" id="Path" fill="#336B96"></path>
                <path d="M50.2257875,394.454067 C50.2257875,387.538322 44.6176122,381.905966 37.7234375,381.905966 C30.8292015,381.905966 25.2210266,387.538322 25.2210266,394.454067 C25.2210266,401.369812 30.8292019,406.995508 37.7234375,406.995508 C44.6176122,406.995508 50.2257875,401.369811 50.2257875,394.454067 Z" id="Path" fill="#336B96"></path>
                <path d="M191.489064,270.41641 C183.61318,266.400064 173.976642,264.992613 168.309404,264.487843 C174.695503,262.400984 179.348462,256.36942 179.348462,249.163918 C179.348462,240.236847 172.25295,233 163.500259,233 C154.747568,233 147.651408,240.236847 147.651408,249.163918 C147.651408,256.36942 152.305016,262.400984 158.691115,264.487843 C153.023877,264.992613 143.387339,266.400064 135.510899,270.41641 C135.510899,270.41641 131.771154,295.858635 144.527697,318.803252 C150.337967,321.45437 156.73157,323 163.498406,323 C170.267096,323 176.661996,321.452456 182.473469,318.800064 C195.228717,295.85606 191.489064,270.41641 191.489064,270.41641 Z" id="Path" fill="#C8DA67"></path>
            </g>
        </g>
    </g>
</svg>