<?xml version="1.0" standalone="no"?>
<!DOCTYPE svg PUBLIC "-//W3C//DTD SVG 1.1//EN" "http://www.w3.org/Graphics/SVG/1.1/DTD/svg11.dtd">
<svg xmlns="http://www.w3.org/2000/svg">
<metadata>Copyright (C) 2020 by original authors @ fontello.com</metadata>
<defs>
<font id="fontello" horiz-adv-x="1000" >
<font-face font-family="fontello" font-weight="400" font-stretch="normal" units-per-em="1000" ascent="850" descent="-150" />
<missing-glyph horiz-adv-x="1000" />
<glyph glyph-name="magnifier" unicode="&#xe800;" d="M971 11c37-36 37-96 0-132-36-37-96-37-132 0l-229 229c53 34 98 79 132 132l229-229z m-222 465c0-207-168-375-375-375-206 0-374 168-374 375 0 206 168 374 374 374 207 0 375-168 375-374z m-375-281c155 0 281 126 281 281 0 154-126 280-281 280-154 0-280-126-280-280 0-155 126-281 280-281z" horiz-adv-x="1000" />

<glyph glyph-name="graph" unicode="&#xe801;" d="M59 183l49 0c32 0 59-26 59-58l0-216c0-33-27-59-59-59l-49 0c-33 0-59 26-59 59l0 216c0 32 26 58 59 58z m333 500l49 0c33 0 59-26 59-58l0-716c0-33-26-59-59-59l-49 0c-32 0-59 26-59 59l0 716c0 32 27 58 59 58z m334-166l49 0c32 0 58-27 58-59l0-549c0-33-26-59-58-59l-49 0c-33 0-59 26-59 59l0 549c0 32 26 59 59 59z m333 333l49 0c32 0 59-26 59-59l0-882c0-33-27-59-59-59l-49 0c-33 0-59 26-59 59l0 882c0 33 26 59 59 59z" horiz-adv-x="1167" />

<glyph glyph-name="light-bulb" unicode="&#xe802;" d="M655 475c0-125-131-248-131-375l-262 0c0 123-131 250-131 375 0 138 117 250 262 250 145 0 262-112 262-250z m-164-500l-196 0c-18 0-33-14-33-31 0-18 15-32 33-32l6 0c13-36 49-62 92-62 43 0 79 26 92 62l6 0c18 0 33 14 33 32 0 17-15 31-33 31z m0 94l-196 0c-18 0-33-14-33-31 0-18 15-32 33-32l196 0c18 0 33 14 33 32 0 17-15 31-33 31z m-455 566l59-32c9 19 20 37 33 54l-59 33-33-55z m390 149l0 66-66 0 0-66c11 1 22 4 33 4 11 0 22-3 33-4z m-167-25l-34 56-57-31 34-56c18 12 37 23 57 31z m491-124l-33 55-59-33c13-17 24-35 33-54l59 32z m-132 149l-57 31-34-56c20-8 39-19 57-31l34 56z m-552-309c0 11 2 21 3 31l-69 0 0-62 69 0c-1 10-3 20-3 31z m651 31c1-10 3-20 3-31 0-11-2-21-3-31l69 0 0 62-69 0z m-54-216l54-29 33 54-60 32c-8-19-17-38-27-57z m-627 25l33-54 53 29c-9 19-18 38-26 57l-60-32z" horiz-adv-x="786" />

<glyph glyph-name="filter" unicode="&#xe803;" d="M997 794c-5 10-16 17-27 17h-940c-11 0-22-7-27-17-5-11-4-24 4-33l361-438v-404c0-10 6-20 14-25 5-3 11-5 16-5 5 0 10 1 14 3l203 101c10 5 17 15 17 27l0 303 361 438c8 9 9 22 4 33z m-419-440c-4-6-7-13-7-20l0-295-142-71v366c0 7-3 14-7 20l-327 396h810l-327-396z" horiz-adv-x="1000" />

<glyph glyph-name="close" unicode="&#xe804;" d="M619 350l356 357c33 32 33 86 0 118-32 33-86 33-118 0l-357-356-356 356c-33 33-87 33-119 0-33-32-33-86 0-118l356-357-356-357c-33-32-33-86 0-118 32-33 86-33 119 0l356 356 357-356c32-33 86-33 118 0 33 32 33 86 0 118l-356 357z" horiz-adv-x="1000" />

<glyph glyph-name="equalizer" unicode="&#xe805;" d="M42 642h541c0-46 38-84 84-84h83c46 0 83 38 83 84h125c23 0 42 18 42 41s-19 42-42 42h-125c0 46-37 83-83 83h-83c-46 0-84-37-84-83h-541c-23 0-42-19-42-42s19-41 42-41z m625 83h83v-83h-83v83z m291-333h-541c0 46-38 83-84 83h-83c-46 0-83-37-83-83h-125c-23 0-42-19-42-42 0-23 19-42 42-42h125c0-46 37-83 83-83h83c46 0 84 37 84 83h541c23 0 42 19 42 42 0 23-19 42-42 42z m-625-84h-83v84h83v-84z m625-250h-291c0 46-38 84-84 84h-83c-46 0-83-38-83-84h-375c-23 0-42-18-42-41s19-42 42-42h375c0-46 37-83 83-83h83c46 0 84 37 84 83h291c23 0 42 19 42 42s-19 41-42 41z m-375-83h-83v83h83v-83z" horiz-adv-x="1000" />

<glyph glyph-name="bookmark_off" unicode="&#xe806;" d="M910 817c-8 12-20 21-35 27-9 4-18 6-29 6v0h-692c-10 0-20-2-29-6-15-6-26-15-35-27-9-12-13-26-13-41v-852c0-15 4-29 13-41 9-12 20-21 35-27 9-4 19-6 29-6 20 0 39 7 55 22l291 280 292-280c15-14 33-21 54-21 11 0 21 1 29 5 15 6 27 15 35 27 9 12 13 26 13 41v852c0 15-4 29-13 41z" horiz-adv-x="1000" />

<glyph glyph-name="bookmark_on" unicode="&#xe807;" d="M910 817c-8 12-20 21-35 27-9 4-18 6-29 6v0h-692c-10 0-20-2-29-6-15-6-26-15-35-27-9-12-13-26-13-41v-852c0-15 4-29 13-41 9-12 20-21 35-27 9-4 19-6 29-6 20 0 39 7 55 22l291 280 292-280c15-14 33-21 54-21 11 0 21 1 29 5 15 6 27 15 35 27 9 12 13 26 13 41v852c0 15-4 29-13 41z m-72-873l-279 269-59 56-59-56-279-269v821h676v-821l0 0z" horiz-adv-x="1000" />

<glyph glyph-name="chat" unicode="&#xe808;" d="M539 689c289 0 528-167 528-372 0-206-234-373-528-373-61 0-122 6-178 23-67-45-172-106-278-106 50 45 73 128 78 195-89 72-144 161-144 261 0 205 233 372 522 372z m705-406c0-66 6-205 78-272-105 0-211 61-278 106 67 66 106 150 106 239 0 227-256 411-567 411-44 0-89-6-133-11 89 55 211 83 339 83 289 0 528-167 528-372-6-67-28-134-73-184z" horiz-adv-x="1333" />

<glyph glyph-name="check" unicode="&#xe809;" d="M53 297l240 66 187-173 680 627h387l-1087-934-407 414z m0 0l240 66 187-173 680 627h387l-1087-934-407 414z" horiz-adv-x="1600" />

<glyph glyph-name="contacts" unicode="&#xe80a;" d="M150 617h-72v-67h72v-172h-81v-61h81v-173h-81v-61h81v-202h142v938h-142z m203 202v-938h578v938h-578z m289-280c50 0 89-42 89-92s-39-91-89-91c-50 0-89 41-89 91s39 92 89 92z m-161-378c0 92 75 167 163 167s162-75 162-167h-325z" horiz-adv-x="944" />

<glyph glyph-name="entertainment" unicode="&#xe80b;" d="M818 186v464l-445-154v-496c0-5 0-9 0-9 0-55-77-100-168-100s-169 45-169 100c0 55 78 100 169 100 45 0 81-9 113-27v413 132l559 200v-141l-4 0v-559h0c-5-50-77-91-168-91-96 0-169 46-169 100s78 100 169 100c45-9 81-18 113-32z" horiz-adv-x="909" />

<glyph glyph-name="follow" unicode="&#xe80c;" d="M425 350c-108 0-200 92-200 208s92 209 208 209 209-92 209-209-100-208-217-208z m467 108v159h100v-159h158v-108h-158v-158h-100v158h-150v108h150z m-467-216c142 0 408-67 408-209v-108h-816v108c0 142 275 209 408 209z m0 108c-108 0-200 92-200 208s92 209 208 209 209-92 209-209-100-208-217-208z m467 108v159h100v-159h158v-108h-158v-158h-100v158h-150v108h150z m-467-216c142 0 408-67 408-209v-108h-816v108c0 142 275 209 408 209z" horiz-adv-x="1167" />

<glyph glyph-name="mail" unicode="&#xe80d;" d="M175 514c-25 18-54 40-75 72-25 28-36 57-36 85 0 33 11 58 29 79 14 21 39 32 75 32h953c29 0 54-11 72-28 21-18 32-43 32-72 0-32-11-64-32-93-22-28-47-53-79-75-160-107-264-175-303-200-4-3-15-10-29-18-14-10-25-17-36-25-10-7-21-14-32-21-14-7-25-14-35-18-11-3-22-7-33-7h0 0c-10 0-21 4-32 7-10 4-25 11-35 18-15 7-25 14-33 21-10 8-21 15-35 25-15 11-22 15-29 18-39 25-96 65-168 111-82 50-125 82-139 89z m982-64c25 14 47 32 64 54v-490c0-28-10-50-32-71-21-18-43-29-71-29h-950c-29 0-54 11-72 29-21 18-32 43-32 71v490c18-22 40-40 65-54 157-100 264-171 321-214 25-18 43-32 61-40 14-10 35-17 60-28 25-11 50-14 72-14h0 0c21 0 46 3 71 14 25 11 47 21 61 28 14 11 36 22 61 40 71 53 178 121 321 214z" horiz-adv-x="1286" />

<glyph glyph-name="pin" unicode="&#xe80e;" d="M197 247h-158v36c0 39 28 109 64 120v230c-36 11-64 81-64 120v36h367v-36c0-39-28-109-64-120v-227c39-12 64-81 64-120v-36h-175v-322c0-9-9-14-17-14s-17 5-17 14v319z" horiz-adv-x="444" />

<glyph glyph-name="pointer" unicode="&#xe80f;" d="M417 817c-192 0-350-150-350-342 0-50 8-100 33-142 83-191 258-383 308-441 0-9 9-9 17-9 8 0 8 0 17 9 50 58 216 258 308 441 17 42 33 92 33 142-16 183-175 342-366 342z m0-192c91 0 166-75 166-167 0-91-75-166-166-166-92 0-167 75-167 166 0 92 75 167 167 167z" horiz-adv-x="833" />

<glyph glyph-name="send" unicode="&#xe810;" d="M11-100v356l772 105-772 106v361l1083-467z" horiz-adv-x="1111" />

<glyph glyph-name="thumb-up" unicode="&#xe811;" d="M0-149l197 0 0 599-197 0 0-599z m1083 549c0 55-44 100-98 100l-310 0 49 229c0 5 0 10 0 15 0 20-10 40-20 55l-54 50-325-329c-20-15-29-40-29-70l0-499c0-55 44-100 98-100l443 0c40 0 74 25 89 60l148 354c4 10 4 25 4 35l0 100 5 0c0-5 0 0 0 0z" horiz-adv-x="1083" />

<glyph glyph-name="user-plus" unicode="&#xe812;" d="M425 354c-117 0-208 100-208 217s91 217 208 217 208-100 208-217-91-217-208-217z m475 109v158h108v-167h159v-108h-159v-167h-108v167h-158v117h158z m-475-225c142 0 425-75 425-217v-109h-850v109c0 150 283 217 425 217z" horiz-adv-x="1167" />

<glyph glyph-name="bell" unicode="&#xe813;" d="M439-117c-50 0-95 45-95 95h189c0-50-44-95-94-95z m283 289l95-94v-50h-761v50l94 94v239c0 145 78 267 217 300v33c0 39 33 73 72 73s72-34 72-73v-33c133-33 211-155 211-300v-239z m-283-289c-50 0-95 45-95 95h189c0-50-44-95-94-95z m283 289l95-94v-50h-761v50l94 94v239c0 145 78 267 217 300v33c0 39 33 73 72 73s72-34 72-73v-33c133-33 211-155 211-300v-239z" horiz-adv-x="889" />

<glyph glyph-name="book" unicode="&#xe814;" d="M593 24v137h194v-137h144l331 525v181l-306-469h-838v-237h475z m0-57h-481-56v294h0l0 0v0h0l462 556 794-6 0 0h0v-287l0 0 0 0v-7h0l-350-556-6 0v0h-175v-94l-100 50-100-50v100z" horiz-adv-x="1375" />

<glyph glyph-name="calender-today" unicode="&#xe815;" d="M941 536h-882v-627h877v627z m-900 0v191c0 14 14 32 32 32h173v27c0 14 9 23 18 23 9 0 18-9 18-23v-27h427v27c0 14 9 23 18 23 9 0 19-9 19-23v-27h172c18 0 32-13 32-32v-836h-909v645z m114-59h695v-482h-695v482z m159-313h32v122h18v32h-68v-32h18c0 0 0-122 0-122z m95 0c27 0 41 13 41 41v54c0 14-4 23-9 32-9 9-18 9-27 9s-23-4-28-9c-9-9-9-18-9-32v-54c-9-28 5-41 32-41z m0 22c-4 0-4 0-4 5s0 5 0 9v59c0 9 4 14 9 14s9-5 9-14v-63c0-5 0-5 0-10s-14 0-14 0z m73-22c4 0 9 0 14 4s4 5 9 14v-14h31v155h-31v-32c-5 5-9 9-19 9-9 0-13-4-18-9-4-5-9-14-9-23l0-59c0-9 0-18 0-23s5-9 9-13 9-9 14-9z m14 22c-5 0-10 5-10 19v54c0 5 0 9 0 9 0 5 5 5 5 5 5 0 5 0 5-5s0-4 0-9v-54c0-5 0-9 0-14s4-5 0-5z m72-22c5 0 9 0 14 4s4 9 9 14v-14h32v100c0 9-5 18-9 23-5 5-14 9-28 9-13 0-22-4-27-9-9-9-13-18-13-32v-4h31v9c0 4 0 4 0 4s5 5 5 5c0 0 4 0 4-5 0 0 0-4 0-9v-13l-9-5c-9-5-18-5-22-9-5-5-9-5-9-14s-5-13-5-22c0-14 0-23 5-28 9-4 13-4 22-4z m14 22c-5 0-9 5-9 14v14c0 4 0 9 4 13s5 5 9 9v-36c0-4 0-4 0-9 0-5-4-5-4-5z m45-27v-18h37c4 0 9 0 13 5 5 4 5 4 5 13l23 137h-32l-9-64-5-32-4 32-5 64h-27l18-128c0 0 0 0 0 0 0 0 0-4-5-4 10-5-9-5-9-5z" horiz-adv-x="1000" />

<glyph glyph-name="personal-care" unicode="&#xe816;" d="M250 35l-185 147c-21 18-24 47-6 65 18 21 47 24 68 6 0 0 0 0 0 0l164-129h291v14 6h-188l-3-3-3 3h-82c-29 0-53 24-53 53 0 0 0 3 0 3 0 0 0 3 0 3 0 29 24 53 53 53h276c9 6 42 23 95 53 67 35 120 38 161 9 59-44 94-74 106-86 15-11 24-17 30-11l29 35 141-121-215-250-147 124c9 9 18 18 27 23 9 9 9 15 3 18-12 12-24 21-35 32-12 12-24 15-39 6-14-9-38-23-64-38-30-18-50-23-62-23-191 0-303 0-333 0l0 0c-8 0-20 2-29 8l0 0c3 0 0 0 0 0l0 0z m-12 153l-111 89c0 0 0 0 0 0-15 11-33 11-50 5l-30 24c-23 18-26 50-9 73l0 0c18 24 53 27 77 9 0 0 0 0 0 0l0 0 164-129c-23-9-41-32-41-62 0-3 0-6 0-9z m59 74l-132 103c0 0 0 0 0 0-3 3-6 3-9 6 3 3 3 6 6 8 17 21 47 24 67 6 0 0 0 0 0 0l159-126h-91z m121 3l-133 103c0 0 0 0 0 0-3 3-6 3-8 6 2 3 2 5 5 8 18 21 47 24 68 6 0 0 0 0 0 0l159-126h-91z m261 535c48-26 80-73 80-129 0-15-3-33-9-44-26-115-262-256-262-256s-235 144-261 256c-6 14-9 29-9 44 0 56 32 103 79 129 21 12 47 18 74 18 47 0 88-21 117-53 27 32 71 53 118 53 26 0 50-6 73-18z" horiz-adv-x="1176" />

<glyph glyph-name="petcare" unicode="&#xe817;" d="M347 475c-72 0-128 78-128 175s59 175 128 175c72 0 128-78 128-175s-59-175-128-175z m316 0c-72 0-129 78-129 175s60 175 129 175c71 0 128-78 128-175s-57-175-128-175z m234 94c56-13 87-78 75-153-16-75-69-125-125-113-56 13-88 78-75 153 16 75 69 125 125 113z m-744-266c-56-12-112 38-125 113-15 75 19 143 75 153 56 12 113-38 125-113 16-75-19-140-75-153z m550-47c69-31 119-100 119-181 0-109-88-200-197-200-44 0-84 16-116 37-31-25-71-37-115-37-110 0-197 91-197 200 0 81 50 150 119 181 15 94 97 166 193 166s182-72 194-166z" horiz-adv-x="1000" />

<glyph glyph-name="home" unicode="&#xe818;" d="M482 592l315-336v-355c0-9-6-15-15-15h-179c-9 0-15 6-15 15v246c0 18-15 30-30 30h-146c-18 0-30-15-30-30v-246c0-9-6-15-15-15h-185c-9 0-15 6-15 15v355l315 336z m436-245c21-21 21-55 0-73-21-21-54-21-72 0l-361 379-358-379c-9-9-24-15-36-15s-27 3-39 15c-22 22-22 55 0 73l412 430c0 0 0 0 0 0 12 12 33 12 45 0l409-430z" horiz-adv-x="970" />

<glyph glyph-name="eye" unicode="&#xe819;" d="M800 817c-306 0-583-164-787-430-17-22-17-52 0-74 204-266 481-430 787-430 306 0 583 164 788 430 16 22 16 52 0 74-205 266-482 430-788 430z m22-796c-203-12-371 152-358 351 11 163 147 296 314 307 203 12 371-152 358-350-11-164-147-297-314-308z m-10 152c-109-6-200 82-193 189 6 88 79 159 170 165 109 7 199-81 192-188-6-89-79-160-169-166z" horiz-adv-x="1600" />

<glyph glyph-name="chat_fill" unicode="&#xe81a;" d="M825 850c96 0 175-79 175-175l0-442c0-89-67-163-153-174l0-174c0-14-9-27-22-32-4-2-9-3-13-3-9 0-18 4-25 10l-198 198-414 0c-96 0-175 79-175 175l0 442c0 96 79 175 175 175l650 0z m-67-248l-516 0c-19 0-35-16-35-35 0-19 16-35 35-35l516 0c19 0 35 16 35 35 0 19-16 35-35 35z m0-196l-516 0c-19 0-35-16-35-35 0-19 16-35 35-35l516 0c19 0 35 16 35 35 0 19-16 35-35 35z" horiz-adv-x="1000" />

<glyph glyph-name="chat-line" unicode="&#xe81b;" d="M825 850c96 0 175-79 175-175l0-442c0-89-67-163-153-174l0-174c0-14-9-27-22-32-4-2-9-3-13-3-9 0-18 4-25 10l-198 198-414 0c-96 0-175 79-175 175l0 442c0 96 79 175 175 175l650 0z m0-722c58 0 105 47 105 105l0 442c0 58-47 105-105 105l-650 0c-58 0-105-47-105-105l0-442c0-58 47-105 105-105l429 0c9 0 18-4 24-10l149-148 0 123c0 19 15 35 35 35l13 0z m-67 474c19 0 35-16 35-35 0-19-16-35-35-35l-516 0c-19 0-35 16-35 35 0 19 16 35 35 35l516 0z m0-196c19 0 35-16 35-35 0-19-16-35-35-35l-516 0c-19 0-35 16-35 35 0 19 16 35 35 35l516 0z" horiz-adv-x="1000" />

<glyph glyph-name="angle-up" unicode="&#xe81c;" d="M990 165l-467 467c-7 6-14 10-23 10s-16-4-23-10l-467-467c-7-7-10-15-10-23 0-9 3-17 10-23l50-51c7-6 15-10 23-10 9 0 17 4 23 10l394 394 394-394c7-6 14-10 23-10 9 0 16 4 23 10l50 51c7 6 10 14 10 23 0 8-3 16-10 23z" horiz-adv-x="1000" />

<glyph glyph-name="bank" unicode="&#xe81d;" d="M90 435c-20 0-35 15-45 30s0 40 15 55l425 315c10 5 25 5 35 0l425-315c15-10 25-35 15-55s-25-35-45-35h-20v-430h15c15 0 25-10 25-25s-10-25-25-25h-810c-15 0-25 10-25 25s10 25 25 25h15v430 5h-25z m440-435v430 5h-50v-435h50z m-210 0v430 5h-50v-435h50z m-150 0h50v405h-50v-405z m205 0h50v405h-50v-405z m210 0h50v405h-50v-405z m210 0h50v405h-50v-405z m-55 430s0 5 0 0l-50 5v-435h50v430z m-235 350l-390-290h785l-395 290z m460-870c15 0 25-10 25-25s-10-25-25-25h-920c-15 0-25 10-25 25s10 25 25 25h920z" horiz-adv-x="1000" />

<glyph glyph-name="credit-card" unicode="&#xe81e;" d="M1321 849l-1187 0c-75 0-134-61-134-134l0-91 0-183 0-456c0-75 61-134 134-134l1187 0c74 0 134 61 134 134l0 456 0 183 0 91c0 75-61 134-134 134z m-1187-85l1187 0c26 0 48-22 48-49l0-48-1284 0 0 48c0 27 22 49 49 49z m1235-280l-1284 0 0 97 1284 0 0-97z m-48-548l-1187 0c-27 0-49 22-49 49l0 414 1284 0 0-414c0-27-21-49-48-49z m-183 365l-91 0c-75 0-134-60-134-134 0-74 61-133 134-133l91 0c75 0 134 60 134 133 0 75-61 134-134 134z m0-182l-91 0c-27 0-49 21-49 48 0 27 22 49 49 49l91 0c27 0 49-21 49-49 0-26-22-48-49-48z" horiz-adv-x="1500" />

<glyph glyph-name="emergency-service" unicode="&#xe81f;" d="M830 15l20-65c5-20 5-45-10-60-15-20-35-30-55-30h-580c-20 0-40 10-55 30-15 20-15 40-10 60l20 65c10 25 30 40 55 45v260c0 155 125 280 280 280s280-125 280-280v-260c25 0 45-20 55-45z m-555 305v-260h445v260c0 125-100 225-220 225s-225-100-225-225z m520-400c0 0 5 5 0 10l-20 70c0 5-5 10-10 10h-15-500-20c-5 0-10-5-10-10l-20-65c0-5 0-10 0-10 0 0 5-5 10-5h580c0-5 0 0 5 0z m-300 755c-15 0-30 15-30 30v100c0 15 15 30 30 30s30-15 30-30v-100c0-20-15-30-30-30z m-180-20l-45 95c-5 15 0 30 15 40 15 5 30 0 40-15l40-90c5-20 0-35-15-40-5 0-10-5-10-5-10 0-20 5-25 15z m-200-35c-10 10-10 25 0 40 10 10 30 15 40 5l75-65c10-10 15-30 5-40-10-10-15-15-25-15-5 0-10 0-20 5l-75 70z m45-195c-5-10-15-20-25-20-5 0-5 0-10 0l-95 30c-15 5-25 20-20 35 5 15 20 25 35 20l95-30c15-5 25-20 20-35z m480 220c-15 5-20 25-15 40l40 90c5 15 25 20 40 15 15-5 20-25 15-40l-40-90c-5-10-15-15-25-15-5-5-10-5-15 0z m140-100c-10 0-15 5-20 10-10 10-10 30 0 40l75 65c10 10 30 10 40-5 10-10 10-30-5-40l-70-65c-5-5-15-5-20-5z m200-75c5-15-5-30-20-35l-95-30c-5 0-5 0-10 0-10 0-25 10-25 20-5 15 5 30 20 35l95 30c15 5 30-5 35-20z" horiz-adv-x="1000" />

<glyph glyph-name="funds" unicode="&#xe820;" d="M853 430c0-1 0-2 0-3 0 0 1 0 1 0l0-303c0-9-5-17-12-22l-132-82c-4-3-8-4-13-4-4 0-8 1-12 3-8 4-13 13-13 22l0 288-383 218-215-135 360-204 174 110c12 7 27 4 35-8 7-12 3-28-8-35l-187-118c-4-2-9-4-14-4-4 0-8 1-12 4l-409 232c-8 4-13 13-13 21 0 9 4 18 12 22l263 166c0 0 0 0 0 0l131 83c0 0 0 0 0 0l263 165c7 5 17 5 26 1l408-233c8-4 13-12 13-21 0-9-4-18-12-22l-187-118c-11-7-27-4-34 8-8 12-4 27 8 35l151 95-359 204-215-135 373-211c0-1 1-1 2-2 1 0 1 0 1 0 1-1 1-2 2-2 0 0 0 0 0-1 1 0 2-1 2-2 0 0 0 0 0 0 1-1 1-1 2-2 0 0 0 0 0 0 0-1 0-1 0-1 1-1 1-1 1-2 0 0 1-1 1-1 0-1 0-2 1-3 0 0 0 0 0 0 0-1 0-2 0-3 0 0 0 0 0 0z m-131-343l81 51 0 243-28-18c-5-3-9-4-14-4-8 0-16 4-21 12-8 12-4 27 8 35l31 20-359 204-83-52 372-212c8-5 13-13 13-22l0-257z m356 425c11 8 27 4 34-7 8-12 4-28-8-35l-187-118c-4-3-8-4-13-4-8 0-17 4-21 12-8 12-4 27 8 35l187 117z m-470-295c12 7 27 4 35-8 7-12 3-28-8-35l-187-118c-4-2-9-4-14-4-4 0-8 1-12 4l-409 232c-12 7-17 22-10 34 7 13 23 17 35 10l396-225 174 110z m470 194c11 8 27 4 34-7 8-12 4-28-8-35l-187-118c-4-3-8-4-13-4-8 0-17 4-21 12-8 12-4 27 8 35l187 117z m-470-295c12 7 27 4 35-8 7-12 3-28-8-35l-187-118c-4-3-9-4-14-4-4 0-8 1-12 3l-409 233c-12 7-17 22-10 34 7 13 23 17 35 10l396-225 174 110z m470 194c11 8 27 4 34-7 8-12 4-28-8-35l-187-118c-4-3-8-4-13-4-8 0-17 4-21 12-8 12-4 27 8 35l187 117z m-470-295c12 7 27 4 35-8 7-12 3-28-8-35l-187-118c-4-3-9-4-14-4-4 0-8 1-12 3l-409 233c-12 7-17 22-10 34 7 13 23 17 35 10l396-225 174 110z" horiz-adv-x="1150" />

<glyph glyph-name="angle-down" unicode="&#xe821;" d="M500 65c-18 0-36 7-49 21l-430 430c-28 27-28 71 0 99 27 27 71 27 99 0l380-381 381 381c27 27 71 27 99 0 27-28 27-72 0-99l-430-430c-14-14-32-21-50-21z" horiz-adv-x="1000" />

<glyph glyph-name="angle-left" unicode="&#xe822;" d="M388 350l394 394c6 7 10 14 10 23 0 9-4 16-10 23l-50 50c-7 7-15 10-24 10-8 0-16-3-23-10l-467-467c-6-7-10-14-10-23 0-9 4-16 10-23l467-467c7-7 15-10 23-10 9 0 17 3 23 10l51 50c6 7 10 14 10 23 0 9-4 16-10 23l-394 394z" horiz-adv-x="1000" />

<glyph glyph-name="angle-right" unicode="&#xe823;" d="M782 373l-467 467c-7 7-15 10-23 10-9 0-17-3-23-10l-51-50c-6-7-10-14-10-23 0-9 4-16 10-23l394-394-394-394c-6-7-10-14-10-23 0-9 4-16 10-23l51-50c6-7 14-10 23-10 8 0 16 3 23 10l467 467c6 7 10 14 10 23s-4 16-10 23z" horiz-adv-x="1000" />

<glyph glyph-name="album" unicode="&#xe824;" d="M97 715l59 0 0-730-59 0 0 730z m914 0l58 0 0-730-58 0 0 730z m97-73l59 0 0-584-59 0 0 584z m-1108 0l58 0 0-584-58 0 0 584z m194 146l778 0 0-876-778 0 0 876z m681-784l0 692-583 0 0-692 583 0z" horiz-adv-x="1167" />

<glyph glyph-name="phone" unicode="&#xe825;" d="M967 77c0-14 0-27-14-40l-133-134c-7-6-13-13-27-20-6-6-20-6-26-6 0 0 0 0-7 0 0 0-7 0-13 0-14 0-34 0-60 6-27 7-60 14-107 34-40 20-87 40-140 73-53 33-107 80-167 140-46 47-86 87-113 133-20 47-47 80-67 120-20 34-33 67-40 94-6 33-13 53-20 73s-6 40 0 53c0 14 0 20 0 20 0 7 7 20 7 27s13 20 20 27l133 133c7 7 14 7 27 7 7 0 13 0 20-7s13-13 20-20l107-200c6-7 6-20 6-33s-6-20-20-34l-46-46c0 0 0-7-7-7 0 0 0-7 0-7 0-13 7-26 20-46 7-14 20-34 40-60 13-20 40-47 67-80 33-27 60-54 80-74 20-20 40-26 60-40 13-6 26-13 33-13l13 0c0 0 7 0 7 0 0 0 7 0 7 7l60 60c13 13 26 13 40 13 13 0 20 0 26-7h0l194-113c13-7 20-20 20-33z" horiz-adv-x="1000" />

<glyph glyph-name="plus" unicode="&#xe826;" d="M908 417h-341v341c0 17-25 50-67 50s-67-33-67-50v-341h-341c-17 0-50-25-50-67s33-67 50-67h341v-341c0-17 25-50 67-50s67 33 67 50v341h341c17 0 50 25 50 67s-33 67-50 67z" horiz-adv-x="1000" />

<glyph glyph-name="cards-payment" unicode="&#xe827;" d="M1078 703c29-6 48-35 42-64l-13-84-792 168 13 84c6 29 35 48 64 41l686-145z m-289-165l12-43 276-58-48-229c-7-29-35-48-64-42l-77 17 20-74c8-29-9-59-38-67l-682-190c-29-8-59 9-67 38l-119 429c-8 29 9 59 38 67l211 59 34 159 307-65 130 37c29 8 59-10 67-38z m79-218c-2-12 5-24 17-27l80-16c12-3 24 5 26 17l17 79c3 12-5 24-17 27l-80 17c-11 2-23-6-26-18l-17-79z m-816 23c-5-1-9-7-7-12l23-84 702 195-18 63-5 21c-2 5-6 7-10 7-1 0-2 0-3 0l-48-14-445-123-189-53z m814-246l-27 96-43 154-702-195 70-250c1-5 6-7 10-7 0 0 1 0 2 0l683 190c3 1 5 3 6 4 1 2 2 5 1 8z m-580-17l23-80c3-12-4-24-16-27l-80-22c-11-4-24 3-27 15l-22 80c-3 12 4 24 15 27l80 22c12 4 24-3 27-15z" horiz-adv-x="1125" />

<glyph glyph-name="contacts-1" unicode="&#xe828;" d="M864 850c19 0 35-15 35-34l0-932c0-19-16-34-35-34l-752 0c-19 0-34 15-34 34l0 199-43 0c-19 0-35 15-35 34 0 19 16 35 35 35l43 0 0 164-43 0c-19 0-35 15-35 34 0 19 16 34 35 34l43 0 0 164-43 0c-19 0-35 16-35 35 0 19 16 34 35 34l43 0 0 199c0 19 15 34 34 34l752 0z m-34-931l0 862-683 0 0-164 43 0c19 0 34-15 34-34 0-19-15-35-34-35l-43 0 0-164 43 0c19 0 34-15 34-34 0-19-15-34-34-34l-43 0 0-164 43 0c19 0 34-16 34-35 0-19-15-34-34-34l-43 0 0-164 683 0z m-317 415c-78 0-142 64-142 142 0 78 64 141 142 141 78 0 141-63 141-141 0-78-63-142-141-142z m0 214c-40 0-73-32-73-72 0-40 33-73 73-73 40 0 73 33 73 73 0 40-33 72-73 72z m-158-471c-19 0-34 15-34 34l0 60c0 76 62 138 138 138l109 0c76 0 138-62 138-138l0-60c0-19-16-34-35-34-19 0-34 15-34 34l0 60c0 38-31 69-69 69l-109 0c-38 0-69-31-69-69l0-60c0-19-16-34-35-34z" horiz-adv-x="917" />

<glyph glyph-name="map-pin-marked" unicode="&#xe829;" d="M762 587c0-207-262-517-262-517 0 0-262 308-262 517 0 145 117 263 262 263 145 0 262-118 262-263z m-391 16c0-72 58-130 129-130 71 0 129 58 129 130 0 71-58 129-129 129-71 0-129-58-129-129z m129-64c-35 0-64 28-64 64 0 35 29 63 64 63 35 0 64-28 64-63 0-36-29-64-64-64z m148-377c204-20 352-81 352-152 0-89-224-160-500-160-276 0-500 71-500 160 0 71 148 132 352 152 21-31 41-58 58-80-166-10-274-46-314-73 47-31 187-75 404-75 217 0 357 44 404 75-40 27-148 63-314 73 17 22 37 49 58 80z" horiz-adv-x="1000" />

<glyph glyph-name="health" unicode="&#xe82a;" d="M846 317l101 10c19 2 35-11 37-30l16-148c2-19-12-36-30-38l-337-35c-19-2-36 11-38 30l-15 148c-2 19 11 36 30 38l112 12-32 306-112-12c-19-1-35 12-37 31l-16 148c-2 19 12 35 30 37l337 36c19 2 36-12 37-30l16-149c2-18-12-35-30-37l-101-11 32-306z m-536-230l99-26c18-5 28-24 23-42l-38-144c-5-18-23-29-42-24l-327 88c-18 5-29 23-24 42l39 144c5 18 23 29 41 24l109-30 80 298-109 30c-18 5-29 23-24 41l39 144c4 19 23 29 41 24l327-87c18-5 29-24 24-42l-38-144c-5-18-24-29-42-24l-98 26-80-298z" horiz-adv-x="1000" />

<glyph glyph-name="reply" unicode="&#xe82b;" d="M34 302c68-168 250-252 548-252l141 0 0-159c0-11 4-20 12-28 7-8 17-12 28-12 11 0 20 4 28 12l321 319c8 8 12 17 12 28 0 11-4 20-12 28l-321 319c-8 8-17 12-28 12-11 0-21-4-28-12-8-8-12-17-12-28l0-159-141 0c-41 0-77 1-110 3-32 3-64 7-96 14-32 6-60 15-83 26-24 11-46 26-67 44-20 17-37 38-50 63-13 24-23 53-30 86-7 33-11 71-11 113 0 23 1 48 3 76 0 3 1 8 2 15 1 7 1 13 1 17 0 6-2 11-5 15-4 4-9 6-15 6-7 0-12-3-17-10-3-4-6-9-9-14-2-5-5-12-8-19-3-7-5-12-7-15-53-118-79-212-79-281 0-82 11-152 33-207z" horiz-adv-x="1124" />

<glyph glyph-name="arrow-down" unicode="&#xe82c;" d="M401-80l0 0c0 0 0 0 0-1 0-3-1-6-2-9 0-1 0-2-1-3-1-2-2-4-3-6-1-1-1-2-2-2 0-1 0-1-1-1-2-3-4-4-6-6-1 0-1 0-1 0-3-2-6-3-9-3 0 0 0-1-1-1l-191-32c-15-3-27 7-28 22 0 15 11 29 26 31l103 18c-84 54-145 132-148 136-195 235-180 584 35 779 10 9 25 10 34 2 1 0 2-1 3-2 9-11 6-28-5-39-191-173-202-488-24-702 1-1 64-82 146-132l-40 115c-5 13 3 30 17 37 14 6 29 1 33-13l64-181c1-2 1-5 1-7z" horiz-adv-x="402" />

<glyph glyph-name="badge" unicode="&#xe82d;" d="M991 89a29 29 0 0 0 7-32 29 29 0 0 0-27-18h-159v-159a30 30 0 0 0-18-27 31 31 0 0 0-32 6l-190 190a433 433 0 0 1 281 178z m-457 454a31 31 0 0 1 19-14l68-14-45-51a29 29 0 0 1-8-23l8-70-63 30a28 28 0 0 1-24 0l-64-30 7 70a29 29 0 0 1-8 23l-45 52 68 13a31 31 0 0 1 19 15l34 60z m339-67a374 374 0 1 0-373 374 374 374 0 0 0 373-374z m-173 38a30 30 0 0 1 6 29 29 29 0 0 1-22 19l-106 22-53 94a30 30 0 0 1-51 0l-53-94-106-22a30 30 0 0 1-16-48l73-80-12-108a30 30 0 0 1 12-26 28 28 0 0 1 29-3l99 45 98-45a29 29 0 0 1 29 3 31 31 0 0 1 12 26l-13 108z m-554-288a436 436 0 0 1 282-177l-190-190a31 31 0 0 0-32-6 30 30 0 0 0-18 27v159h-159a29 29 0 0 0-27 18 29 29 0 0 0 7 32z" horiz-adv-x="1000" />

<glyph glyph-name="range-location" unicode="&#xe82e;" d="M707 184a71 71 0 1 0-67-96h-292a71 71 0 0 0-136 25 71 71 0 0 0 71 71 70 70 0 0 0 66-48h293a71 71 0 0 0 65 48z m-426 474a166 166 0 0 0 166-166c0-85-133-236-148-253a23 23 0 0 0-18-7 25 25 0 0 0-17 9c-16 15-149 166-149 251a166 166 0 0 0 166 166z m0-237a71 71 0 1 1-69 71 71 71 0 0 1 69-71z m426 237a166 166 0 0 0 166-166c0-85-133-236-148-253a23 23 0 0 0-18-7 25 25 0 0 0-18 9c-14 17-148 167-148 252a166 166 0 0 0 166 165z m0-237a71 71 0 1 1-71 71 71 71 0 0 1 71-71z" horiz-adv-x="1000" />

<glyph glyph-name="globe" unicode="&#xe82f;" d="M518-150v233a929 929 0 0 0 188-22c-45-119-112-198-188-211z m125 19l-11-3-4 0a444 444 0 0 1 114 187 585 585 0 0 0 125-47l0 0-9-9-10-10-9-8-10-9-10-8-10-8-10-7-11-8-10-7a74 74 0 0 1-12-7l-11-6-12-7-10-5-13-6-11-5-21-9-11-4-13-4-11-4z m357 464a500 500 0 0 0-115-301 608 608 0 0 1-135 54 923 923 0 0 1 36 250z m-482 36v215a953 953 0 0 1 197 24 883 883 0 0 0 35-239z m0 481c76-11 143-91 188-209a929 929 0 0 0-188-22z m0-732v215h232a886 886 0 0 0-35-239 912 912 0 0 1-197 24z m367 552a500 500 0 0 0 115-301h-214a923 923 0 0 1-37 250 608 608 0 0 1 136 51z m-24 28a585 585 0 0 0-125-48 444 444 0 0 1-111 186l4 0 12 0 13-5a79 79 0 0 0 11-3l13-5 10-9 13-5 10-5 13-6 10-5 16-5a63 63 0 0 0 11-7l12-7 10-6 11-9 10-6 10-9 10-8 10-9 9-8 11-10 8-8z m-861-329a500 500 0 0 0 115 301 608 608 0 0 1 135-54 923 923 0 0 1-36-250z m482-519c-76 11-143 91-188 209a929 929 0 0 0 188 22z m0 481v-215a912 912 0 0 1-197-23 911 911 0 0 0-35 240z m0 519v-231a929 929 0 0 0-188 22c45 118 112 198 188 209z m0-266v-215h-232a908 908 0 0 0 35 239 953 953 0 0 1 197-24z m-107 252a444 444 0 0 1-114-188 585 585 0 0 0-125 48l0 0a58 58 0 0 0 8 8l10 10 14 11 11 9 9 9 10 8 10 7 11 8 10 7 12 6a63 63 0 0 0 9 9l14 5 11 5 13 6 10 5 15 5 9 5 13 4 11 5 14 3 11 0z m-226-842l-8 9 0 0a619 619 0 0 0 125 47 444 444 0 0 1 114-188l-4 0-12 4-13 4-11 4-13 4-14 9-14 6-10 5-13 6-10 5-16 7-11 6-11 8-10 6-12 8-10 7-8 9-10 7-10 8a54 54 0 0 0-9 8z m-34 38a500 500 0 0 0-115 301h214a923 923 0 0 1 37-250 608 608 0 0 1-136-51z" horiz-adv-x="1000" />

<glyph glyph-name="lock" unicode="&#xe830;" d="M804 457h-54v72a250 250 0 0 1-500 0v-72h-54a18 18 0 0 1-17-18v-446a71 71 0 0 1 71-72h500a71 71 0 0 1 71 72v446a18 18 0 0 1-17 18z m-250-373a18 18 0 0 0-5-14 17 17 0 0 0-13-6h-72a17 17 0 0 0-13 6 18 18 0 0 0-5 14l12 101a71 71 0 0 0-29 58 71 71 0 0 0 142 0 71 71 0 0 0-29-58z m89 373h-286v72a143 143 0 0 0 286 0v-72z" horiz-adv-x="1000" />

<glyph glyph-name="photo-gallery" unicode="&#xe831;" d="M707 497l23 17v-479a217 217 0 0 1-38-39h-384a217 217 0 0 1-38 39v478l21-16 13-56 48-10v-297l148 74 147-75v297l48 11z m40 204h128v-851h-750v851h126l3-14-31-49 31-49 0-8a158 158 0 0 0-28-25l-13-8v-546l13-9a158 158 0 0 0 45-45l9-14h446l8 14a158 158 0 0 0 46 45l12 9v546l-12 8a162 162 0 0 0-30 26l0 7 31 49-31 49z m-247-429l-91-46v156l43 8 49-32 49 32 42-8v-157z m-210 364l24 37-8 46 36 25 9 43 43 10 25 37 46-8 35 24 36-24 44 8 25-37 43-9 9-43 36-26-7-45 23-38-23-37 7-46-36-21-9-46-43-9-25-36-44 9-36-24-37 24-44-9-25 36-43 9-10 46-35 25 7 45z m210 99a97 97 0 1 1 96-97 97 97 0 0 1-96 97z m0-59a39 39 0 1 0-38-38 38 38 0 0 0 38 38z" horiz-adv-x="1000" />

<glyph glyph-name="profile" unicode="&#xe832;" d="M500 350a250 250 0 1 1-250 250 251 251 0 0 1 250-250z m0-125c-169 0-500-81-500-250v-125h1000v125c0 169-331 250-500 250z" horiz-adv-x="1000" />

<glyph glyph-name="service" unicode="&#xe833;" d="M199 467a189 189 0 0 0-136 56 192 192 0 0 0-36 217 14 14 0 0 0 10 7 15 15 0 0 0 11-3l119-121a46 46 0 0 1 65 0 46 46 0 0 1 14 33 46 46 0 0 1-14 32l-118 121a13 13 0 0 0-4 12 12 12 0 0 0 7 9 191 191 0 0 0 264-231l113-113-123-123-113 113a182 182 0 0 0-59-9z m602-220a188 188 0 0 0 136-56 192 192 0 0 0 38-217 14 14 0 0 0-10-7 12 12 0 0 0-12 3l-118 119a46 46 0 0 1-65 0 46 46 0 0 1 0-65l118-119a12 12 0 0 0 3-11 12 12 0 0 0-7-10 191 191 0 0 0-82-19 188 188 0 0 0-136 56 192 192 0 0 0-46 194l-124 125 123 123 125-125a197 197 0 0 0 57 9z m-50 281l-12 12-289-289a65 65 0 0 1-9 8l-49 51a62 62 0 0 1-11 8l290 290-6 6s-17 18-5 33c29 39 7 140-164 170-24 4-28 9-5 17 55 20 175 24 353-154 0 0 72-83 62-118-2-8 15-32 26-46l12 13a32 32 0 0 0 46-46l-76-75a31 31 0 0 0-45 0 31 31 0 0 0 0 46l9 9h0c-17 13-72 66-91 56s-36 9-36 9z m-378-237l48-49a31 31 0 0 0 0-41l-285-322a26 26 0 0 0-37 0l-89 87a25 25 0 0 0 0 38l321 288a30 30 0 0 0 42-1z" horiz-adv-x="1000" />

<glyph glyph-name="calendar" unicode="&#xe834;" d="M579 324h0a53 53 0 1 1 0-105h0a53 53 0 0 1 0 105z m-158 52a53 53 0 1 1 0 105 53 53 0 0 1 0-105z m158 105h0a53 53 0 1 1 0-105h0a53 53 0 0 1 0 105z m52 264h-262v-105h262z m106-369a53 53 0 1 1-53 53 53 53 0 0 1 53-53z m0-157a53 53 0 1 1-53 52 52 52 0 0 1 53-52z m-318 0a53 53 0 1 1-53 52 52 52 0 0 1 55-52z m-156-158a53 53 0 1 1-52 52 53 53 0 0 1 52-52z m632 681h-53v-102h53v-685h-789v682h52v108h-52a105 105 0 0 1-106-105v-685a106 106 0 0 1 106-105h789a106 106 0 0 1 105 105v682a105 105 0 0 1-105 108z m-632-523a53 53 0 1 1-52 52 52 52 0 0 1 52-52z m0 157a53 53 0 1 1-52 53 53 53 0 0 1 52-53z m158-318a53 53 0 1 1-52 53 53 53 0 0 1 52-50z m-158 582a53 53 0 0 1 55 52v105a53 53 0 0 1-105 0v-105a53 53 0 0 1 50-52z m474 0a53 53 0 0 1 53 52v105a53 53 0 1 1-106 0v-105a53 53 0 0 1 53-52z" horiz-adv-x="1000" />

<glyph glyph-name="edit-2" unicode="&#xe835;" d="M936 786a87 87 0 0 0 0-122l-41-41-122 123 41 40a87 87 0 0 0 122 0z m-612-489l-41-163 163 40 408 407-123 124z m407 80v-373h-577v577h373l115 115h-604v-807h808v603z" horiz-adv-x="1000" />

<glyph glyph-name="thumsup" unicode="&#xe836;" d="M1000 429c0 57-44 102-98 102l-236 0 35 98c0 1 0 1 0 1 17 52 12 106-12 158-19 38-56 62-97 62l-11 0c-28 0-52-23-54-52-4-50-24-98-58-134l-189-201-19 0 0 34c0 19-15 34-33 34l-195 0c-18 0-33-15-33-34l0-613c0-19 15-34 33-34l195 0c18 0 33 15 33 34l0 34 543 0c54 0 98 46 98 102 0 19-4 36-12 51 27 18 45 50 45 86 0 18-5 35-13 50 27 18 45 50 45 86 0 18-4 35-12 50 27 18 45 50 45 86z m-804 0l0-477 0-34-131 0 0 545 131 0 0-34z m706-34l-32 0-66 0c-18 0-32-15-32-34 0-19 14-34 32-34l66 0c18 0 32-15 32-34 0-19-14-34-32-34l-33 0-65 0c-18 0-33-15-33-34 0-19 15-34 33-34l65 0c18 0 33-16 33-34 0-19-15-34-33-34l-33 0c-1 0-3-1-5-1l-62 0c-18 0-33-15-33-34 0-19 15-34 33-34l65 0c2 0 3 0 5 0 17-1 30-16 30-34 0-18-15-34-33-34l-543 0 0 409 33 0c8 0 17 4 23 10l198 211c0 0 0 0 1 0 41 45 68 104 75 166l1 0c17 0 31-10 39-25 16-35 19-70 8-105l-50-143c-4-10-2-22 4-31 6-9 16-15 27-15l282 0c18 0 33-15 33-34 0-19-15-34-33-34z m98 34c0 57-44 102-98 102l-236 0 35 98c0 1 0 1 0 1 17 52 12 106-12 158-19 38-56 62-97 62l-11 0c-28 0-52-23-54-52-4-50-24-98-58-134l-189-201-19 0 0 34c0 19-15 34-33 34l-195 0c-18 0-33-15-33-34l0-613c0-19 15-34 33-34l195 0c18 0 33 15 33 34l0 34 543 0c54 0 98 46 98 102 0 19-4 36-12 51 27 18 45 50 45 86 0 18-5 35-13 50 27 18 45 50 45 86 0 18-4 35-12 50 27 18 45 50 45 86z m-804 0l0-477 0-34-131 0 0 545 131 0 0-34z m706-34l-32 0-66 0c-18 0-32-15-32-34 0-19 14-34 32-34l66 0c18 0 32-15 32-34 0-19-14-34-32-34l-33 0-65 0c-18 0-33-15-33-34 0-19 15-34 33-34l65 0c18 0 33-16 33-34 0-19-15-34-33-34l-33 0c-1 0-3-1-5-1l-62 0c-18 0-33-15-33-34 0-19 15-34 33-34l65 0c2 0 3 0 5 0 17-1 30-16 30-34 0-18-15-34-33-34l-543 0 0 409 33 0c8 0 17 4 23 10l198 211c0 0 0 0 1 0 41 45 68 104 75 166l1 0c17 0 31-10 39-25 16-35 19-70 8-105l-50-143c-4-10-2-22 4-31 6-9 16-15 27-15l282 0c18 0 33-15 33-34 0-19-15-34-33-34z" horiz-adv-x="1000" />

<glyph glyph-name="delete" unicode="&#xe837;" d="M814 627l-22 66c-8 25-32 42-58 42h-186v60c0 30-24 55-55 55h-170c-30 0-54-25-54-55v-60h-186c-26 0-50-17-58-42l-22-66c-6-16-3-32 6-45 10-13 25-21 41-21h23l50-628c4-47 44-83 91-83h400c46 0 86 36 90 83l50 628h13c16 0 31 8 40 21 10 13 12 29 7 45z m-487 164h163v-56h-163z m318-853c-1-17-15-29-31-29h-400c-17 0-31 12-32 29l-51 623h565z m-583 682l18 54c1 1 2 2 3 2h651c1 0 2-1 3-2l18-54z m0 0m490-680c0 0 1 0 1 0 16 0 29 12 30 28l27 528c1 16-11 30-28 31-16 0-30-12-30-28l-28-528c-1-16 12-30 28-31z m0 0m-316 28c0-16 13-28 29-28 0 0 1 0 1 0 17 1 29 15 28 31l-29 528c-1 16-14 28-31 28-16-1-28-15-27-31z m0 0m173-28c16 0 29 13 29 29v528c0 17-13 30-29 30s-30-13-30-30v-528c0-16 14-29 30-29z m0 0" horiz-adv-x="1000" />

<glyph glyph-name="return" unicode="&#xe838;" d="M891 670l-592 0 49 48c30 30 30 79 0 109-31 31-80 31-111 0l-182-180-55-54 55-55 195-193c16-15 36-23 56-23 20 0 40 8 55 23 30 30 30 79 0 109l-62 61 592 0c158 0 286-127 286-283 0-156-128-227-286-227l-392 0c-43 0-78-35-78-78 0-42 35-77 78-77l392 0c244 0 442 141 442 382 0 241-198 438-442 438z" horiz-adv-x="1333" />

<glyph glyph-name="edit-pencil" unicode="&#xe839;" d="M52 110l203-204-226-55c-17-4-32 11-28 27l0 0 51 232z m570 573l203-204-515-518-203 205 515 517z m140 141c35 35 92 35 127 0l0 0 91-92c27-27 27-71 0-98l0 0-102-102-203 204z" horiz-adv-x="1000" />

<glyph glyph-name="gear" unicode="&#xe83a;" d="M559 850c13 0 25-9 28-22l0 0 28-115c22-7 43-15 63-26l0 0 89 53c12 7 26 5 36-4l0 0 83-83c9-9 11-24 4-36 0 0-36-60-53-89 10-20 19-41 26-63l0 0 115-28c13-3 22-15 22-28l0 0 0-118c0-13-9-25-22-28l0 0-115-28c-7-21-15-42-26-62l0 0 53-87c7-12 5-27-4-36l0 0-83-83c-10-10-24-12-36-5 0 0-58 35-87 53-20-12-42-21-65-28l0 0-28-115c-3-13-15-22-28-22l0 0-118 0c-13 0-25 9-28 22l0 0-28 115c-22 7-43 16-64 27-28-17-85-52-85-52-12-6-26-5-36 5l0 0-83 83c-9 9-11 24-4 36l0 0 51 85c-11 20-20 42-27 64l0 0-115 28c-13 3-22 15-22 28l0 0 0 118c0 13 9 25 22 28l0 0 115 28c6 20 14 39 23 57l0 0-57 95c-7 12-5 27 4 36l0 0 83 83c10 9 24 11 36 4l0 0 92-55c22 11 44 21 67 28 9 35 28 115 28 115 3 13 15 22 28 22l0 0z m-59-295c-113 0-205-92-205-205 0-113 92-205 205-205 113 0 205 92 205 205 0 113-92 205-205 205z" horiz-adv-x="1000" />

<glyph glyph-name="bank-check" unicode="&#xe83b;" d="M1075 49l0-66 66 0 0-67-66 0 0-66-975 0c-55 0-100 45-100 100 0 55 45 99 100 99l975 0z m-807-66l-168 0c-18 0-33-15-33-33 0-19 15-34 33-34l168 0 0 67z m606 0l-540 0 0-67 540 0 0 67z m134 0l-67 0 0-67 67 0 0 67z m133 867l0-518-113-103-109-113-919 0 0 734 1141 0z m-1007-66l-67 0 0-602 67 0 0 602z m941 0l-874 0 0-602 606 0 0 265 268 0 0 337z m-48-403l-153 0 0-152 153 152z m-389-66l0-67-370 0 0 67 370 0z m370 270l0-67-740 0 0 67 740 0z m-370 132l0-66-370 0 0 66 370 0z m370 0l0-66-67 0 0 66 67 0z m-134 0l0-66-67 0 0 66 67 0z" horiz-adv-x="1161" />

<glyph glyph-name="add-user" unicode="&#xe83c;" d="M500 850c147 0 266-119 266-266 0-86-42-164-107-212 20-7 40-15 59-24 19-9 28-32 18-52-9-19-32-28-52-18-54 26-113 40-173 41-4 0-7 0-11 0-3 0-7 0-10 0-199-5-370-147-411-342-2-12 1-24 8-34 4-5 13-13 27-15l5 0 481 0c21 0 39-17 39-39 0-20-16-37-36-39l-3 0-481 0c-36 0-70 16-92 44-23 28-32 64-24 99 23 113 85 215 174 289 49 40 105 70 164 90-65 48-107 126-107 212 0 147 120 266 266 266z m0-78c-103 0-187-84-187-188 0-100 79-182 178-187 3 0 6 0 9 0 3 0 6 0 10 0 99 5 178 87 178 187 0 104-85 188-188 188z m315-551c21 0 39-17 39-39l0 0 0-107 107 0c22 0 39-18 39-39 0-22-17-40-39-40l0 0-107 0 0-107c0-22-18-39-39-39-22 0-40 17-40 39l0 0 0 107-107 0c-22 0-39 18-39 40 0 21 17 39 39 39l0 0 107 0 0 107c0 22 18 39 40 39z" horiz-adv-x="1000" />

<glyph glyph-name="group_people" unicode="&#xe83d;" d="M1194 287l-87 20 0 30c48 27 81 78 81 137l0 112c0 88-74 159-163 159l-18 0c-48 0-91-20-121-53-29 92-116 158-219 158-103 0-190-66-219-158-30 33-73 53-121 53l-18 0c-90 0-163-71-163-159l0-112c0-59 32-110 80-137l0-30-87-20c-82-19-139-90-139-172l0-77c0-14 12-25 26-25l210 0c-1-10-2-21-2-31l0-81-156 0c-14 0-26-12-26-26 0-14 12-25 26-25l1177 0c15 0 26 11 26 25 0 14-11 26-26 26l-156 0 0 81c0 10-1 21-2 31l210 0c15 0 26 11 26 25l0 77c0 82-57 153-139 172z m-298 299c0 60 50 108 111 108l18 0c61 0 110-48 110-108l0-6c-37 0-74 11-105 31-9 5-20 5-29 0-31-20-68-31-105-31l0 6 0 0z m0-92l0 35c42 0 83 11 120 31 36-20 77-31 119-31l0-55c0-60-49-108-110-108l-18 0c-61 0-111 48-111 108l0 20 0 0z m50-292c-11 4-22 7-33 10l-83 19c6 3 13 5 19 6l82 20 15-55z m-22 135l0-30-87-20c-19-5-37-12-53-22l0 37c36 21 65 51 85 87 14-21 33-39 55-52z m-80 157c0-95-80-172-177-172-98 0-177 77-177 172l0 75 28 0 0 0c73 0 143 23 200 64l6-9c24-35 64-55 107-55l13 0 0-75 0 0z m-354 132c0 96 79 173 177 173 97 0 177-77 177-173l0-6-13 0c-26 0-49 12-63 32l-10 14c8 8 15 16 22 25 9 11 8 27-4 36-11 8-27 7-36-4-55-66-135-103-222-103l-28 0 0 6 0 0z m-25-237c19-36 49-66 85-87l0-37c-17 10-35 17-54 22l-87 20 0 30c23 13 42 31 56 52z m38-158l-83-19c-11-3-22-6-32-10l14 55 82-20c7-1 13-3 19-6z m-305 355c0 60 50 108 111 108l18 0c61 0 111-48 111-108l0-6c-38 0-74 11-106 31-9 5-20 5-28 0-32-20-68-31-106-31l0 6 0 0z m0-112l0 55c42 0 83 11 120 31 36-20 77-31 120-31l0-35 0-20c0-60-50-108-111-108l-18 0c-61 0-111 48-111 108z m51-411l-197 0 0 0 0 52c0 58 41 109 99 122l82 19 39-147c-9-14-17-29-23-46z m29 255c10-2 20-3 31-3l18 0c10 0 20 1 30 2l0-27-33-124c-3-3-7-6-11-9l-35 133 0 28z m9-417l0 81c0 62 30 117 79 151l238-232-317 0z m128 257c5 2 11 3 17 5l125 29 61-233-203 199z m187 67l0 55c20-6 42-9 65-9 22 0 44 3 65 9l0-55-65-247-65 247z m175-34l124-28c6-2 12-4 18-6l-203-198 61 232z m270-290l-317 0 238 232c48-34 79-90 79-151l0-81z m8 389l0 0-35-133c-3 3-7 6-11 9l-33 124 0 27c10-1 20-2 31-2l18 0c10 0 20 1 30 3l0-28z m226-227l-197 0c-6 16-13 32-23 46l39 147 82-19c58-13 99-64 99-122l0-52 0 0z" horiz-adv-x="1333" />

<glyph glyph-name="share" unicode="&#xe83e;" d="M786 279c-71 0-134-35-173-89l-195 98c6 20 11 40 11 62 0 22-5 42-11 62l195 98c39-54 102-89 173-89 118 0 214 97 214 215 0 118-96 214-214 214-118 0-215-96-215-214 0-22 5-43 11-62l-195-98c-39 53-102 88-173 88-118 0-214-96-214-214 0-118 96-214 214-214 71 0 134 35 173 88l195-98c-6-19-11-40-11-62 0-118 97-214 215-214 118 0 214 96 214 214 0 118-96 215-214 215z m0 500c79 0 143-64 143-143 0-79-64-143-143-143-79 0-143 64-143 143 0 79 64 143 143 143z m-572-572c-78 0-143 64-143 143 0 79 65 143 143 143 79 0 143-64 143-143 0-79-64-143-143-143z m572-286c-79 0-143 64-143 143 0 79 64 143 143 143 79 0 143-64 143-143 0-79-64-143-143-143z" horiz-adv-x="1000" />

<glyph glyph-name="attachment" unicode="&#xe83f;" d="M893 184l-381 380c-26 28-59 41-97 41-36 0-66-12-91-37-25-25-37-55-37-91 0-38 13-71 41-98l268-268c5-4 9-6 15-6 7 0 17 6 30 20 14 13 21 24 21 31 0 5-2 10-7 14l-268 268c-11 12-17 25-17 39 0 13 5 23 13 31 8 9 19 13 31 13 15 0 28-5 40-16l380-380c27-28 41-59 41-95 0-28-9-51-27-69-19-19-42-28-70-28-35 0-67 14-95 41l-508 509c-33 33-49 73-49 118 0 47 15 86 47 119 32 33 71 49 118 49 44 0 84-17 118-51l397-397c4-4 9-6 15-6 7 0 17 6 30 20 14 13 20 23 20 30 0 5-2 10-6 14l-396 397c-51 49-110 74-179 74-70 0-128-24-176-73-48-48-72-107-72-176 0-68 24-127 74-178l508-508c44-43 95-65 154-65 51 0 94 17 129 52 34 34 51 77 51 128 0 60-21 111-65 154z" horiz-adv-x="1000" />

<glyph glyph-name="file" unicode="&#xe840;" d="M800 553c-9 21-19 37-31 50l-198 203c-12 12-28 22-48 31-20 9-39 13-56 13l-406 0c-17 0-31-6-43-18-12-12-18-27-18-44l0-876c0-17 6-32 18-44 12-12 26-18 43-18l691 0c17 0 31 6 43 18 12 12 18 27 18 44l0 584c0 17-5 36-13 57z m-312 209c12-5 21-10 26-15l198-204c5-5 10-14 14-26l-238 0 0 245z m243-829l-650 0 0 834 325 0 0-271c0-17 6-32 18-44 12-13 26-19 43-19l264 0 0-500 0 0z" horiz-adv-x="813" />

<glyph glyph-name="information" unicode="&#xe841;" d="M471 846c260 0 470-211 470-471 0-260-210-470-470-470-260 0-471 210-471 470 0 260 211 471 471 471z m0-74c-220 0-397-177-397-397 0-219 177-397 397-397 219 0 397 178 397 397 0 220-178 397-397 397z m0-576c25 0 46-21 46-46 0-25-21-46-46-46-26 0-46 21-46 46 0 25 20 46 46 46z m0 414c81 0 147-66 147-147 0-69-47-126-111-143l0 0 0-60c0-20-16-36-36-36-21 0-37 16-37 36l0 0 0 92c0 21 16 37 37 37 40 0 73 33 73 74 0 40-33 73-73 73-41 0-74-33-74-73 0-21-16-37-37-37-20 0-36 16-36 37 0 81 66 147 147 147z" horiz-adv-x="941" />

<glyph glyph-name="list" unicode="&#xe842;" d="M579 846l127-124 0-817-706 0 0 941 579 0z m-9-735c-28 0-50-22-50-49 0-28 22-50 50-50 29 0 51 22 51 50 0 27-22 49-51 49z m-67 0l-441 0 0-99 441 0 0 99z m67 124c-28 0-50-22-50-50 0-27 22-49 50-49 29 0 51 22 51 49 0 28-22 50-51 50z m-67 0l-441 0 0-99 441 0 0 99z m72 121c-28 0-51-22-51-49 0-27 23-50 51-50 28 0 51 23 51 50 0 27-23 49-51 49z m-72 3l-441 0 0-99 441 0 0 99z m72 123c-28 0-51-22-51-49 0-28 23-50 51-50 28 0 51 22 51 50 0 27-23 49-51 49z m-72 1l-441 0 0-99 441 0 0 99z m97-23c0 0 1 0 1-1l0 0 9-7c0 0 0-1 0-2l0 0-43-46c0 0-1 0-1 0 0 0-1 0-1 1l0 0-21 26c-1 0-1 1 0 2l0 0 9 6c1 1 1 1 1 1 1 0 1-1 1-1l0 0 12-14 32 34c0 1 0 1 1 1z m-30 146c-28 0-50-22-50-49 0-27 22-50 50-50 29 0 51 23 51 50 0 27-22 49-51 49z m-67 0l-441 0 0-99 441 0 0 99z m0 124l-441 0 0-99 441 0 0 99z m67 0c-28 0-50-22-50-49 0-28 22-50 50-50 29 0 51 22 51 50 0 27-22 49-51 49z" horiz-adv-x="706" />

<glyph glyph-name="article" unicode="&#xe843;" d="M473 700l0-78 76 0-76 78z m-30 104c8 0 16-3 21-9 1 0 176-182 177-183 5-5 8-13 8-21l0-3c-1-49-2-670-2-671 0-14-11-27-24-29l-6-1-588 0c-14 0-26 11-28 25l-1 6 0 856c0 14 10 27 24 29l5 1 414 0z m411-2c80 0 146-68 146-152l0 0 0-551c0-12 2-6-122-198-12-18-37-18-49 0-114 178-122 186-122 195l0 554c0 84 66 152 147 152z m-440-59l-355 0 0-795 529 0 2 613-147 0c-14 0-26 11-28 25l-1 5 0 152z m502-674l-125 0 63-97 62 97z m-767 2l353 0c16 0 29-13 29-30 0-15-10-27-24-30l-5 0-353 0c-17 0-30 13-30 30 0 15 11 27 24 30l6 0 353 0-353 0z m792 488l-58 0 0-429 58 0 0 429z m-117 0l-58 0 0-429 58 0 0 429z m-322-366c16 0 29-14 29-31 0-14-10-27-24-29l-5-1-353 0c-17 0-30 14-30 30 0 15 11 28 24 30l6 1 353 0z m0 121c16 0 29-13 29-30 0-15-10-27-24-30l-5 0-353 0c-17 0-30 13-30 30 0 15 11 27 24 30l6 0 353 0z m0 122c16 0 29-14 29-31 0-15-10-27-24-30l-5 0-353 0c-17 0-30 14-30 30 0 15 11 28 24 30l6 1 353 0z m352 305c-49 0-88-41-88-91l0 0 0-30 175 0 0 30c0 50-39 91-87 91z" horiz-adv-x="1000" />

<glyph glyph-name="covid_19" unicode="&#xe844;" d="M933 417c-24 0-45-13-57-34l-112 0c-6 48-24 93-54 130l79 79c29-8 60 5 75 31 15 26 11 59-10 81-22 21-55 25-81 10-26-15-39-46-31-75l-79-79c-37 30-82 48-130 54l0 112c26 15 39 46 31 75-7 29-34 49-64 49-30 0-57-20-64-49-8-29 5-60 31-75l0-112c-48-6-93-24-130-54l-79 79c8 29-5 60-31 75-26 15-59 11-81-10-21-22-25-55-10-81 15-26 46-39 75-31l79-79c-30-37-48-82-54-130l-112 0c-15 26-45 39-75 31-29-7-49-34-49-64 0-30 20-57 49-64 30-8 60 5 75 31l112 0c6-48 24-93 54-130l-79-79c-29 8-60-5-75-31-15-26-11-59 10-81 22-21 55-25 81-10 26 15 39 46 31 75l79 79c37-30 82-48 130-54l0-112c-26-15-39-46-31-75 7-29 34-49 64-49 30 0 57 20 64 49 8 29-5 60-31 75l0 112c48 6 93 24 130 54l79-79c-8-29 5-60 31-75 26-15 59-11 81 10 21 22 25 55 10 81-15 26-46 39-75 31l-79 79c30 37 48 82 54 130l112 0c16-28 50-41 80-30 31 12 49 43 43 75-6 32-34 55-66 55z m-433 100c55 0 100-45 100-100 0-56-45-100-100-100-55 0-100 44-100 100 0 55 45 100 100 100l0 0z m-100-300c-18 0-33 15-33 33 0 19 15 33 33 33 19 0 33-14 33-33 0-18-14-33-33-33z m200 0c-18 0-33 15-33 33 0 19 15 33 33 33 18 0 33-14 33-33 0-18-15-33-33-33z" horiz-adv-x="1000" />

<glyph glyph-name="covid_19_new" unicode="&#xe845;" d="M611 300m261-135m-261 135m113-69l-1 1c-3 1-4 4-3 6l3 9c1 2 4 4 7 3l1-1c2-1 4-4 3-6l-4-9c-1-2-4-4-6-3z m61-328c-124 0-240 48-328 136-88 87-136 204-136 328s48 240 136 328c88 87 204 136 328 136 124 0 240-49 328-136 88-88 136-205 136-328s-48-241-136-328-204-136-328-136z m0 921c-122 0-237-48-323-134s-134-201-134-323c0-123 47-237 134-324 86-86 201-134 323-134s237 48 323 134c87 87 134 201 134 324 0 122-47 237-134 323-86 86-201 134-323 134z m0 3c-254 0-461-206-461-460s207-461 461-461 461 206 461 461-207 460-461 460z m215-504h-146v-151h-137v151h-147v128h147v151h137v-151h146v-128z" horiz-adv-x="1647" />

<glyph glyph-name="firstaid-plus-old" unicode="&#xe846;" d="M898 151m482-250m-482 250m207-128l-1 1c-5 2-8 8-6 12l6 16c2 5 8 7 13 5l1 0c5-2 8-8 6-13l-6-15c-2-5-8-8-13-6z m-211 200h-269v-278h-255v278h-271v237h271v279h255v-279h269v-237z" horiz-adv-x="1015" />

<glyph glyph-name="firstaid-plus" unicode="&#xe847;" d="M647 497v296h-294v-296h-296v-295h296v-295h295v296h295v294h-296z" horiz-adv-x="1000" />

<glyph glyph-name="home-2" unicode="&#xe848;" d="M355 698l252-267 0-33-84 0c-72 0-98-55-118-110l-58-137c-4-5-6-10-8-15l-219 0c-9 0-16 6-17 14l0 2 0 279 252 267z m24 144l2-2 321-338c16-16 16-42 0-58-15-16-39-17-56-3l-3 3-286 303-286-303c-8-9-19-13-29-13-11 0-22 4-30 13-15 15-16 39-2 56l2 2 321 338c0 0 1 0 1 1 13 12 32 12 45 1z m621-759c0 12-3 24-8 35-1 3-1 6-2 8l-56 136 0 2c-20 57-47 110-118 110l-269 0c-73 0-98-54-118-110l-59-136c-8-14-13-29-13-45l0-42c0-7 1-13 2-20-1-3-2-7-2-12l0-126c0-18 15-33 34-33l71 0c19 0 34 15 34 33l0 63 370 0 0-63c0-18 15-33 34-33l66 0c19 0 34 15 34 33l0 126c0 5-1 9-2 12 1 7 2 13 2 20l0 42 0 0 0 0z m-530 167c23 62 40 81 77 81l269 0c36 0 56-21 76-80l41-82c-13 5-28 8-43 8l-422 0c-14 0-28-2-40-6l42 79z m35-226l-74 0c-14 0-24 11-24 24 0 14 10 24 24 24l74 0c14 0 25-10 25-24 0-13-11-24-25-24z m263 5l-173 0c-8 0-15 7-15 15 0 9 7 15 15 15l173 0c9 0 16-6 16-15 0-8-7-15-16-15z m157-5l-75 0c-13 0-24 11-24 24 0 14 11 24 24 24l75 0c13 0 24-10 24-24 0-13-11-24-24-24z" horiz-adv-x="1000" />

<glyph glyph-name="professional-services-2-old" unicode="&#xe849;" d="M538 440l58-408c1-6-1-12-5-16l0 0-134-134c-7-8-19-8-26 0l0 0-133 134c-4 4-6 10-5 16l0 0 67 408 178 0z m247 363l72-94c8-10 7-25-2-35l0 0-154-173c-11-12-30-12-41 0l0 0-168 174 293 128z m-682 0l294-128-168-174c-11-12-30-11-41 1l0 0-154 172c-9 10-10 25-2 35l0 0 71 94z m342-158l104-109-18-41-164 0-25 44 103 106z m248 179l-248-109-250 109 498 0z" horiz-adv-x="895" />

<glyph glyph-name="covid-2" unicode="&#xe84a;" d="M639 850l0-361 361 0 0-278-361 0 0-361-278 0 0 361-361 0 0 278 361 0 0 361 278 0z" horiz-adv-x="1000" />

<glyph glyph-name="entertainment-2" unicode="&#xe84b;" d="M971-23c16 0 29-9 29-20l0 0 0-87c0-11-13-20-29-20l0 0-942 0c-16 0-29 9-29 20l0 0 0 87c0 11 13 20 29 20l0 0z m-221 281c14 0 34-15 42-22 6-6 16-14 26-21 39-25 75-26 117 2 7 4 12 9 16 12l0 0 0-193-902 0 0 193c4-3 9-8 16-12 41-28 77-28 117-2 10 6 20 14 26 21 8 7 28 22 42 22 14 0 34-15 42-22 4-4 41-40 83-40 42 0 79 36 83 40 8 7 28 22 42 22 14 0 34-15 42-22 4-4 41-40 83-40 42 0 79 36 83 40 8 7 28 22 42 22z m113 184c49 0 88-40 88-88l0 0 0-51c-19-11-32-24-34-26-9-9-29-23-42-23-13 0-33 14-42 23-4 4-41 40-83 40-42 0-79-36-83-40-8-7-28-23-42-23-14 0-34 16-42 23-4 4-41 40-83 40-42 0-79-36-83-40-8-7-28-23-42-23-14 0-34 16-42 23-4 4-41 40-83 40-42 0-79-36-83-40-10-9-31-24-45-22-12 1-30 13-39 22-2 2-15 15-34 26l0 0 0 51c0 48 39 88 88 88l0 0z m-300 172c16 0 29-13 29-30l0 0 0-84-184 0 0 84c0 17 13 30 30 30l0 0z m-42 227l45-46c50-50 33-146-66-146-100 0-116 97-65 147l44 45c12 12 31 12 42 0z" horiz-adv-x="1000" />

<glyph glyph-name="professional-services-2" unicode="&#xe84c;" d="M306 116l358-139 0-19c0-9-3-17-10-23-64-55-124-84-179-85-87-2-185 70-190 85-3 10 4 70 21 181z m16 74l320-139 4-21-327 141 3 19z m273 138l38-212-303 116 6 96 259 0z m-139 299c50 1 86-23 119-59 43-47 50-121 20-220l-259 0c-36 99-33 173 10 220 32 34 63 58 110 59z m461 171l-170-434-283 375c68 0 141 5 219 16 78 11 156 25 234 43z m-917 8c65-18 137-34 215-45 78-11 157-19 236-24l-281-370-170 439z m638 38c74-5 159-17 255-34-136-2-279-4-429-4-150 0-302 2-456 4 107 17 190 29 250 34 90 8 268 8 380 0z" horiz-adv-x="917" />
</font>
</defs>
</svg>
