<svg xmlns="http://www.w3.org/2000/svg" width="13" height="12" viewBox="0 0 13 12">
    <g fill="none" fill-rule="evenodd">
        <path fill="#FFF" d="M5.966.267A.5.5 0 0 1 6.411 0c.189 0 .362.103.445.267l1.596 3.118a.496.496 0 0 0 .374.262l3.57.5a.491.491 0 0 1 .4.326.467.467 0 0 1-.125.49L10.088 7.39a.468.468 0 0 0-.143.423l.61 3.428a.471.471 0 0 1-.198.468.514.514 0 0 1-.523.037l-3.193-1.619a.512.512 0 0 0-.462 0l-3.193 1.619a.513.513 0 0 1-.522-.037.47.47 0 0 1-.198-.468l.61-3.428a.468.468 0 0 0-.143-.423L.15 4.963a.467.467 0 0 1-.126-.49.492.492 0 0 1 .401-.326l3.57-.5a.495.495 0 0 0 .374-.262L5.966.267z" opacity=".3"/>
        <path fill="#E6854A" d="M6 10.434l-2.972 1.51a.519.519 0 0 1-.53-.037.48.48 0 0 1-.2-.476l.618-3.485a.476.476 0 0 0-.145-.431L.152 5.046a.475.475 0 0 1-.127-.498.499.499 0 0 1 .406-.331l3.62-.509a.502.502 0 0 0 .38-.266L6 .368v10.066z"/>
    </g>
</svg>
