<svg xmlns="http://www.w3.org/2000/svg" width="13" height="12" viewBox="0 0 13 12">
    <path fill="#E6854A" fill-rule="evenodd" d="M5.966.267A.5.5 0 0 1 6.411 0c.189 0 .362.103.445.267l1.596 3.118a.496.496 0 0 0 .374.262l3.57.5a.491.491 0 0 1 .4.326.467.467 0 0 1-.125.49L10.088 7.39a.468.468 0 0 0-.143.423l.61 3.428a.471.471 0 0 1-.198.468.514.514 0 0 1-.523.037l-3.193-1.619a.512.512 0 0 0-.462 0l-3.193 1.619a.513.513 0 0 1-.522-.037.47.47 0 0 1-.198-.468l.61-3.428a.468.468 0 0 0-.143-.423L.15 4.963a.467.467 0 0 1-.126-.49.492.492 0 0 1 .401-.326l3.57-.5a.495.495 0 0 0 .374-.262L5.966.267z"/>
</svg>
