<svg id="Layer_1" data-name="Layer 1" xmlns="http://www.w3.org/2000/svg" viewBox="0 0 164.55 121.59"><defs><style>.cls-1{fill:#fff;}.cls-2{fill:#12477b;}.cls-3{fill:#32c1d8;}.cls-4{fill:#e58549;}</style></defs><ellipse class="cls-1" cx="88.29" cy="69.23" rx="59.29" ry="80.78" transform="translate(11.72 148.03) rotate(-89.14)"/><path class="cls-2" d="M89.07,130h-1.7c-21.89-.33-42.39-6.91-57.73-18.53S5.77,84.32,6,68C6.52,34.48,43.79,7.77,89.2,8.45c21.89.33,42.4,6.91,57.74,18.53s23.86,27.17,23.62,43.49C170.06,103.57,133.66,130,89.07,130ZM87.5,11.44c-43,0-78,25.14-78.48,56.6C8.78,83.38,16.75,98,31.45,109.1s34.71,17.6,56,17.92h1.66c43,0,78-25.15,78.48-56.6.23-15.35-7.74-29.93-22.43-41.06-14.84-11.23-34.71-17.6-56-17.92Z" transform="translate(-6.01 -8.44)"/><path class="cls-3" d="M28.74,42.75l5.59.08L34,65.31l-5.6-.09Z" transform="translate(-6.01 -8.44)"/><path class="cls-3" d="M46,43,52,43.1l3.23,14.08,4.88-14,6,.09L70.6,57.42l3.64-14,6.05.1L73.45,65.9l-5.63-.08L63,51.51,57.81,65.67l-5.62-.09Z" transform="translate(-6.01 -8.44)"/><path class="cls-3" d="M95.88,63,87,62.83l-1.36,3.25L79.34,66l9.24-22.34,6.28.1,8.56,22.6-6.29-.09Zm-1.67-4.41-2.61-7-2.82,6.86Z" transform="translate(-6.01 -8.44)"/><path class="cls-3" d="M106.18,43.92l5.59.08,9.58,13.43.2-13.28,5.59.08-.33,22.47-5.6-.08-9.58-13.43-.2,13.28-5.59-.08Z" transform="translate(-6.01 -8.44)"/><path class="cls-3" d="M137,49.39l-6.83-.11.07-5,19.24.29-.08,5-6.8-.1-.26,17.47-5.6-.09Z" transform="translate(-6.01 -8.44)"/><path class="cls-3" d="M24.5,75.74l-6.84-.1.07-5L37,70.92l-.08,5-6.8-.11-.27,17.47-5.59-.08Z" transform="translate(-6.01 -8.44)"/><path class="cls-3" d="M37.91,82.16c.1-6.32,5.71-11.53,12.25-11.43s12,5.48,11.93,11.79S56.38,94.08,49.81,94,37.82,88.47,37.91,82.16Zm18.42.27a6.35,6.35,0,1,0-6.45,6.48A6.54,6.54,0,0,0,56.33,82.43Z" transform="translate(-6.01 -8.44)"/><path class="cls-3" d="M94.94,71.79,94.6,94.27,89,94.18l.13-9L80,85.08l-.13,9L74.22,94l.34-22.47,5.59.08L80,80.08l9.19.13.13-8.5Z" transform="translate(-6.01 -8.44)"/><path class="cls-3" d="M104.65,77l-.06,3.5,11,.16-.07,5-11-.17-.06,4,12.1.18-.07,5-17.7-.27.34-22.47,17.7.26-.08,5Z" transform="translate(-6.01 -8.44)"/><path class="cls-3" d="M136.32,89.89l-.07,5-16.39-.24.34-22.48,5.56.09-.27,17.47Z" transform="translate(-6.01 -8.44)"/><path class="cls-3" d="M139.53,72.46l10.44.16c4.94.08,8.49,3.3,8.42,7.85s-3.72,7.67-8.66,7.59L144.89,88l-.1,7-5.6-.08ZM149.29,83c1.93,0,3.32-1,3.34-2.57s-1.33-2.63-3.26-2.66l-4.32-.07L145,82.89Z" transform="translate(-6.01 -8.44)"/><path class="cls-4" d="M-12.16,51.9" transform="translate(-6.01 -8.44)"/></svg>