<svg id="Layer_1" data-name="Layer 1" xmlns="http://www.w3.org/2000/svg" viewBox="0 0 164.55 121.59"><defs><style>.cls-1{fill:#bacf3f;}.cls-2{fill:#12477b;}.cls-3{fill:#fff;}</style></defs><ellipse class="cls-1" cx="89.06" cy="75" rx="59.29" ry="80.78" transform="translate(5.94 148.71) rotate(-89.14)"/><path class="cls-2" d="M89.84,135.79h-1.7c-21.89-.33-42.4-6.91-57.74-18.53S6.54,90.08,6.78,73.76,15.88,42.25,31.7,31,68.06,13.9,90,14.22s42.4,6.91,57.74,18.53,23.86,27.17,23.62,43.49C170.83,109.33,134.43,135.79,89.84,135.79ZM88.25,17.21c-20.64,0-40,5.73-54.81,16.23-15,10.69-23.42,25-23.66,40.37s7.74,29.92,22.44,41.05,34.71,17.6,56,17.92h1.67c43,0,78-25.14,78.48-56.6.23-15.34-7.74-29.92-22.44-41s-34.71-17.6-56-17.92Z" transform="translate(-6.78 -14.21)"/><path class="cls-3" d="M35.93,48.61l5.6.09-.34,22.47-5.6-.08Z" transform="translate(-6.78 -14.21)"/><path class="cls-3" d="M75.19,49.2l-.34,22.48-5.6-.09.14-9-9.19-.14-.14,9-5.59-.08.34-22.47L60.4,49l-.13,8.51,9.19.13.13-8.5Z" transform="translate(-6.78 -14.21)"/><path class="cls-3" d="M93.71,68.69l-8.9-.14-1.36,3.26-6.28-.1,9.24-22.34,6.28.1,8.56,22.6L95,72ZM92,64.28l-2.61-6.94L86.61,64.2Z" transform="translate(-6.78 -14.21)"/><path class="cls-3" d="M123.31,49.93l-9.24,22.34-6.28-.1-8.56-22.6,6.29.09,5.53,14.64,6-14.47Z" transform="translate(-6.78 -14.21)"/><path class="cls-3" d="M131.15,55.05l-.05,3.5,11,.17-.07,5-11-.16-.06,4,12.1.18-.08,5-17.69-.26L125.64,50l17.69.27-.07,5Z" transform="translate(-6.78 -14.21)"/><path class="cls-3" d="M42.19,96l-8.9-.13-1.36,3.25L25.65,99l9.24-22.34,6.28.1,8.56,22.61-6.28-.1Zm-1.67-4.41-2.61-6.94-2.82,6.86Z" transform="translate(-6.78 -14.21)"/><path class="cls-3" d="M61.52,77.05l5.59.08,9.58,13.43.2-13.28,5.59.08-.33,22.47-5.6-.08L67,86.32l-.2,13.28-5.59-.08Z" transform="translate(-6.78 -14.21)"/><path class="cls-3" d="M92.29,82.52,92.24,86l11,.16-.08,5-11-.16-.06,4,12.11.18-.08,5-17.7-.27.34-22.47,17.7.26-.08,5Z" transform="translate(-6.78 -14.21)"/><path class="cls-3" d="M113.43,82.83l-.06,3.5,11,.17-.07,5-11-.16-.06,4,12.1.18-.07,5-17.7-.26.34-22.48L125.6,78l-.07,5Z" transform="translate(-6.78 -14.21)"/><path class="cls-3" d="M129.14,78.06l8.21.13c7.72.11,13.08,4.84,13,11.42s-5.6,11.17-13.32,11l-8.21-.12Zm8.8,17.54c3.83.06,6.61-2.48,6.67-6.08s-2.66-6.19-6.49-6.25l-3.46,0-.19,12.33Z" transform="translate(-6.78 -14.21)"/></svg>