<?xml version="1.0" encoding="UTF-8"?>
<svg width="36px" height="22px" viewBox="0 0 36 22" version="1.1" xmlns="http://www.w3.org/2000/svg" xmlns:xlink="http://www.w3.org/1999/xlink">
    <!-- Generator: sketchtool 56 (101010) - https://sketch.com -->
    <title>0D9BA6A9-DD03-45D1-BF7F-31D11B8F97A8</title>
    <desc>Created with sketchtool.</desc>
    <g id="4.-Pinner-Interface" stroke="none" stroke-width="1" fill="none" fill-rule="evenodd">
        <g id="1.-Settings-_-01" transform="translate(-475.000000, -1221.000000)">
            <g id="Bank" transform="translate(475.000000, 1221.000000)">
                <rect id="Rectangle" fill="#364A53" x="0" y="0" width="36" height="22" rx="1"></rect>
                <g id="bank-building" transform="translate(11.000000, 4.000000)" fill="#FFFFFF" fill-rule="nonzero">
                    <path d="M13.3580851,12.7245106 C13.7089787,12.7245106 13.9937447,13.0092766 13.9940426,13.3610638 C13.9940426,13.7122553 13.7092766,13.9970213 13.3577872,13.9970213 L0.636255319,13.9970213 C0.284765957,13.9970213 -1.74145332e-12,13.7122553 -1.74145332e-12,13.3610638 C-1.74145332e-12,13.0092766 0.284765957,12.7245106 0.636255319,12.7245106 L13.3580851,12.7245106 Z M1.4312766,11.0704255 L1.4312766,11.0701277 L1.59034043,11.0701277 L1.59034043,5.34531915 L1.4312766,5.34531915 C1.25582979,5.34531915 1.11344681,5.20293617 1.11344681,5.02748936 C1.11344681,4.85204255 1.25553191,4.70965957 1.4312766,4.70965957 L12.562766,4.70965957 C12.7382128,4.70965957 12.8805957,4.85204255 12.8805957,5.02748936 C12.8805957,5.20293617 12.7388085,5.34531915 12.562766,5.34531915 L12.404,5.34531915 L12.404,11.0704255 L12.562766,11.0704255 C12.9142553,11.0704255 13.1990213,11.3551915 13.1990213,11.7066809 C13.1990213,12.0581702 12.9142553,12.343234 12.562766,12.343234 L1.4312766,12.343234 C1.07978723,12.343234 0.795021277,12.0581702 0.795021277,11.7066809 C0.795021277,11.3551915 1.07978723,11.0704255 1.4312766,11.0704255 Z M11.1314894,5.34531915 L9.22331915,5.34531915 L9.22331915,11.0701277 L11.1314894,11.0701277 L11.1314894,5.34531915 Z M7.95080851,5.34531915 L6.0426383,5.34531915 L6.0426383,11.0701277 L7.95080851,11.0701277 L7.95080851,5.34531915 Z M2.86225532,5.34531915 L2.86225532,11.0701277 L4.77042553,11.0701277 L4.77042553,5.34531915 L2.86225532,5.34531915 Z M0.636255319,4.13774468 C0.336297872,4.13774468 0.0771489362,3.92834043 0.0142978723,3.63523404 C-0.0488510638,3.34212766 0.101574468,3.04485106 0.375319149,2.92153191 L6.73668085,0.0592765957 C6.90289362,-0.0151914894 7.0926383,-0.0151914894 7.25855319,0.0592765957 L13.5704681,2.89948936 C13.820383,2.9852766 14.0002979,3.22208511 14.0002979,3.50148936 C14.0002979,3.85297872 13.7158298,4.13774468 13.3640426,4.13774468 C13.3622553,4.13774468 13.3598723,4.13774468 13.3577872,4.13774468 L0.636255319,4.13774468 Z" id="Combined-Shape"></path>
                </g>
            </g>
        </g>
    </g>
</svg>