<?xml version="1.0" encoding="UTF-8"?>
<svg width="24px" height="18px" viewBox="0 0 24 18" version="1.1" xmlns="http://www.w3.org/2000/svg" xmlns:xlink="http://www.w3.org/1999/xlink">
    <!-- Generator: sketchtool 56 (101010) - https://sketch.com -->
    <title>B8195B9F-4BD8-4E72-95F6-0F16E2F20673</title>
    <desc>Created with sketchtool.</desc>
    <defs>
        <path d="M11.4632937,2.58802321 C10.6256001,3.85274671 10.137758,5.36940253 10.137758,7 C10.137758,9.07229246 10.9256884,10.9605539 12.2183041,12.3815391 C11.6852642,13.1901977 11.1241701,14.1816678 10.5383882,15.3543142 C10.2916827,15.8481811 9.63073431,15.9496517 9.24724251,15.5525343 L6.41447399,12.6191166 L1.35884747,17.5546769 C1.04269646,17.8633197 0.536201046,17.857233 0.227558308,17.541082 C-0.081084429,17.224931 -0.074997766,16.7184356 0.241153251,16.4097928 L5.30300418,11.4681559 L2.30065881,8.3591363 C1.89870665,7.94290266 2.05794433,7.25079118 2.60138269,7.05206843 C4.85248796,6.2288917 6.41534676,5.38559437 7.27718657,4.55332534 C8.08218334,3.775949 8.50442556,2.78041953 8.55072992,1.52206612 C8.57666544,0.817250467 9.43572323,0.488412487 9.92566069,0.995757577 L11.4632937,2.58802321 Z M18,13 C14.6862915,13 12,10.3137085 12,7 C12,3.6862915 14.6862915,1 18,1 C21.3137085,1 24,3.6862915 24,7 C24,10.3137085 21.3137085,13 18,13 Z M18.6357615,6.3642385 L18.6357615,4.6357615 C18.6357615,4.28464012 18.3511214,4 18,4 C17.6488786,4 17.3642385,4.28464012 17.3642385,4.6357615 L17.3642385,6.3642385 L15.6357615,6.3642385 C15.2846401,6.3642385 15,6.64887862 15,7 C15,7.35112138 15.2846401,7.6357615 15.6357615,7.6357615 L17.3642385,7.6357615 L17.3642385,9.3642385 C17.3642385,9.71535988 17.6488786,10 18,10 C18.3511214,10 18.6357615,9.71535988 18.6357615,9.3642385 L18.6357615,7.6357615 L20.3642385,7.6357615 C20.7153599,7.6357615 21,7.35112138 21,7 C21,6.64887862 20.7153599,6.3642385 20.3642385,6.3642385 L18.6357615,6.3642385 Z" id="path-1"></path>
    </defs>
    <g id="7.-My-Profile" stroke="none" stroke-width="1" fill="none" fill-rule="evenodd">
        <g id="3.-My-Profile-_-01-(Doer)-Pinner-View" transform="translate(-1232.000000, -69.000000)">
            <g id="Element-/-Header-Doer">
                <g id="Right" transform="translate(1232.000000, 55.000000)">
                    <g id="Icon-/-Standard-/-Mail-Copy-2" transform="translate(0.000000, 11.000000)">
                        <g id="Icon-/-Arrow" transform="translate(0.000000, 3.000000)">
                            <mask id="mask-2" fill="white">
                                <use xlink:href="#path-1"></use>
                            </mask>
                            <use id="Mask" fill="#FFFFFF" fill-rule="nonzero" xlink:href="#path-1"></use>
                            <g id="Color-/-Spring-Green" mask="url(#mask-2)" fill="#BAD141">
                                <g transform="translate(0.000000, -3.000000)">
                                    <rect x="0" y="0" width="24" height="24"></rect>
                                </g>
                            </g>
                        </g>
                    </g>
                </g>
            </g>
        </g>
    </g>
</svg>