<?xml version='1.0' encoding='utf-8'?>
<!DOCTYPE svg PUBLIC '-//W3C//DTD SVG 1.1//EN' 'http://www.w3.org/Graphics/SVG/1.1/DTD/svg11.dtd'>
<svg version="1.1" xmlns="http://www.w3.org/2000/svg" viewBox="0 0 512 512" xmlns:xlink="http://www.w3.org/1999/xlink" enable-background="new 0 0 512 512">
  <g>
    <path fill="#899db1" d="m497,173.8c-3.8-5.2-9.9-8.3-16.4-8.3h-61.4v-42.5c0-11.3-9.1-20.4-20.4-20.4h-181.3l-29.1-53c-3.6-6.5-10.4-10.6-17.9-10.6h-139.1c-11.3,0.1-20.4,9.2-20.4,20.5v393c0,11.3 9.1,20.4 20.4,20.4 0,0 368.1,0 368.4-0.1 8.5-0.3 16.3-5.9 18.9-14.4l81.4-266.6c1.9-6.1 0.7-12.8-3.1-18zm-118.6,258.3h-326.6v-352.2h106.6l29.1,53c3.6,6.5 10.4,10.6 17.9,10.6h173v288.6zm40.8-115.2v-110.5h33.8l-33.8,110.5z"/>
  </g>
</svg>
