<?xml version="1.0" encoding="UTF-8"?>
<svg width="36px" height="22px" viewBox="0 0 36 22" version="1.1" xmlns="http://www.w3.org/2000/svg" xmlns:xlink="http://www.w3.org/1999/xlink">
    <!-- Generator: sketchtool 56 (101010) - https://sketch.com -->
    <title>8508594B-02C7-4C6A-B881-B15E5DB41D94</title>
    <desc>Created with sketchtool.</desc>
    <g id="4.-Pinner-Interface" stroke="none" stroke-width="1" fill="none" fill-rule="evenodd">
        <g id="1.-Settings-_-01" transform="translate(-475.000000, -1150.000000)" fill="#364A53" fill-rule="nonzero">
            <g id="002-mastercard" transform="translate(475.000000, 1150.000000)">
                <path d="M10.7137368,9.73326316 C11.0298421,9.73326316 11.9405263,9.76684211 11.9411053,10.8118421 L11.5902632,13.2723684 L10.8034737,13.2723684 L10.833,12.9307895 C10.8191053,12.9319474 10.547,13.3406842 9.91652632,13.3406842 C9.58594737,13.3406842 9.05389474,13.1617895 9.05389474,12.3778947 C9.05389474,11.3826842 9.86557895,11.0538421 10.6384737,11.0538421 C10.7600526,11.0538421 11.0223158,11.0752632 11.0223158,11.0752632 C11.0223158,11.0752632 11.0518421,11.0144737 11.0518421,10.8500526 C11.0518421,10.5796842 10.8086842,10.5426316 10.4757895,10.5426316 C9.88931579,10.5426316 9.502,10.7001053 9.502,10.7001053 L9.63168421,9.93010526 C9.63168421,9.93010526 10.1012105,9.73326316 10.7137368,9.73326316 Z M10.2725789,12.5921053 C10.811,12.5921053 10.9221579,11.8875263 10.9047895,11.737 C10.8793158,11.7323684 10.8631053,11.7167368 10.7102632,11.7161579 C10.0554737,11.7161579 9.92289474,12.0102632 9.92289474,12.2545789 C9.92289474,12.3807895 9.99526316,12.5921053 10.2725789,12.5921053 Z M13.5552105,10.5582632 C13.2367895,10.5582632 13.0636842,10.6277368 13.0636842,10.8500526 C13.0636842,11.2964211 14.1283684,11.077 14.1283684,12.1874211 C14.1283684,13.3748421 12.978,13.3227368 12.7771053,13.3227368 C12.0273684,13.3227368 11.7957895,13.2196842 11.7743684,13.2138947 L11.8936316,12.4317368 C11.8947895,12.4259474 12.2699474,12.5683684 12.6873684,12.5683684 C12.9282105,12.5683684 13.2408421,12.5446316 13.2408421,12.2574737 C13.2408421,11.8255789 12.1223158,11.9297895 12.1223158,10.9062105 C12.1223158,10.0036316 12.7927368,9.73963158 13.4538947,9.73963158 C13.9645263,9.73963158 14.2783158,9.80968421 14.2783158,9.80968421 L14.1654211,10.5982105 C14.1654211,10.5982105 13.6808421,10.5582632 13.5552105,10.5582632 Z M15.4350526,10.659 L15.1843684,12.2088421 C15.1646842,12.331 15.1988421,12.4971579 15.5097368,12.4971579 C15.5890526,12.4971579 15.6787895,12.4705263 15.7401579,12.4705263 L15.6284211,13.2301053 C15.5386842,13.255 15.2845263,13.3453158 14.9585789,13.3476316 C14.5423158,13.3516842 14.2464737,13.1177895 14.2464737,12.5903684 C14.2464737,12.2360526 14.7542105,9.31642105 14.7738947,9.29731579 L15.6672105,9.29731579 L15.5763158,9.81836842 L16.0221053,9.81836842 L15.9080526,10.659 L15.4350526,10.659 Z M19.1791053,5.78194737 C19.4153158,6.06678947 19.6335789,6.36668421 19.831,6.68047368 L16.9866316,6.68047368 C17.169,6.37942105 17.3704737,6.07142105 17.5846842,5.78194737 L19.1791053,5.78194737 Z M31.6195263,15.8892105 L31.6554211,15.9471053 L31.5969474,15.9471053 L31.5714737,15.9007895 C31.5512105,15.8654737 31.5338421,15.8428947 31.5216842,15.8330526 C31.5141579,15.8261053 31.5008421,15.8226316 31.4846316,15.8226316 L31.4574211,15.8226316 L31.4574211,15.9465263 L31.4099474,15.9465263 L31.4099474,15.6541579 L31.5106842,15.6541579 C31.5448421,15.6541579 31.5697368,15.6570526 31.5842105,15.6628421 C31.5998421,15.6680526 31.6125789,15.6778947 31.6212632,15.6912105 C31.6299474,15.7045263 31.6345789,15.719 31.6345789,15.7340526 C31.6345789,15.7554737 31.6264737,15.774 31.612,15.7896316 C31.5969474,15.8052632 31.5761053,15.8145263 31.5512105,15.8162632 C31.5616316,15.8191579 31.5697368,15.8255263 31.5761053,15.8313158 C31.5876842,15.8434737 31.6021579,15.8631579 31.6195263,15.8892105 Z M31.5141579,15.7838421 C31.5407895,15.7838421 31.5598947,15.7792105 31.5697368,15.7716842 C31.5795789,15.7635789 31.5842105,15.752 31.5842105,15.7386842 C31.5842105,15.7305789 31.5818947,15.7230526 31.5772632,15.7161053 C31.5720526,15.7097368 31.5662632,15.7045263 31.557,15.7010526 C31.5483158,15.6975789 31.5332632,15.6958421 31.5106842,15.6958421 L31.4562632,15.6958421 L31.4562632,15.7838421 L31.5141579,15.7838421 Z M20.3144211,7.56221053 C20.4516316,7.85284211 20.5720526,8.15215789 20.6768421,8.46131579 L16.0371579,8.46131579 C16.0828947,8.37447368 16.245,8.02478947 16.4893158,7.56221053 L20.3144211,7.56221053 Z M7.95910526,9.02173684 L9.37405263,9.02173684 L8.66947368,13.2764211 L7.75473684,13.2764211 L8.26363158,10.0690526 L7.11557895,13.2764211 L6.50015789,13.2764211 L6.42026316,10.0690526 L5.87663158,13.2764211 L5.01457895,13.2764211 L5.729,9.02173684 L7.03278947,9.02173684 L7.07852632,11.6327895 L7.95910526,9.02173684 Z M25.1978421,9.73326316 C25.5139474,9.73326316 26.4252105,9.76684211 26.4234762,10.8118421 L26.0726316,13.2723684 L25.2864211,13.2723684 L25.3159474,12.9307895 C25.3014737,12.9319474 25.0293684,13.3406842 24.3994737,13.3406842 C24.0694737,13.3406842 23.5368421,13.1617895 23.5368421,12.3778947 C23.5368421,11.3826842 24.3479474,11.0538421 25.1202632,11.0538421 C25.243,11.0538421 25.5046842,11.0752632 25.5046842,11.0752632 C25.5046842,11.0752632 25.5353684,11.0144737 25.5353684,10.8500526 C25.5353684,10.5796842 25.2916316,10.5426316 24.9587368,10.5426316 C24.3728421,10.5426316 23.9849474,10.7001053 23.9849474,10.7001053 L24.1152105,9.93010526 C24.1152105,9.93010526 24.5841579,9.73326316 25.1978421,9.73326316 Z M24.7578421,12.5921053 C25.2951053,12.5921053 25.4068421,11.8875263 25.3900526,11.737 C25.364,11.7323684 25.3477895,11.7167368 25.1955263,11.7161579 C24.5407368,11.7161579 24.4081579,12.0102632 24.4081579,12.2545789 C24.4081579,12.3807895 24.4799474,12.5921053 24.7578421,12.5921053 Z M31.6478947,12.8844737 C31.6722105,12.9267368 31.6837895,12.9718947 31.6837895,13.0199474 C31.6837895,13.0668421 31.6727895,13.1114211 31.6478947,13.1542632 C31.6241579,13.1971053 31.5905789,13.2312632 31.5477368,13.2555789 C31.5054737,13.2793158 31.4603158,13.2914737 31.4128421,13.2914737 C31.3665263,13.2914737 31.3219474,13.2793158 31.2785263,13.2555789 C31.2356842,13.2312632 31.2021053,13.1971053 31.1783684,13.1542632 C31.1540526,13.1114211 31.1418947,13.0668421 31.1418947,13.0199474 C31.1418947,12.9730526 31.1540526,12.9278947 31.1783684,12.8844737 C31.2026842,12.8404737 31.2362632,12.8068947 31.2796842,12.7837368 C31.3236842,12.7605789 31.3682632,12.749 31.4128421,12.7484211 C31.4591579,12.7484211 31.5031579,12.76 31.546,12.7837368 C31.5894211,12.8068947 31.6241579,12.8404737 31.6478947,12.8844737 Z M31.6102632,13.1316842 C31.6305263,13.0957895 31.6403684,13.0581579 31.6403684,13.0193684 C31.6403684,12.9805789 31.6293684,12.9429474 31.6091053,12.9064737 C31.5888421,12.87 31.5616316,12.8427895 31.5245789,12.8225263 C31.4892632,12.8028421 31.4522105,12.7935789 31.4145789,12.7935789 C31.3769474,12.7935789 31.3404737,12.8022632 31.3034211,12.8225263 C31.2663684,12.8427895 31.2391579,12.8705789 31.2188947,12.9064737 C31.1974737,12.9429474 31.1876316,12.9805789 31.1876316,13.0193684 C31.1876316,13.0581579 31.1968947,13.0952105 31.2177368,13.1316842 C31.2385789,13.1681579 31.2657895,13.1959474 31.3022632,13.2162105 C31.3375789,13.2358947 31.3752105,13.2463158 31.4145789,13.2463158 C31.4533684,13.2463158 31.4904211,13.2358947 31.5263158,13.2162105 C31.5627895,13.1947895 31.5905789,13.1675789 31.6102632,13.1316842 Z M31.5048947,13.112 L31.5407895,13.1693158 L31.4823158,13.1693158 L31.4574211,13.1235789 C31.436,13.0871053 31.4197895,13.0651053 31.4076316,13.0546842 C31.3995263,13.0483158 31.3862105,13.0448421 31.3694211,13.0448421 L31.3422105,13.0448421 L31.3422105,13.1687368 L31.2947368,13.1687368 L31.2947368,12.8769474 L31.3966316,12.8769474 C31.4307895,12.8769474 31.4562632,12.8798421 31.4707368,12.8856316 C31.4852105,12.8914211 31.4973684,12.9012632 31.5066316,12.914 C31.5158947,12.9273158 31.5205263,12.9423684 31.5205263,12.9568421 C31.5205263,12.9776842 31.5118421,12.9973684 31.4973684,13.0124211 C31.4823158,13.0280526 31.4620526,13.0373158 31.4371579,13.0390526 C31.4475789,13.0425263 31.4551053,13.0477368 31.4620526,13.0541053 C31.4730526,13.0656842 31.4881053,13.0847895 31.5048947,13.112 Z M31.4006842,13.0048947 C31.4278947,13.0048947 31.4458421,13.002 31.4568421,12.9921579 C31.4655263,12.9840526 31.4707368,12.9730526 31.4707368,12.9603158 C31.4707368,12.9504737 31.4684211,12.9441053 31.4632105,12.9365789 C31.4585789,12.9290526 31.4516316,12.925 31.4441053,12.9209474 C31.4348421,12.9180526 31.4197895,12.9163158 31.3966316,12.9163158 L31.3433684,12.9163158 L31.3433684,13.0048947 L31.4006842,13.0048947 Z M28.2338421,9.77552632 C28.3502105,9.77552632 28.4057895,9.78768421 28.4057895,9.78710526 C28.2871053,10.0285263 28.1817368,10.2502632 28.0723158,10.8222632 C27.4522632,10.6028421 27.4047895,11.803 27.1436842,13.2827895 L26.2266316,13.2827895 L26.7841579,9.81952632 L27.6166842,9.81952632 L27.5367895,10.3214737 C27.5367895,10.3214737 27.8337895,9.77552632 28.2338421,9.77552632 Z M30.5380526,9.02636842 L31.4342632,9.02463158 L30.7511053,13.2735263 L29.8821053,13.2735263 L29.9208947,12.9545263 C29.9208947,12.9545263 29.6244737,13.3279474 29.0889474,13.3279474 C28.3455789,13.3279474 27.9814211,12.6106316 27.9814211,11.8782632 C27.9814211,10.7446842 28.6634211,9.75757895 29.4826316,9.757 C30.0094737,9.757 30.3452632,10.2218947 30.3452632,10.2218947 L30.5380526,9.02636842 Z M29.4050526,12.4595263 C29.8890526,12.4595263 30.1223684,11.8290526 30.1223684,11.3572105 C30.1223684,10.8373158 29.9573684,10.6167368 29.6366316,10.6161579 C29.2435263,10.6161579 28.9326316,11.0729474 28.9326316,11.7659474 C28.9326316,12.1897368 29.0831579,12.4595263 29.4050526,12.4595263 Z M17.4885789,16.4455789 L19.2213684,16.4455789 C18.9602632,16.7657368 18.6748421,17.0656316 18.3691579,17.3441053 L18.3674211,17.3441053 C18.3674211,17.3446842 18.368,17.3446842 18.368,17.3446842 C18.3610526,17.3504737 18.3535263,17.3562632 18.3465789,17.3626316 C18.0356842,17.0812632 17.7543158,16.7709474 17.4885789,16.4455789 Z M18.6314211,11.8394737 L16.8158421,11.8394737 C16.8158421,11.8394737 16.6479474,12.5550526 17.6072632,12.5550526 C18.0576842,12.5550526 18.5561579,12.3350526 18.5561579,12.3350526 L18.3986842,13.1965263 C18.3986842,13.1965263 18.1103684,13.3435789 17.455,13.3435789 C16.7446316,13.3435789 15.9115263,13.0436842 15.9115263,11.781 C15.9115263,10.6867895 16.5767368,9.71878947 17.4752632,9.71821053 C18.456,9.71821053 18.7489474,10.4361053 18.7489474,11.0248947 C18.7489474,11.2605263 18.6314211,11.8394737 18.6314211,11.8394737 Z M17.4781579,10.5200526 C16.9912632,10.5200526 16.8974737,11.0735263 16.8974737,11.132 L17.8892105,11.132 C17.8892105,11.0868421 17.9824211,10.5200526 17.4781579,10.5200526 Z M22.8218421,9.83689474 C22.2139474,9.83689474 21.6685789,10.4164211 21.6685789,11.4718421 C21.6685789,11.9905789 21.9227368,12.4745789 22.5572632,12.4751579 C22.8583158,12.4751579 23.296,12.2557368 23.296,12.2557368 L23.1362105,13.2306842 C23.1362105,13.2306842 22.6556842,13.3528421 22.3546316,13.3528421 C21.2882105,13.3528421 20.7468947,12.617 20.7468947,11.5025263 C20.7468947,9.82184211 21.7502105,8.92678947 22.7813158,8.92678947 C23.2467895,8.92678947 23.7875263,9.14563158 23.7875263,9.14563158 L23.6416316,10.0922105 C23.6416316,10.0922105 23.2763158,9.83689474 22.8218421,9.83689474 Z M16.3683158,14.6826842 L20.3300526,14.6826842 C20.1847368,14.993 20.0220526,15.2928947 19.8414211,15.5812105 L16.8638947,15.5812105 C16.6826842,15.2917368 16.5136316,14.9947368 16.3683158,14.6826842 Z M20.7306842,9.77668421 C20.8476316,9.77552632 20.9032105,9.78710526 20.9032105,9.78710526 C20.7845263,10.0291053 20.6797368,10.2508421 20.5708947,10.8234211 C19.9508421,10.604 19.9022105,11.8047368 19.6422632,13.2839474 L18.7252105,13.2839474 L19.2827368,9.82068421 L20.1146842,9.82068421 L20.0342105,10.3226316 C20.0342105,10.3226316 20.3306316,9.77668421 20.7306842,9.77668421 Z M35.1742428,0.543631579 C35.6308513,0.543631579 36,0.920526316 36,1.38542105 L36,20.8930526 C36,21.3579474 35.6308513,21.7348421 35.1742428,21.7348421 L0.825757228,21.7348421 C0.369148692,21.7348421 0,21.3579474 0,20.8930526 L0,1.38542105 C0,0.920526316 0.369148692,0.543631579 0.825757228,0.543631579 L35.1742428,0.543631579 Z M31.7631053,15.9314737 C31.7874211,15.8903684 31.7978421,15.8434737 31.7978421,15.7971579 C31.7978421,15.7508421 31.7862632,15.7056842 31.7619474,15.6616842 C31.7382105,15.6176842 31.7040526,15.5846842 31.6606316,15.5609474 C31.6177895,15.5383684 31.5737895,15.5262105 31.5280526,15.5262105 C31.4817368,15.5262105 31.4377368,15.5383684 31.3943158,15.5609474 C31.3514737,15.5846842 31.3167368,15.6176842 31.293,15.6616842 C31.2686842,15.7056842 31.2565263,15.7502632 31.2565263,15.7971579 C31.2565263,15.8440526 31.2686842,15.8892105 31.2924211,15.9314737 C31.3173158,15.9754737 31.3508947,16.0090526 31.3931579,16.0327895 C31.436,16.0565263 31.4811579,16.0686842 31.5286316,16.0686842 C31.5749474,16.0686842 31.6201053,16.0565263 31.6629474,16.0327895 C31.7057895,16.0090526 31.7387895,15.9754737 31.7631053,15.9314737 Z M32.3698421,11.1395263 C32.3698421,11.1372105 32.3698421,11.1366316 32.371,11.1354737 C32.3698421,6.50042105 28.6118947,2.74363158 23.9768421,2.74536782 C21.811,2.74594737 19.8367895,3.56747368 18.3483158,4.91526316 C16.8592632,3.56805263 14.8862105,2.74710526 12.7221053,2.74710526 C12.7041579,2.74710526 12.6862105,2.74710526 12.6682632,2.74710526 C8.06042105,2.77721053 4.33026316,6.52531579 4.33026316,11.1395263 C4.33026316,15.7722632 8.08994737,19.5313684 12.7221053,19.5313684 C14.8862105,19.5313684 16.8586842,18.7104211 18.3477368,17.3632105 C19.8367895,18.7127368 21.8133158,19.5342632 23.9808947,19.5336845 C28.6159474,19.5325263 32.371,15.774 32.3698421,11.1395263 Z" id="Combined-Shape"></path>
            </g>
        </g>
    </g>
</svg>