<?xml version="1.0" encoding="UTF-8"?>
<svg width="20px" height="16px" viewBox="0 0 20 16" version="1.1" xmlns="http://www.w3.org/2000/svg" xmlns:xlink="http://www.w3.org/1999/xlink">
    <title>F8E7BFBB-5A8A-40F1-BA7B-FA1FF16B5F3A</title>
    <defs>
        <path d="M8.27138391,0.829797981 L9.55303169,2.15625288 C8.85477816,3.21027598 8.44813164,4.47431596 8.44813164,5.83333333 C8.44813164,7.56071665 9.10510005,9.13465678 10.1828052,10.318922 C9.73804984,10.9912488 9.27031388,11.817712 8.78199016,12.7952618 C8.57640223,13.2068176 8.02561192,13.2913764 7.70603543,12.9604453 L5.345,10.5150787 L1.1323729,14.6288975 C0.895259633,14.8603795 0.529663904,14.8794192 0.271415427,14.6888506 L0.189631924,14.6175683 C-0.0418501294,14.3804551 -0.0608898372,14.0148593 0.129678784,13.7566109 L0.200961042,13.6748274 L4.419,9.55607865 L1.91721567,6.96594692 C1.58225554,6.61908555 1.71495361,6.04232598 2.16781891,5.87672369 C4.04373996,5.19074309 5.3461223,4.48799531 6.06432214,3.79443778 C6.73515278,3.14662416 7.0870213,2.31701627 7.12560827,1.26838843 C7.1472212,0.681042056 7.86310269,0.407010406 8.27138391,0.829797981 Z M15,0.833333333 C17.7614237,0.833333333 20,3.07190958 20,5.83333333 C20,8.59475708 17.7614237,10.8333333 15,10.8333333 C12.2385763,10.8333333 10,8.59475708 10,5.83333333 C10,3.07190958 12.2385763,0.833333333 15,0.833333333 Z M15,3.33333333 L14.9047676,3.34186914 C14.68851,3.38112102 14.5179864,3.55164463 14.4787346,3.76790214 L14.4701988,3.86313458 L14.47,5.30333333 L13.0298012,5.30353208 L12.9345688,5.31206789 C12.7183113,5.35131977 12.5477877,5.52184338 12.5085358,5.73810089 L12.5,5.83333333 L12.5085358,5.92856578 C12.5477877,6.14482329 12.7183113,6.3153469 12.9345688,6.35459878 L13.0298012,6.36313458 L14.47,6.36233333 L14.4701988,7.80353208 L14.4787346,7.89876453 C14.5179864,8.11502204 14.68851,8.28554565 14.9047676,8.32479753 L15,8.33333333 L15.0952324,8.32479753 C15.31149,8.28554565 15.4820136,8.11502204 15.5212654,7.89876453 L15.5298012,7.80353208 L15.529,6.36233333 L16.9701988,6.36313458 L17.0654312,6.35459878 C17.2816887,6.3153469 17.4522123,6.14482329 17.4914642,5.92856578 L17.5,5.83333333 L17.4914642,5.73810089 C17.4522123,5.52184338 17.2816887,5.35131977 17.0654312,5.31206789 L16.9701988,5.30353208 L15.529,5.30333333 L15.5298012,3.86313458 L15.5212654,3.76790214 C15.4764062,3.5207507 15.2600899,3.33333333 15,3.33333333 Z" id="path-1"></path>
    </defs>
    <g id="5.-My-Community_HomePage" stroke="none" stroke-width="1" fill="none" fill-rule="evenodd">
        <g id="1.-My-Community-Page-_-03" transform="translate(-673.000000, -188.000000)">
            <g id="Icon-/-Standard-/-PinAdd" transform="translate(673.000000, 186.000000)">
                <g id="Icon-/-Arrow" transform="translate(0.000000, 2.500000)">
                    <mask id="mask-2" fill="white">
                        <use xlink:href="#path-1"></use>
                    </mask>
                    <use id="Mask" fill="#FFFFFF" fill-rule="nonzero" xlink:href="#path-1"></use>
                    <g id="Color-/-Spring-Green" mask="url(#mask-2)" fill="#FFFFFF">
                        <g transform="translate(0.000000, -2.500000)">
                            <rect x="0" y="0" width="20" height="20"></rect>
                        </g>
                    </g>
                </g>
            </g>
        </g>
    </g>
</svg>