<?xml version="1.0" encoding="utf-8"?>
<!-- Generator: Adobe Illustrator 22.0.1, SVG Export Plug-In . SVG Version: 6.00 Build 0)  -->
<svg version="1.1" id="Layer" xmlns="http://www.w3.org/2000/svg" xmlns:xlink="http://www.w3.org/1999/xlink" x="0px" y="0px"
	 viewBox="0 0 200 152.2" style="enable-background:new 0 0 200 152.2;" xml:space="preserve">
<g id="users">
	<g>
		<g>
			<path fill="#899db1" d="M162.5,62.8c1.1-0.8,2.2-1.7,3.2-2.7c6.9-6.7,10.8-15.5,10.8-24.9C176.4,15.8,160,0,140.5,0c-19.4,0-35.1,15.8-35.1,35.1
				c0,11.2,5.2,21.1,13.4,27.6c-7.1,2.9-13.7,7.1-19.3,12.6c-5.5-5.4-12-9.7-19.2-12.6c8.2-6.4,13.4-16.4,13.4-27.6
				C93.7,15.8,77.9,0,58.5,0S23.4,15.8,23.4,35.1c0,11.2,5.3,21.2,13.4,27.6C15.3,71.4,0,92.5,0,117.1v29.3c0,3.2,2.6,5.9,5.9,5.9
				c8.3,0,180,0,188.1,0c3.2,0,5.9-2.6,5.9-5.9v-29.3C199.8,92,183.7,71.2,162.5,62.8z M117.1,35.1c0-12.9,10.5-23.4,23.4-23.4
				c13.1,0,24.2,10.7,24.2,23.4s-11.1,23.4-24.2,23.4C127.6,58.6,117.1,48.1,117.1,35.1z M154.2,72.3l-13.7,13.2l-13.3-13.3
				c4.2-1.2,8.7-1.9,13.2-1.9C145.3,70.3,149.9,71,154.2,72.3z M35.1,35.1c0-12.9,10.5-23.4,23.4-23.4S82,22.2,82,35.1
				S71.5,58.6,58.5,58.6S35.1,48.1,35.1,35.1z M11.7,140.5v-23.4c0-18.5,10.8-34.5,26.4-42.1l8.5,14.1L41,128
				c-0.2,1.4,0.1,2.9,0.9,4.1l5.6,8.5H11.7z M58.5,135.8l-5.6-8.4l4.8-33.7h1.6l4.8,33.7L58.5,135.8z M61.1,82H56l-6.5-10.8
				c2.9-0.6,6-0.9,9.1-0.9c3.1,0,6.1,0.3,9.1,0.9L61.1,82z M105.4,140.5c-3.6,0-32,0-35.9,0l5.6-8.5c0.8-1.2,1.1-2.6,0.9-4.1
				l-5.6-38.9L79,75c15.6,7.6,26.4,23.6,26.4,42.1V140.5z M188.1,140.5h-71v-23.4c0-12.1-3.7-23.4-10-32.8c2.7-2.7,5.6-5.1,8.8-7.1
				l20.5,20.5c2.3,2.3,5.9,2.3,8.2,0.1l21.2-20.5c13.4,8.3,22.4,23,22.4,39.7V140.5z"/>
		</g>
	</g>
	<g>
		<g>
			<path fill="#899db1" d="M170.9,105.4h-11.7c-3.2,0-5.9,2.6-5.9,5.9s2.6,5.9,5.9,5.9h11.7c3.2,0,5.9-2.6,5.9-5.9S174.2,105.4,170.9,105.4z"/>
		</g>
	</g>
</g>
</svg>
