<?xml version="1.0" encoding="UTF-8"?>
<svg width="36px" height="22px" viewBox="0 0 36 22" version="1.1" xmlns="http://www.w3.org/2000/svg" xmlns:xlink="http://www.w3.org/1999/xlink">
    <!-- Generator: sketchtool 56 (101010) - https://sketch.com -->
    <title>5B2EC362-F132-4552-A3B1-D1E0AC03BE72</title>
    <desc>Created with sketchtool.</desc>
    <g id="4.-Pinner-Interface" stroke="none" stroke-width="1" fill="none" fill-rule="evenodd">
        <g id="1.-Settings-_-01" transform="translate(-475.000000, -1079.000000)" fill="#364A53" fill-rule="nonzero">
            <g id="001-visa" transform="translate(475.000000, 1079.000000)">
                <path d="M-1.42108547e-12,1.07255479 C-1.42115311e-12,0.520270045 0.44771525,0.0725547945 1,0.0725547945 L34.7252877,0.0725547945 C35.2775724,0.0725547945 35.7252877,0.520270045 35.7252877,1.07255479 L35.7252877,20.9404795 C35.7252877,21.4927642 35.2775724,21.9404795 34.7252877,21.9404795 L1,21.9404795 C0.44771525,21.9404795 -1.42101784e-12,21.4927642 -1.42108547e-12,20.9404795 L-1.42108547e-12,1.07255479 Z M9.24459589,14.6538082 C9.24459589,14.6538082 11.2649795,14.6538082 11.2650548,14.6537329 L15.028411,7.35915068 L12.9063151,7.35915068 L11.3078493,10.7421781 C11.0818219,11.2223356 10.8864589,11.6577397 10.7186712,12.0558493 C10.6874795,11.6399589 10.6544041,11.2357466 10.6133425,10.824226 L10.2868836,7.35915068 L7.0600411,7.35915068 L10.4173767,10.0158767 L8.42268493,8.76285616 L9.24459589,14.6538082 Z M14.5775616,14.6538082 L16.4785274,14.6538082 L17.8626438,7.35922603 L15.9634863,7.35922603 L14.5775616,14.6538082 Z M19.6876644,14.7573288 C21.4857877,14.7573288 22.6922466,13.7425411 22.6921712,12.232226 C22.6921712,11.4060959 22.2096027,10.7507671 21.2205068,10.2314315 C20.6644795,9.92094521 20.328226,9.71209589 20.328226,9.44877397 C20.328226,9.20323288 20.5879315,8.93742466 21.1991096,8.93742466 C21.7937877,8.93742466 22.2524726,9.16955479 22.3370068,9.21671918 L22.5538425,9.33553425 L23.160726,7.70956849 L23.0002466,7.62134247 C22.5470616,7.37150685 21.9830479,7.24839726 21.2787466,7.24839726 C19.5572466,7.24839726 18.3544041,8.25399315 18.3544041,9.69258219 C18.3544041,10.7367534 19.1769178,11.3160616 19.8971164,11.7049795 C20.5763288,12.0559247 20.7092329,12.2567877 20.7092329,12.485226 C20.7092329,12.9225137 20.2345753,13.0793014 19.830363,13.0793014 C19.3012329,13.0793014 18.7507055,12.9286164 18.3195205,12.6707945 L18.1045685,12.5421849 L17.462726,14.1252808 L17.5931438,14.2245068 C18.0378151,14.558274 18.8210753,14.7573288 19.6876644,14.7573288 Z M27.1287123,14.6538082 L29.1019315,14.6538082 L28.2470205,7.35922603 L26.039863,7.35922603 L22.4890479,14.6538082 L24.524726,14.6538082 L25.3410616,12.8722603 L26.9866164,12.8722603 L27.1287123,14.6538082 Z M26.737911,9.6024726 C26.752,9.77583562 26.7654863,9.93812329 26.7746781,10.078863 L26.8885959,11.3263836 L25.9650479,11.3263836 L26.5076644,10.1475 C26.5842123,9.98340411 26.6619658,9.79783562 26.737911,9.6024726 Z" id="Combined-Shape"></path>
            </g>
        </g>
    </g>
</svg>