<svg xmlns="http://www.w3.org/2000/svg" height="620pt" version="1.1" viewBox="0 -10 620 620" width="620pt">
<g id="surface1">
<path d="M 200 80 L 420 80 L 420 100 L 200 100 Z M 200 80 " style=" stroke:none;fill-rule:nonzero;fill:rgb(0%,0%,0%);fill-opacity:1;" />
<path d="M 230 50 L 390 50 L 390 70 L 230 70 Z M 230 50 " style=" stroke:none;fill-rule:nonzero;fill:rgb(0%,0%,0%);fill-opacity:1;" />
<path d="M 200 500 L 420 500 L 420 520 L 200 520 Z M 200 500 " style=" stroke:none;fill-rule:nonzero;fill:rgb(0%,0%,0%);fill-opacity:1;" />
<path d="M 230 530 L 390 530 L 390 550 L 230 550 Z M 230 530 " style=" stroke:none;fill-rule:nonzero;fill:rgb(0%,0%,0%);fill-opacity:1;" />
<path d="M 619.828125 169.160156 C 619.765625 168.480469 619.628906 167.8125 619.429688 167.15625 C 619.261719 166.558594 619.039062 165.976562 618.757812 165.421875 C 618.472656 164.878906 618.140625 164.359375 617.757812 163.882812 C 617.332031 163.34375 616.859375 162.847656 616.347656 162.402344 C 616.117188 162.222656 615.996094 161.957031 615.757812 161.792969 L 520 94.789062 L 520 10 C 520 4.476562 515.523438 0 510 0 L 110 0 C 104.472656 0 100 4.476562 100 10 L 100 94.789062 L 4.265625 161.792969 C 4.027344 161.957031 3.90625 162.222656 3.675781 162.402344 C 3.164062 162.847656 2.691406 163.34375 2.265625 163.882812 C 1.882812 164.359375 1.550781 164.878906 1.269531 165.421875 C 0.984375 165.976562 0.761719 166.558594 0.59375 167.15625 C 0.394531 167.8125 0.257812 168.480469 0.199219 169.160156 C 0.117188 169.4375 0.046875 169.71875 0 170 L 0 430 C 0 435.523438 4.472656 440 10 440 L 100 440 L 100 590 C 100 595.523438 104.472656 600 110 600 L 510 600 C 515.523438 600 520 595.523438 520 590 L 520 440 L 610 440 C 615.523438 440 620 435.523438 620 430 L 620 170 C 619.957031 169.71875 619.898438 169.4375 619.828125 169.160156 Z M 578.277344 160 L 520 160 L 520 119.210938 Z M 500 20 L 500 160 L 470 160 L 470 120 C 470 114.476562 465.523438 110 460 110 L 160 110 C 154.472656 110 150 114.476562 150 120 L 150 160 L 120 160 L 120 20 Z M 170 160 L 170 130 L 450 130 L 450 160 Z M 100 160 L 41.71875 160 L 100 119.210938 Z M 500 580 L 120 580 L 120 440 L 150 440 L 150 480 C 150 485.523438 154.472656 490 160 490 L 460 490 C 465.523438 490 470 485.523438 470 480 L 470 440 L 500 440 Z M 450 440 L 450 470 L 170 470 L 170 440 Z M 600 420 L 20 420 L 20 180 L 600 180 Z M 600 420 " style=" stroke:none;fill-rule:nonzero;fill:rgb(0%,0%,0%);fill-opacity:1;" />
<path d="M 184.46875 211.050781 C 179.527344 208.578125 173.515625 210.585938 171.050781 215.53125 L 140 277.640625 L 109 215.53125 C 106.527344 210.585938 100.523438 208.578125 95.574219 211.050781 C 90.632812 213.519531 88.628906 219.527344 91.097656 224.46875 L 128.816406 300 L 91.050781 375.53125 C 88.578125 380.472656 90.585938 386.480469 95.527344 388.949219 C 100.46875 391.421875 106.480469 389.414062 108.949219 384.46875 L 140 322.359375 L 171.050781 384.46875 C 173.515625 389.414062 179.527344 391.421875 184.46875 388.949219 C 189.410156 386.480469 191.414062 380.472656 188.949219 375.53125 L 151.175781 300 L 189 224.46875 C 190.179688 222.089844 190.367188 219.335938 189.515625 216.820312 C 188.667969 214.300781 186.851562 212.226562 184.46875 211.050781 Z M 184.46875 211.050781 " style=" stroke:none;fill-rule:nonzero;fill:rgb(0%,0%,0%);fill-opacity:1;" />
<path d="M 449 215.53125 C 446.527344 210.585938 440.523438 208.578125 435.574219 211.050781 C 430.632812 213.519531 428.628906 219.527344 431.097656 224.46875 L 468.816406 300 L 431.050781 375.53125 C 428.578125 380.472656 430.585938 386.480469 435.527344 388.949219 C 440.46875 391.421875 446.480469 389.414062 448.949219 384.46875 L 480 322.359375 L 510.996094 384.46875 C 513.464844 389.414062 519.472656 391.421875 524.417969 388.949219 C 529.359375 386.480469 531.367188 380.472656 528.894531 375.53125 L 491.175781 300 L 529 224.46875 C 531.464844 219.527344 529.460938 213.519531 524.515625 211.050781 C 519.574219 208.578125 513.5625 210.585938 511.097656 215.53125 L 480 277.640625 Z M 449 215.53125 " style=" stroke:none;fill-rule:nonzero;fill:rgb(0%,0%,0%);fill-opacity:1;" />
<path d="M 290 370 L 220 370 L 220 220 C 220 214.476562 215.523438 210 210 210 C 204.472656 210 200 214.476562 200 220 L 200 380 C 200 385.523438 204.472656 390 210 390 L 290 390 C 295.523438 390 300 385.523438 300 380 C 300 374.476562 295.523438 370 290 370 Z M 290 370 " style=" stroke:none;fill-rule:nonzero;fill:rgb(0%,0%,0%);fill-opacity:1;" />
<path d="M 350 230 L 410 230 C 415.523438 230 420 225.523438 420 220 C 420 214.476562 415.523438 210 410 210 L 350 210 C 333.425781 210 320 223.433594 320 240 L 320 280 C 320 296.566406 333.425781 310 350 310 L 390 310 C 395.523438 310 400 314.476562 400 320 L 400 360 C 400 365.523438 395.523438 370 390 370 L 330 370 C 324.472656 370 320 374.476562 320 380 C 320 385.523438 324.472656 390 330 390 L 390 390 C 406.566406 390 420 376.566406 420 360 L 420 320 C 420 303.433594 406.566406 290 390 290 L 350 290 C 344.472656 290 340 285.523438 340 280 L 340 240 C 340 234.476562 344.472656 230 350 230 Z M 350 230 " style=" stroke:none;fill-rule:nonzero;fill:rgb(0%,0%,0%);fill-opacity:1;" />
</g>
</svg>