<svg xmlns="http://www.w3.org/2000/svg" width="45" height="67" viewBox="0 0 45 67">
    <path fill="#FFF" fill-rule="nonzero" d="M22.5 0C34.906 0 45 9.967 45 22.218c0 3.677-.931 7.324-2.694 10.547L23.73 65.937a1.407 1.407 0 0 1-1.23.716c-.512 0-.983-.273-1.23-.716L2.7 32.777A22.038 22.038 0 0 1 0 22.216C0 9.968 10.094 0 22.5 0zm0 33.327c6.203 0 11.25-4.984 11.25-11.11 0-6.124-5.047-11.108-11.25-11.108s-11.25 4.984-11.25 11.109 5.047 11.109 11.25 11.109zm0-5.405c-3.474 0-6.3-2.626-6.3-5.854 0-3.229 2.826-5.855 6.3-5.855 3.474 0 6.3 2.626 6.3 5.855 0 3.228-2.826 5.854-6.3 5.854z"/>
</svg>
