<svg xmlns="http://www.w3.org/2000/svg" xmlns:xlink="http://www.w3.org/1999/xlink" width="12" height="24" viewBox="0 0 12 24">
    <defs>
        <path id="a" d="M9.22 10.902c-.908-.52-1.874-.917-2.83-1.328-.556-.238-1.087-.516-1.555-.902-.923-.764-.746-2.003.335-2.494.306-.138.626-.183.951-.203A7.009 7.009 0 0 1 9.7 6.71c.565.282.751.193.942-.417.201-.644.369-1.298.555-1.948.125-.436-.028-.723-.425-.907a8.859 8.859 0 0 0-2.258-.699c-1.024-.163-1.024-.168-1.028-1.234C7.48.002 7.48.002 6.025.002c-.21 0-.42-.005-.63 0-.68.02-.795.144-.814.853-.01.317 0 .634-.005.956-.004.942-.01.927-.88 1.255C1.592 3.859.291 5.346.152 7.725c-.124 2.107.938 3.53 2.607 4.565 1.028.64 2.167 1.016 3.257 1.517.426.193.832.416 1.186.724 1.048.897.857 2.389-.387 2.954-.665.302-1.368.377-2.09.282-1.115-.143-2.181-.446-3.186-.986-.588-.317-.76-.233-.961.426-.172.57-.326 1.145-.479 1.72-.205.774-.129.957.584 1.319.909.456 1.88.689 2.87.852.775.13.799.164.808.997.005.376.005.758.01 1.135.005.476.225.753.698.763.536.01 1.076.01 1.612-.005.44-.01.665-.258.665-.719 0-.515.024-1.036.005-1.551-.024-.525.196-.793.684-.932a5.39 5.39 0 0 0 2.817-1.874c2.047-2.577 1.267-6.35-1.631-8.01z"/>
    </defs>
    <g fill="none" fill-rule="evenodd">
        <mask id="b" fill="#fff">
            <use xlink:href="#a"/>
        </mask>
        <use fill="#FFF" xlink:href="#a"/>
        <g fill="#fff" mask="url(#b)">
            <path d="M-6 0h24v24H-6z"/>
        </g>
    </g>
</svg>
