<svg xmlns="http://www.w3.org/2000/svg" xmlns:xlink="http://www.w3.org/1999/xlink" width="18" height="24" viewBox="0 0 18 24">
    <defs>
        <path id="a" d="M12.213 0a3.067 3.067 0 1 1 1.168 5.9 2.92 2.92 0 0 1-.903.23A3.064 3.064 0 0 1 9.72 4.874a.541.541 0 0 0-.625-.2l-2.21.815a.533.533 0 0 0-.351.524 2.797 2.797 0 0 1-.683 1.967.552.552 0 0 0-.038.653l.032.05c.135.215.4.305.637.219A5.465 5.465 0 0 1 8.79 8.59c2.807.222 5.034 2.598 5.076 5.416a5.483 5.483 0 0 1-1.092 3.374.537.537 0 0 0 .038.689l.098.105c.17.18.438.215.659.1a3.023 3.023 0 0 1 1.898-.304 3.034 3.034 0 0 1 2.492 2.483 3.038 3.038 0 0 1-3.509 3.504 3.032 3.032 0 0 1-2.17-4.396.546.546 0 0 0-.078-.63l-.14-.15a.537.537 0 0 0-.689-.08 5.47 5.47 0 0 1-3.02.907 5.473 5.473 0 0 1-3.367-1.155.538.538 0 0 0-.703.033l-.405.387a.526.526 0 0 0-.147.54 1.912 1.912 0 0 1-1.452 2.482 1.917 1.917 0 0 1-.811-3.744 1.914 1.914 0 0 1 1.14.08c.197.077.42.02.573-.125l.425-.406a.538.538 0 0 0 .082-.677 5.502 5.502 0 0 1 1.13-7.163.54.54 0 0 0 .114-.702l-.02-.033a.549.549 0 0 0-.59-.235A2.814 2.814 0 0 1 .933 5.82 2.827 2.827 0 0 1 3.42 3.345c.996-.106 1.899.311 2.474 1.01.148.18.387.255.605.175l2.287-.845c.218-.08.36-.29.35-.522A3.07 3.07 0 0 1 12.213 0h.001zM1.92 19.032a.983.983 0 0 0 0 1.964.983.983 0 0 0 0-1.964zm6.433-.748a4.192 4.192 0 0 0 4.19-4.194 4.192 4.192 0 0 0-4.19-4.193 4.192 4.192 0 0 0-4.19 4.193 4.192 4.192 0 0 0 4.19 4.194zM3.732 4.226a1.917 1.917 0 0 0 0 3.83c1.055.001 1.914-.858 1.914-1.914a1.917 1.917 0 0 0-1.914-1.916zM12.189.753A2.32 2.32 0 0 0 9.87 3.071a2.32 2.32 0 0 0 2.318 2.317 2.32 2.32 0 0 0 2.317-2.317A2.32 2.32 0 0 0 12.189.753zm2.778 22.314a2.104 2.104 0 0 0 2.1-2.102c0-1.16-.942-2.103-2.1-2.103a2.104 2.104 0 0 0-2.101 2.103c0 1.159.942 2.102 2.1 2.102z"/>
    </defs>
    <g fill="none" fill-rule="evenodd">
        <mask id="b" fill="#fff">
            <use xlink:href="#a"/>
        </mask>
        <use fill="#FFF" fill-rule="nonzero" xlink:href="#a"/>
        <g fill="#fff" mask="url(#b)">
            <path d="M-3 0h24v24H-3z"/>
        </g>
    </g>
</svg>
