<?xml version="1.0" encoding="UTF-8"?>
<svg width="151px" height="150px" viewBox="0 0 151 150" version="1.1" xmlns="http://www.w3.org/2000/svg" xmlns:xlink="http://www.w3.org/1999/xlink">
    <!-- Generator: Sketch 51.2 (57519) - http://www.bohemiancoding.com/sketch -->
    <title>02</title>
    <desc>Created with Sketch.</desc>
    <defs></defs>
    <g id="Page-1" stroke="none" stroke-width="1" fill="none" fill-rule="evenodd">
        <g id="NO-DATA-ICONS" transform="translate(-931.000000, -80.000000)">
            <g id="02" transform="translate(931.000000, 80.000000)">
                <rect id="BG" fill="#FFFFFF" x="0" y="0" width="151" height="150"></rect>
                <g transform="translate(16.000000, 20.000000)">
                    <g id="ICON" transform="translate(23.000000, 22.000000)" fill="#ECF0F4" fill-rule="nonzero">
                        <path d="M4.06934618,34.9414421 L4.06934618,18.7182686 L55.9404564,18.7182686 L55.9404564,23.5852511 L59.1825053,23.5852511 L59.1825053,5.73954731 C59.1825053,3.05160415 57.0052842,0.872564844 54.319584,0.872564844 L5.69037062,0.872564844 C3.00467034,0.872564844 0.827449282,3.05160415 0.827449282,5.73954731 L0.827449282,34.9414421 C0.827449282,37.6293852 3.00467034,39.8084245 5.69037062,39.8084245 L10.553292,39.8084245 L10.553292,36.5638203 L5.69037062,36.5638203 C4.79513719,36.5638203 4.06934618,35.8374231 4.06934618,34.9414421 Z M4.06934618,15.4735122 L4.06934618,12.228908 L55.9404564,12.228908 L55.9404564,15.4735122 L4.06934618,15.4735122 Z M5.69037062,4.11732121 L54.319584,4.11732121 C55.2148174,4.11732121 55.9406084,4.84371835 55.9406084,5.7396994 L55.9406084,8.98430367 L4.06934618,8.98430367 L4.06934618,5.73954731 C4.06934618,4.84356625 4.79513719,4.11732121 5.69037062,4.11732121 Z" id="Shape"></path>
                        <path d="M67.2873235,26.8298553 L18.6581102,26.8298553 C15.9724099,26.8298553 13.7951889,29.0088946 13.7951889,31.6968378 L13.7951889,60.8987326 C13.7951889,63.5866757 15.9724099,65.765715 18.6581102,65.765715 L67.2873235,65.765715 C69.9730238,65.765715 72.1502449,63.5866757 72.1502449,60.8987326 L72.1502449,31.6968378 C72.1502449,29.0088946 69.9730238,26.8298553 67.2873235,26.8298553 Z M68.908348,60.8987326 C68.908348,61.7947136 68.182557,62.5211107 67.2873235,62.5211107 L18.6581102,62.5211107 C17.7628768,62.5211107 17.0370858,61.7947136 17.0370858,60.8987326 L17.0370858,31.6968378 C17.0370858,30.8008567 17.7628768,30.0744596 18.6581102,30.0744596 L67.2873235,30.0744596 C68.182557,30.0744596 68.908348,30.8008567 68.908348,31.6968378 L68.908348,60.8987326 Z" id="Shape"></path>
                        <path d="M59.1825053,33.319216 C55.6015716,33.319216 52.6985595,36.2246524 52.6985595,39.8085766 C52.6985595,43.3925008 55.6015716,46.2977852 59.1825053,46.2977852 C62.763439,46.2977852 65.6664511,43.3923487 65.6664511,39.8084245 C65.6664511,36.2245003 62.763439,33.319216 59.1825053,33.319216 Z M59.1825053,43.0531809 C57.3920384,43.0531809 55.9406084,41.6005387 55.9406084,39.8085766 C55.9406084,38.0166145 57.3920384,36.5638203 59.1825053,36.5638203 C60.9729721,36.5638203 62.4244022,38.0164624 62.4244022,39.8084245 C62.4244022,41.6003866 60.9729721,43.0531809 59.1825053,43.0531809 Z" id="Shape"></path>
                        <path d="M62.4244022,49.5423895 L23.5210315,49.5423895 C22.6257981,49.5423895 21.9000071,50.2687866 21.9000071,51.1647676 L21.9000071,57.6541283 C21.9000071,58.5501093 22.6257981,59.2765065 23.5210315,59.2765065 L62.4244022,59.2765065 C63.3196356,59.2765065 64.0454266,58.5501093 64.0454266,57.6541283 L64.0454266,51.1647676 C64.0454266,50.2687866 63.3196356,49.5423895 62.4244022,49.5423895 Z M60.8035297,56.0317501 L25.142056,56.0317501 L25.142056,52.7871458 L60.8035297,52.7871458 L60.8035297,56.0317501 Z" id="Shape"></path>
                        <path d="M25.142056,44.675407 L34.8678986,44.675407 C35.763132,44.675407 36.4889231,43.9490099 36.4889231,43.0530288 L36.4889231,36.5638203 C36.4889231,35.6678392 35.763132,34.9414421 34.8678986,34.9414421 L25.142056,34.9414421 C24.2468225,34.9414421 23.5210315,35.6678392 23.5210315,36.5638203 L23.5210315,43.0531809 C23.5210315,43.949162 24.2468225,44.675407 25.142056,44.675407 Z M26.7630804,38.1861984 L33.2470262,38.1861984 L33.2470262,41.4308027 L26.7630804,41.4308027 L26.7630804,38.1861984 Z" id="Shape"></path>
                    </g>
                    <g id="OTHER">
                        <ellipse id="Oval-2" fill="#F6F9FD" cx="18.75" cy="100.92233" rx="8.03571429" ry="8.00970874"></ellipse>
                        <ellipse id="Oval-2" stroke="#F6F9FD" stroke-width="2.14285714" fill="#FFFFFF" cx="92.0488722" cy="98.815534" rx="4.19172932" ry="4.17128988"></ellipse>
                        <ellipse id="Oval-2" stroke="#F6F9FD" stroke-width="2.22371968" fill="#FFFFFF" cx="5.35714286" cy="48.0582524" rx="4.24528302" ry="4.22794599"></ellipse>
                        <polygon id="Star" fill="#F6F9FD" transform="translate(31.607143, 8.543689) rotate(33.000000) translate(-31.607143, -8.543689) " points="31.6071429 12.0591997 27.9651569 13.8834951 28.6607143 10.0195754 25.7142857 7.28313216 29.7861499 6.71939386 31.6071429 3.2038835 33.4281359 6.71939386 37.5 7.28313216 34.5535714 10.0195754 35.2491289 13.8834951"></polygon>
                        <path d="M117.787604,46.6213953 C118.007809,46.8344388 118.11791,47.1058934 118.11791,47.4357672 C118.11791,47.765641 118.007809,48.0370956 117.787604,48.2501391 C117.567399,48.4631827 117.292147,48.5697028 116.96184,48.5697028 L114.071667,48.5697028 L114.071667,51.2705312 C114.071667,51.655384 113.944363,51.9715084 113.689751,52.2189137 C113.435139,52.4663191 113.115159,52.5900199 112.729801,52.5900199 C112.344442,52.5900199 112.024462,52.4663191 111.76985,52.2189137 C111.515238,51.9715084 111.387934,51.655384 111.387934,51.2705312 L111.387934,48.5697028 L108.559693,48.5697028 C108.229386,48.5697028 107.954134,48.4597465 107.733929,48.2398306 C107.513725,48.0199148 107.403624,47.745024 107.403624,47.4151502 C107.403624,47.0852764 107.513725,46.8172579 107.733929,46.6110868 C107.954134,46.4049156 108.229386,46.3018316 108.559693,46.3018316 L111.387934,46.3018316 L111.387934,43.229897 C111.387934,42.8450442 111.515238,42.5289198 111.76985,42.2815145 C112.024462,42.0341091 112.351324,41.9104083 112.750445,41.9104083 C113.135803,41.9104083 113.452343,42.0341091 113.700073,42.2815145 C113.947804,42.5289198 114.071667,42.8450442 114.071667,43.229897 L114.071667,46.3018316 L116.96184,46.3018316 C117.292147,46.3018316 117.567399,46.4083518 117.787604,46.6213953 Z" id="+" fill="#F6F9FD" transform="translate(112.760767, 47.250214) rotate(17.000000) translate(-112.760767, -47.250214) "></path>
                    </g>
                </g>
            </g>
        </g>
    </g>
</svg>