<?xml version="1.0" encoding="UTF-8"?>
<svg width="164px" height="150px" viewBox="0 0 164 150" version="1.1" xmlns="http://www.w3.org/2000/svg" xmlns:xlink="http://www.w3.org/1999/xlink">
    <!-- Generator: Sketch 51.2 (57519) - http://www.bohemiancoding.com/sketch -->
    <title>03</title>
    <desc>Created with Sketch.</desc>
    <defs></defs>
    <g id="Page-1" stroke="none" stroke-width="1" fill="none" fill-rule="evenodd">
        <g id="NO-DATA-ICONS" transform="translate(-1094.000000, -80.000000)">
            <g id="03" transform="translate(1095.000000, 80.000000)">
                <rect id="BG" fill="#FFFFFF" x="7" y="0" width="151" height="150"></rect>
                <g transform="translate(-1.000000, 0.000000)">
                    <g id="ICON" transform="translate(42.883333, 28.086325)" fill="#ECF0F4">
                        <path d="M79.9831056,71.4631115 L79.9831056,87.5874179 C79.9831056,97.3120758 71.9570143,105.223586 62.0918245,105.223586 C57.4232474,105.223586 53.1666183,103.451962 49.9775941,100.554782 L2.69132688,100.554782 C1.30654969,100.554782 0.184035208,99.4482578 0.184035208,98.0832071 L0.184035208,2.47182188 C0.184035208,1.10677116 1.30654969,0.000247157472 2.69132688,0.000247157472 L53.1580935,0.000247157472 C53.808485,-0.00790903911 54.4521068,0.240731378 54.9350111,0.707859001 C54.9352619,0.708106158 54.9355126,0.708353316 54.9357633,0.708600473 C54.9372677,0.710083418 54.9390228,0.711566363 54.9405272,0.713296465 C54.9415301,0.714285095 54.9427837,0.715520882 54.9437867,0.716509512 C54.9445389,0.717250985 54.945291,0.717992457 54.9460432,0.718733929 C54.9477983,0.720464032 54.9498042,0.722441291 54.9515593,0.724171394 L72.1445597,17.6722536 C72.1460641,17.6739837 72.1478192,17.6757138 72.1495743,17.6774439 C72.149825,17.677691 72.1503265,17.6781854 72.1508279,17.6786797 C72.1520816,17.6799155 72.1535859,17.6813984 72.1550903,17.6828814 C72.155341,17.6831285 72.1555918,17.6833757 72.1558425,17.68387 C72.5073648,18.0345864 72.7360298,18.471808 72.8300532,18.9354754 C72.8300532,18.9354754 72.8300532,18.9357226 72.8300532,18.9357226 C72.8310561,18.9406657 72.8320591,18.9456089 72.833062,18.9503049 L72.833062,18.950552 C72.8335634,18.9530236 72.8340649,18.955248 72.8345664,18.9577196 L72.8345664,18.9579668 C72.8651553,19.1166418 72.8801991,19.2782828 72.8786947,19.4406653 L72.8786947,68.2836778 C74.5773848,68.4853583 76.2605297,68.7347402 77.9228641,69.0315763 C79.1158334,69.2443789 79.9831056,70.2681052 79.9831056,71.4631115 Z M55.685945,16.9483293 L64.3185502,16.9483293 L55.685945,8.43869758 L55.685945,16.9483293 Z M44.2002926,87.587665 L44.2002926,71.4631115 C44.2002926,70.2681052 45.0675648,69.2441317 46.2605342,69.031082 C51.38945,68.1148693 56.7156897,67.6504604 62.0915737,67.6504604 C64.0246956,67.6504604 65.9512985,67.7105196 67.8643621,67.8301438 L67.8643621,21.8914788 L53.1786533,21.8914788 C51.7938761,21.8914788 50.6713617,20.7849548 50.6713617,19.4199041 L50.6713617,4.9433966 L5.19861854,4.9433966 L5.19861854,95.6121267 L46.1617469,95.6121267 C44.9078503,93.2033299 44.2002926,90.4757001 44.2002926,87.587665 Z M74.9685223,73.5545581 C70.7730711,72.9163975 66.4512525,72.5936098 62.091323,72.5936098 C57.7316443,72.5936098 53.4098256,72.9163975 49.2146252,73.5545581 L49.2146252,87.5874179 C49.2146252,94.5864232 54.9911745,100.280437 62.091323,100.280437 C69.1917223,100.280437 74.9685223,94.586176 74.9685223,87.5874179 L74.9685223,73.5545581 Z" id="Shape" fill-rule="nonzero"></path>
                        <path d="M29.7497678,80.5397225 C29.7497678,81.9047733 28.6272533,83.0112973 27.2424761,83.0112973 L17.7380856,83.0112973 C16.3533084,83.0112973 15.230794,81.9047733 15.230794,80.5397225 C15.230794,79.1746718 16.3533084,78.0681478 17.7380856,78.0681478 L27.2424761,78.0681478 C28.6272533,78.0681478 29.7497678,79.1746718 29.7497678,80.5397225 Z" id="Path"></path>
                        <path d="M45.820003,33.8200399 L55.3243935,33.8200399 C56.7091707,33.8200399 57.8316852,32.7135159 57.8316852,31.3484652 C57.8316852,29.9834144 56.7091707,28.8768904 55.3243935,28.8768904 L45.820003,28.8768904 C44.4352258,28.8768904 43.3127114,29.9834144 43.3127114,31.3484652 C43.3127114,32.7135159 44.4354766,33.8200399 45.820003,33.8200399 Z" id="Path"></path>
                        <path d="M45.820003,44.2886418 L55.3243935,44.2886418 C56.7091707,44.2886418 57.8316852,43.1821178 57.8316852,41.817067 C57.8316852,40.4520163 56.7091707,39.3454923 55.3243935,39.3454923 L45.820003,39.3454923 C44.4352258,39.3454923 43.3127114,40.4520163 43.3127114,41.817067 C43.3127114,43.1821178 44.4354766,44.2886418 45.820003,44.2886418 Z" id="Path"></path>
                        <path d="M34.931086,49.7050978 L17.7380856,49.7050978 C16.3533084,49.7050978 15.230794,50.8116218 15.230794,52.1766725 C15.230794,53.5417232 16.3533084,54.6482472 17.7380856,54.6482472 L34.931086,54.6482472 C36.3158632,54.6482472 37.4383777,53.5417232 37.4383777,52.1766725 C37.4383777,50.8116218 36.3158632,49.7050978 34.931086,49.7050978 Z" id="Path"></path>
                        <path d="M34.7681121,67.6512018 L17.7378349,67.6512018 C16.3530577,67.6512018 15.2305432,68.7577258 15.2305432,70.1227766 C15.2305432,71.4878273 16.3530577,72.5943513 17.7378349,72.5943513 L34.7681121,72.5943513 C36.1528893,72.5943513 37.2754037,71.4878273 37.2754037,70.1227766 C37.2754037,68.7577258 36.1528893,67.6512018 34.7681121,67.6512018 Z" id="Path"></path>
                        <path d="M59.5840314,79.6867821 L59.5840314,83.9655723 L55.2439095,83.9655723 C53.8591323,83.9655723 52.7366178,85.0720963 52.7366178,86.437147 C52.7366178,87.8021977 53.8591323,88.9087217 55.2439095,88.9087217 L59.5840314,88.9087217 L59.5840314,93.187759 C59.5840314,94.5528097 60.7065458,95.6593338 62.091323,95.6593338 C63.4761002,95.6593338 64.5986147,94.5528097 64.5986147,93.187759 L64.5986147,88.9087217 L68.9397395,88.9087217 C70.3245167,88.9087217 71.4470311,87.8021977 71.4470311,86.437147 C71.4470311,85.0720963 70.3245167,83.9655723 68.9397395,83.9655723 L64.5986147,83.9655723 L64.5986147,79.6867821 C64.5986147,78.3217314 63.4761002,77.2152074 62.091323,77.2152074 C60.7065458,77.2152074 59.5840314,78.3217314 59.5840314,79.6867821 Z" id="Path"></path>
                        <path d="M55.3243935,54.6482472 C56.7091707,54.6482472 57.8316852,53.5417232 57.8316852,52.1766725 C57.8316852,50.8116218 56.7091707,49.7050978 55.3243935,49.7050978 L45.820003,49.7050978 C44.4352258,49.7050978 43.3127114,50.8116218 43.3127114,52.1766725 C43.3127114,53.5417232 44.4352258,54.6482472 45.820003,54.6482472 L55.3243935,54.6482472 Z" id="Path"></path>
                        <path d="M34.931086,39.3454923 L17.7380856,39.3454923 C16.3533084,39.3454923 15.230794,40.4520163 15.230794,41.817067 C15.230794,43.1821178 16.3533084,44.2886418 17.7380856,44.2886418 L34.931086,44.2886418 C36.3158632,44.2886418 37.4383777,43.1821178 37.4383777,41.817067 C37.4383777,40.4520163 36.3158632,39.3454923 34.931086,39.3454923 Z" id="Path"></path>
                        <path d="M34.931086,28.8768904 L17.7380856,28.8768904 C16.3533084,28.8768904 15.230794,29.9834144 15.230794,31.3484652 C15.230794,32.7135159 16.3533084,33.8200399 17.7380856,33.8200399 L34.931086,33.8200399 C36.3158632,33.8200399 37.4383777,32.7135159 37.4383777,31.3484652 C37.4383777,29.9834144 36.3158632,28.8768904 34.931086,28.8768904 Z" id="Path"></path>
                    </g>
                    <g id="OTHER">
                        <ellipse id="Oval-2" fill="#F6F9FD" cx="25.9375" cy="138.809336" rx="11.1160714" ry="11.0965117"></ellipse>
                        <ellipse id="Oval-2" stroke="#ECF0F4" stroke-width="2.96867716" fill="#FFFFFF" cx="127.334273" cy="135.890617" rx="5.79636318" ry="5.77883272"></ellipse>
                        <ellipse id="Oval-2" stroke="#F6F9FD" stroke-width="3.08070271" fill="#FFFFFF" cx="7.41071429" cy="65.5723588" rx="5.87036293" ry="5.85732311"></ellipse>
                        <polygon id="Star" fill="#F6F9FD" transform="translate(43.723214, 10.829568) rotate(33.000000) translate(-43.723214, -10.829568) " points="43.7232143 15.6998949 38.6851336 18.2272422 39.6473214 12.8742347 35.5714286 9.08321369 41.204174 8.30222042 43.7232143 3.43189327 46.2422546 8.30222042 51.875 9.08321369 47.7991071 12.8742347 48.7612949 18.2272422"></polygon>
                        <path d="M162.939519,63.5817618 C163.244136,63.8769086 163.396442,64.2529771 163.396442,64.7099786 C163.396442,65.1669801 163.244136,65.5430486 162.939519,65.8381953 C162.634902,66.1333421 162.254137,66.2809133 161.797212,66.2809133 L157.799139,66.2809133 L157.799139,70.0225942 C157.799139,70.5557626 157.623035,70.9937158 157.270822,71.3364669 C156.918609,71.679218 156.47597,71.850591 155.942891,71.850591 C155.409812,71.850591 154.967172,71.679218 154.614959,71.3364669 C154.262746,70.9937158 154.086643,70.5557626 154.086643,70.0225942 L154.086643,66.2809133 L150.174242,66.2809133 C149.717317,66.2809133 149.336552,66.1285818 149.031936,65.8239141 C148.727319,65.5192465 148.575013,65.1384176 148.575013,64.6814161 C148.575013,64.2244147 148.727319,63.8531065 149.031936,63.5674806 C149.336552,63.2818547 149.717317,63.1390439 150.174242,63.1390439 L154.086643,63.1390439 L154.086643,58.8832388 C154.086643,58.3500705 154.262746,57.9121173 154.614959,57.5693662 C154.967172,57.2266151 155.419331,57.0552421 155.971449,57.0552421 C156.504528,57.0552421 156.942407,57.2266151 157.285101,57.5693662 C157.627795,57.9121173 157.799139,58.3500705 157.799139,58.8832388 L157.799139,63.1390439 L161.797212,63.1390439 C162.254137,63.1390439 162.634902,63.286615 162.939519,63.5817618 Z" id="+" fill="#F6F9FD" transform="translate(155.985727, 64.452917) rotate(17.000000) translate(-155.985727, -64.452917) "></path>
                    </g>
                </g>
            </g>
        </g>
    </g>
</svg>