<?xml version="1.0" encoding="UTF-8"?>
<svg width="163px" height="150px" viewBox="0 0 163 150" version="1.1" xmlns="http://www.w3.org/2000/svg" xmlns:xlink="http://www.w3.org/1999/xlink">
    <!-- Generator: Sketch 51.2 (57519) - http://www.bohemiancoding.com/sketch -->
    <title>04</title>
    <desc>Created with Sketch.</desc>
    <defs></defs>
    <g id="Page-1" stroke="none" stroke-width="1" fill="none" fill-rule="evenodd">
        <g id="NO-DATA-ICONS" transform="translate(-1376.000000, -80.000000)">
            <g id="04" transform="translate(1376.000000, 80.000000)">
                <rect id="BG" fill="#FFFFFF" x="7" y="0" width="151" height="150"></rect>
                <g transform="translate(0.000000, 1.000000)">
                    <g id="ICON" transform="translate(22.000000, 29.275229)">
                        <path d="M106.032309,0.137191249 L98.3157059,0.137191249 C98.2780809,0.136556104 98.2404559,0.136556104 98.2028309,0.137191249 L83.3782647,0.137191249 C83.3406397,0.136556104 83.3030147,0.136556104 83.2653897,0.137191249 L68.4411397,0.137191249 C68.4031985,0.136556104 68.3652574,0.136556104 68.3279485,0.137191249 L53.5024338,0.137191249 C53.465125,0.136556104 53.4281324,0.136556104 53.3905074,0.137191249 L38.5659412,0.137191249 C38.5283162,0.136556104 38.4906912,0.136556104 38.4530662,0.137191249 L23.6288162,0.137191249 C23.5911912,0.136556104 23.5535662,0.136556104 23.5159412,0.137191249 L12.0460074,0.137191249 C5.40377206,0.137191249 0,5.56513761 0,12.2363797 L0,78.416549 C0,85.0884263 5.40377206,90.5163726 12.0460074,90.5163726 L19.7632426,90.5163726 C19.8015,90.5173253 19.839125,90.5170078 19.8764338,90.5163726 L34.7006838,90.5163726 C34.7389412,90.5173253 34.7765662,90.5170078 34.813875,90.5163726 L49.6387574,90.5163726 C49.6760662,90.5170078 49.713375,90.5170078 49.7506838,90.5163726 L64.5761985,90.5163726 C64.6135074,90.5170078 64.6508162,90.5170078 64.688125,90.5163726 L79.5126912,90.5163726 C79.5316618,90.5166902 79.5506324,90.5170078 79.5692868,90.5170078 C79.5882574,90.5170078 79.6072279,90.5166902 79.6258824,90.5163726 L94.4504485,90.5163726 C94.4880735,90.5170078 94.5256985,90.5170078 94.5630074,90.5163726 L106.031676,90.5163726 C112.674228,90.5163726 118.078316,85.0884263 118.078316,78.416549 L118.078316,12.2363797 C118.078949,5.56513761 112.67486,0.137191249 106.032309,0.137191249 Z M112.387772,78.416549 C112.387772,81.9365208 109.536809,84.8000706 106.032309,84.8000706 L99.2360956,84.8000706 L100.771449,81.8876147 C101.506875,80.4925194 100.976963,78.7630205 99.5883162,78.0240296 C98.1993529,77.2850388 96.4771397,77.8176076 95.7420294,79.2127029 L92.7965294,84.8000706 L84.2989706,84.8000706 L85.8343235,81.8876147 C86.56975,80.4925194 86.0401544,78.7630205 84.6511912,78.0240296 C83.2615956,77.2853564 81.5403309,77.81729 80.8045882,79.2123853 L77.8587721,84.8000706 L69.3612132,84.8000706 L70.8965662,81.8876147 C71.6319926,80.4925194 71.1023971,78.7630205 69.7134338,78.0240296 C68.3244706,77.2853564 66.6022574,77.81729 65.8668309,79.2123853 L62.9210147,84.8000706 L54.4234559,84.8000706 L55.9588088,81.8876147 C56.6942353,80.4925194 56.1646397,78.7630205 54.7756765,78.0240296 C53.3863971,77.2853564 51.6648162,77.81729 50.9290735,79.2123853 L47.9832574,84.8000706 L39.4856985,84.8000706 L41.0210515,81.8876147 C41.7564779,80.4925194 41.2268824,78.7630205 39.8379191,78.0240296 C38.4483235,77.2853564 36.7270588,77.81729 35.9913162,79.2123853 L33.0455,84.8000706 L24.5492059,84.8000706 L26.0845588,81.8876147 C26.8199853,80.4925194 26.2903897,78.7630205 24.9014265,78.0240296 C23.5124632,77.2853564 21.7905662,77.81729 21.0548235,79.2123853 L18.1090074,84.8000706 L12.0460074,84.8000706 C8.54182353,84.8000706 5.69117647,81.9365208 5.69117647,78.416549 L5.69117647,12.2363797 C5.69117647,8.71672548 8.54213971,5.8534933 12.0460074,5.8534933 L18.8431691,5.8534933 L17.3078162,8.76563162 C16.5723897,10.1607269 17.1019853,11.8902258 18.4909485,12.6292167 C19.8795956,13.3675723 21.6014926,12.8356387 22.3375515,11.440861 L25.2833676,5.8534933 L33.7802941,5.8534933 L32.2449412,8.76563162 C31.5095147,10.1607269 32.0391103,11.8902258 33.4280735,12.6292167 C34.8170368,13.3675723 36.5389338,12.8356387 37.2746765,11.440861 L40.2204926,5.8534933 L48.7177353,5.8534933 L47.1823824,8.76594919 C46.4469559,10.1610445 46.9768676,11.8905434 48.3658309,12.6292167 C49.7544779,13.3675723 51.4770074,12.8356387 52.2121176,11.440861 L55.1576176,5.8534933 L63.6554926,5.8534933 L62.1201397,8.76563162 C61.3847132,10.1607269 61.9143088,11.8902258 63.3032721,12.6292167 C64.6919191,13.3675723 66.4141324,12.8356387 67.149875,11.440861 L70.0956912,5.8534933 L78.59325,5.8534933 L77.0578971,8.76563162 C76.3224706,10.1607269 76.8520662,11.8902258 78.2410294,12.6292167 C79.6299926,13.3675723 81.3518897,12.8356387 82.0876324,11.440861 L85.0334485,5.8534933 L93.5310074,5.8534933 L91.9956544,8.76563162 C91.2602279,10.1607269 91.7898235,11.8902258 93.1787868,12.6292167 C94.56775,13.3675723 96.2896471,12.8356387 97.0253897,11.440861 L99.9712059,5.8534933 L106.03389,5.8534933 C109.53839,5.8534933 112.389353,8.71704305 112.389353,12.2363797 L112.389353,78.416549 L112.387772,78.416549 Z" id="Shape" fill="#ECF0F4" fill-rule="nonzero"></path>
                        <path d="M42.4811544,42.6820395 C44.2751397,40.5908257 45.3608897,37.8698659 45.3608897,34.8992943 C45.3608897,28.3169725 40.0295221,22.9620677 33.4761324,22.9620677 C26.9224265,22.9620677 21.5907426,28.3169725 21.5907426,34.8992943 C21.5907426,37.8698659 22.6768088,40.5908257 24.4707941,42.6820395 C20.3035882,44.9209245 17.4621103,49.3364502 17.4621103,54.4058574 L17.4621103,64.8336627 C17.4621103,66.4123147 18.7359853,67.6918137 20.3076985,67.6918137 L46.64425,67.6918137 C48.2159632,67.6918137 49.4898382,66.4123147 49.4898382,64.8336627 L49.4898382,54.4058574 C49.4901544,49.3364502 46.6486765,44.9209245 42.4811544,42.6820395 Z" id="Path" fill="#ECF0F4"></path>
                        <path d="M43.7989779,61.9755116 L23.1536029,61.9755116 L23.1536029,54.4058574 C23.1536029,50.2320042 26.5338456,46.8365208 30.6890368,46.8365208 L33.3895,46.8365208 C33.4470441,46.8365208 33.5055368,46.8365208 33.5630809,46.8365208 L36.2632279,46.8365208 C40.4187353,46.8365208 43.7992941,50.2320042 43.7992941,54.4058574 L43.7992941,61.9755116 L43.7989779,61.9755116 Z" id="Path" fill="#FFFFFF"></path>
                        <path d="M33.4761324,28.6783698 C36.8914706,28.6783698 39.6697132,31.4691955 39.6697132,34.8992943 C39.6697132,38.3084333 36.9253015,41.0862385 33.5390515,41.1202188 L33.4132132,41.1202188 C30.0266471,41.0862385 27.2819191,38.3084333 27.2819191,34.8992943 C27.2822353,31.4688779 30.0607941,28.6783698 33.4761324,28.6783698 Z" id="Path" fill="#FFFFFF"></path>
                        <path d="M61.8991324,32.7347212 C61.8991324,31.1560692 63.1730074,29.8765702 64.7447206,29.8765702 L80.1270221,29.8765702 C81.6987353,29.8765702 82.9726103,31.1560692 82.9726103,32.7347212 C82.9726103,34.3133733 81.6987353,35.5928723 80.1270221,35.5928723 L64.7447206,35.5928723 C63.1733235,35.5928723 61.8991324,34.3133733 61.8991324,32.7347212 Z" id="Path" fill="#ECF0F4"></path>
                        <path d="M101.102169,57.9185251 C101.102169,59.4971771 99.8282941,60.7766761 98.2565809,60.7766761 L64.7447206,60.7766761 C63.1730074,60.7766761 61.8991324,59.4971771 61.8991324,57.9185251 C61.8991324,56.339873 63.1730074,55.060374 64.7447206,55.060374 L98.2565809,55.060374 C99.8282941,55.060374 101.102169,56.339873 101.102169,57.9185251 Z" id="Path" fill="#ECF0F4"></path>
                        <path d="M101.102169,46.5634086 C101.102169,48.1420607 99.8282941,49.4215596 98.2565809,49.4215596 L64.7447206,49.4215596 C63.1730074,49.4215596 61.8991324,48.1420607 61.8991324,46.5634086 C61.8991324,44.9847565 63.1730074,43.7052576 64.7447206,43.7052576 L98.2565809,43.7052576 C99.8282941,43.7052576 101.102169,44.9850741 101.102169,46.5634086 Z" id="Path" fill="#ECF0F4"></path>
                    </g>
                    <g id="OTHER">
                        <ellipse id="Oval-2" fill="#F6F9FD" cx="25.78125" cy="137.883941" rx="11.0491071" ry="11.022535"></ellipse>
                        <ellipse id="Oval-2" stroke="#ECF0F4" stroke-width="2.94888598" fill="#FFFFFF" cx="126.567199" cy="134.98468" rx="5.76239912" ry="5.74030717"></ellipse>
                        <ellipse id="Oval-2" stroke="#F6F9FD" stroke-width="3.06016469" fill="#FFFFFF" cx="7.36607143" cy="65.1352098" rx="5.83598908" ry="5.81827429"></ellipse>
                        <polygon id="Star" fill="#F6F9FD" transform="translate(43.459821, 10.757371) rotate(33.000000) translate(-43.459821, -10.757371) " points="43.4598214 15.5952289 38.4520907 18.1057273 39.4084821 12.7884064 35.3571429 9.02265893 40.9559561 8.24687228 43.4598214 3.40901398 45.9636868 8.24687228 51.5625 9.02265893 47.5111607 12.7884064 48.4675522 18.1057273"></polygon>
                        <path d="M161.957956,63.1578834 C162.260737,63.4510626 162.412126,63.8246239 162.412126,64.2785787 C162.412126,64.7325335 162.260737,65.1060949 161.957956,65.399274 C161.655174,65.6924532 161.276703,65.8390406 160.82253,65.8390406 L156.848542,65.8390406 L156.848542,69.5557769 C156.848542,70.0853909 156.673499,70.5204244 156.323408,70.8608905 C155.973317,71.2013566 155.533344,71.3715871 155.003476,71.3715871 C154.473608,71.3715871 154.033635,71.2013566 153.683544,70.8608905 C153.333453,70.5204244 153.15841,70.0853909 153.15841,69.5557769 L153.15841,65.8390406 L149.269578,65.8390406 C148.815406,65.8390406 148.436935,65.6877246 148.134153,65.385088 C147.831371,65.0824515 147.679983,64.7041615 147.679983,64.2502067 C147.679983,63.7962519 147.831371,63.4274191 148.134153,63.1436974 C148.436935,62.8599756 148.815406,62.7181169 149.269578,62.7181169 L153.15841,62.7181169 L153.15841,58.4906839 C153.15841,57.96107 153.333453,57.5260365 153.683544,57.1855704 C154.033635,56.8451043 154.48307,56.6748738 155.031861,56.6748738 C155.561729,56.6748738 155.996971,56.8451043 156.337601,57.1855704 C156.67823,57.5260365 156.848542,57.96107 156.848542,58.4906839 L156.848542,62.7181169 L160.82253,62.7181169 C161.276703,62.7181169 161.655174,62.8647043 161.957956,63.1578834 Z" id="+" fill="#F6F9FD" transform="translate(155.046054, 64.023230) rotate(17.000000) translate(-155.046054, -64.023230) "></path>
                    </g>
                </g>
            </g>
        </g>
    </g>
</svg>