<?xml version="1.0" encoding="UTF-8"?>
<svg width="151px" height="150px" viewBox="0 0 151 150" version="1.1" xmlns="http://www.w3.org/2000/svg" xmlns:xlink="http://www.w3.org/1999/xlink">
    <!-- Generator: Sketch 51.2 (57519) - http://www.bohemiancoding.com/sketch -->
    <title>05</title>
    <desc>Created with Sketch.</desc>
    <defs></defs>
    <g id="Page-1" stroke="none" stroke-width="1" fill="none" fill-rule="evenodd">
        <g id="NO-DATA-ICONS" transform="translate(-1624.000000, -80.000000)">
            <g id="05" transform="translate(1624.000000, 80.000000)">
                <rect id="BG" fill="#FFFFFF" x="0" y="0" width="151" height="150"></rect>
                <g transform="translate(16.000000, 20.000000)">
                    <g transform="translate(22.000000, 18.000000)" fill="#ECF0F4">
                        <path d="M37.4393519,0 C16.7637346,0 0.000154320988,16.7635802 0.000154320988,37.4391975 C0.000154320988,58.1145062 16.7637346,74.8783951 37.4393519,74.8783951 C58.1149691,74.8783951 74.8782407,58.1143519 74.8782407,37.4391975 C74.8783951,16.7635802 58.1149691,0 37.4393519,0 Z M39.7794753,70.0796296 L39.7794753,65.5183642 L35.0993827,65.5183642 L35.0993827,70.0796296 C18.9072531,68.9287037 5.9507716,55.9717593 4.79907407,39.7796296 L9.35987654,39.7796296 L9.35987654,35.099537 L4.79907407,35.099537 C5.9507716,18.9069444 18.9072531,5.95046296 35.0993827,4.79876543 L35.0993827,9.3595679 L39.7794753,9.3595679 L39.7794753,4.79891975 C55.9717593,5.95046296 68.9279321,18.9070988 70.0794753,35.0996914 L65.5189815,35.0996914 L65.5189815,39.779784 L70.0794753,39.779784 C68.9277778,55.9717593 55.9716049,68.9287037 39.7794753,70.0796296 Z" id="Shape" fill-rule="nonzero"></path>
                        <path d="M54.6645062,27.4942901 C54.9842593,28.0521605 54.7925926,28.7699074 54.2351852,29.0942901 L41.8753086,36.2280864 C41.9819444,36.6257716 42.1194444,37.0098765 42.1194444,37.4391975 C42.1194444,40.0259259 40.0236111,42.1188272 37.4395062,42.1188272 C34.8546296,42.1188272 32.7594136,40.0259259 32.7594136,37.4391975 L20.0589506,30.1084877 C18.9390432,29.4598765 18.5554012,28.0291667 19.2018519,26.9095679 C19.8459877,25.7853395 21.278858,25.4016975 22.3986111,26.0507716 L35.1725309,33.4270062 C35.8532407,33.0432099 36.5983025,32.7597222 37.4395062,32.7597222 C38.7467593,32.7597222 39.9228395,33.2989198 40.7734568,34.1674383 L53.0648148,27.0649691 C53.6135802,26.7402778 54.3308642,26.9322531 54.6645062,27.4942901 Z" id="Path"></path>
                    </g>
                    <g id="OTHER">
                        <ellipse id="Oval-2" fill="#F6F9FD" cx="18.75" cy="100.92233" rx="8.03571429" ry="8.00970874"></ellipse>
                        <ellipse id="Oval-2" stroke="#ECF0F4" stroke-width="2.14285714" fill="#FFFFFF" cx="92.0488722" cy="98.815534" rx="4.19172932" ry="4.17128988"></ellipse>
                        <ellipse id="Oval-2" stroke="#F6F9FD" stroke-width="2.22371968" fill="#FFFFFF" cx="5.35714286" cy="48.0582524" rx="4.24528302" ry="4.22794599"></ellipse>
                        <polygon id="Star" fill="#F6F9FD" transform="translate(31.607143, 8.543689) rotate(33.000000) translate(-31.607143, -8.543689) " points="31.6071429 12.0591997 27.9651569 13.8834951 28.6607143 10.0195754 25.7142857 7.28313216 29.7861499 6.71939386 31.6071429 3.2038835 33.4281359 6.71939386 37.5 7.28313216 34.5535714 10.0195754 35.2491289 13.8834951"></polygon>
                        <path d="M117.787604,46.6213953 C118.007809,46.8344388 118.11791,47.1058934 118.11791,47.4357672 C118.11791,47.765641 118.007809,48.0370956 117.787604,48.2501391 C117.567399,48.4631827 117.292147,48.5697028 116.96184,48.5697028 L114.071667,48.5697028 L114.071667,51.2705312 C114.071667,51.655384 113.944363,51.9715084 113.689751,52.2189137 C113.435139,52.4663191 113.115159,52.5900199 112.729801,52.5900199 C112.344442,52.5900199 112.024462,52.4663191 111.76985,52.2189137 C111.515238,51.9715084 111.387934,51.655384 111.387934,51.2705312 L111.387934,48.5697028 L108.559693,48.5697028 C108.229386,48.5697028 107.954134,48.4597465 107.733929,48.2398306 C107.513725,48.0199148 107.403624,47.745024 107.403624,47.4151502 C107.403624,47.0852764 107.513725,46.8172579 107.733929,46.6110868 C107.954134,46.4049156 108.229386,46.3018316 108.559693,46.3018316 L111.387934,46.3018316 L111.387934,43.229897 C111.387934,42.8450442 111.515238,42.5289198 111.76985,42.2815145 C112.024462,42.0341091 112.351324,41.9104083 112.750445,41.9104083 C113.135803,41.9104083 113.452343,42.0341091 113.700073,42.2815145 C113.947804,42.5289198 114.071667,42.8450442 114.071667,43.229897 L114.071667,46.3018316 L116.96184,46.3018316 C117.292147,46.3018316 117.567399,46.4083518 117.787604,46.6213953 Z" id="+" fill="#F6F9FD" transform="translate(112.760767, 47.250214) rotate(17.000000) translate(-112.760767, -47.250214) "></path>
                    </g>
                </g>
            </g>
        </g>
    </g>
</svg>