<?xml version="1.0" encoding="UTF-8"?>
<svg width="217px" height="193px" viewBox="0 0 217 193" version="1.1" xmlns="http://www.w3.org/2000/svg" xmlns:xlink="http://www.w3.org/1999/xlink">
    <!-- Generator: Sketch 51.2 (57519) - http://www.bohemiancoding.com/sketch -->
    <title>06</title>
    <desc>Created with Sketch.</desc>
    <defs></defs>
    <g id="Page-1" stroke="none" stroke-width="1" fill="none" fill-rule="evenodd">
        <g id="NO-DATA-ICONS" transform="translate(-1880.000000, -62.000000)">
            <g id="06" transform="translate(1880.000000, 56.000000)">
                <g id="ICON" transform="translate(34.833333, 28.357798)" fill="#ECF0F4" fill-rule="nonzero">
                    <path d="M139.073069,57.9497807 L128.784969,56.2030224 C127.713292,52.7401505 126.335421,49.3998583 124.651357,46.2127904 L130.713987,37.7241577 C133.286013,34.1080615 132.887961,29.1742353 129.734168,26.0484572 L120.609603,16.916282 C118.89492,15.2001685 116.629088,14.2501772 114.21016,14.2501772 C112.311761,14.2501772 110.505219,14.8324299 108.974252,15.9356457 L100.462074,22.0033326 C97.1551844,20.2565743 93.6951983,18.8162648 90.1127349,17.7436939 L88.3980515,7.56959261 C87.6631872,3.18737431 83.8970077,0.000306448833 79.4572025,0.000306448833 L66.5664579,0.000306448833 C62.1266527,0.000306448833 58.3604732,3.18737431 57.6256089,7.56959261 L55.8496868,17.9888529 C52.4203201,19.0614238 49.0828114,20.4710885 45.8983994,22.1872019 L37.4780793,16.119515 C35.947112,15.0162992 34.1099513,14.4340465 32.2115518,14.4340465 C29.7926235,14.4340465 27.4961726,15.3840378 25.8121086,17.1001513 L16.6569241,26.2323265 C13.5337509,29.3581046 13.10508,34.2919308 15.6771051,37.908027 L21.8009743,46.5192392 C20.1169102,49.736952 18.769659,53.0772443 17.7286013,56.5401161 L7.56297843,58.2562295 C3.18441197,58.9917067 -2.84217094e-14,62.7610274 -2.84217094e-14,67.2045354 L-2.84217094e-14,80.1060313 C-2.84217094e-14,84.5495394 3.18441197,88.31886 7.56297843,89.0543372 L17.973556,90.8317404 C19.0452331,94.2639674 20.453723,97.6042596 22.1684064,100.791327 L16.1363953,109.188026 C13.5643702,112.804122 13.9624217,117.737948 17.1162143,120.863726 L26.2407794,129.995901 C27.9554628,131.712015 30.2212944,132.662006 32.6402227,132.662006 C34.5386221,132.662006 36.3451635,132.079753 37.8761308,130.976538 L46.480167,124.847561 C49.5727209,126.47174 52.8183716,127.78947 56.1558803,128.831396 L57.8705637,139.128076 C58.605428,143.510295 62.3716075,146.697363 66.8114127,146.697363 L79.7327766,146.697363 C84.1725818,146.697363 87.9387613,143.510295 88.6736256,139.128076 L90.4189283,128.831396 C93.8789144,127.758825 97.2164231,126.379805 100.400835,124.694336 L108.882394,130.762023 C110.413361,131.865239 112.250522,132.447492 114.148921,132.447492 C116.56785,132.447492 118.833681,131.497501 120.548365,129.781387 L129.67293,120.649212 C132.796103,117.523434 133.224774,112.589608 130.652749,108.973511 L124.590118,100.454234 C126.274182,97.236521 127.682672,93.8962288 128.72373,90.4640018 L139.01183,88.7478884 C143.390397,88.0124112 146.574809,84.2430905 146.574809,79.7995825 L146.574809,66.8980866 C146.636047,62.4545785 143.451635,58.6852579 139.073069,57.9497807 Z M138.368824,79.7995825 C138.368824,80.1979659 138.09325,80.5350597 137.695198,80.5963494 L124.835073,82.7414913 C123.212248,83.0172952 121.926235,84.2124457 121.528184,85.7753347 C120.364649,90.2801325 118.588727,94.6010611 116.200418,98.6155408 C115.373695,100.025205 115.434934,101.771964 116.384134,103.120339 L123.947112,113.784758 C124.161447,114.091207 124.130828,114.55088 123.855254,114.826684 L114.730689,123.958859 C114.516354,124.173373 114.302018,124.204018 114.148921,124.204018 C113.965205,124.204018 113.812109,124.142729 113.689631,124.050794 L103.064718,116.481508 C101.748086,115.531516 99.9721642,115.470227 98.5636743,116.297638 C94.55254,118.687939 90.2352122,120.465343 85.7341684,121.629848 C84.1419624,122.028232 82.9478079,123.345962 82.7028532,124.939496 L80.5288796,137.810346 C80.4676409,138.20873 80.1308281,138.484534 79.7327766,138.484534 L66.842032,138.484534 C66.4439805,138.484534 66.1071677,138.20873 66.045929,137.810346 L63.9025748,124.939496 C63.6270007,123.315317 62.4328462,122.028232 60.8712596,121.629848 C56.4926931,120.495987 52.2672234,118.749229 48.3173278,116.481508 C47.6743215,116.113769 46.9394572,115.9299 46.2352122,115.9299 C45.4084899,115.9299 44.5511482,116.175059 43.8469033,116.696022 L33.1301322,124.326598 C32.9770355,124.418532 32.8239388,124.479822 32.670842,124.479822 C32.5483646,124.479822 32.3034099,124.449177 32.0890745,124.234663 L22.9645094,115.102488 C22.6889353,114.826684 22.6583159,114.397656 22.8726514,114.060562 L30.4050104,103.488077 C31.3542102,102.139702 31.4154489,100.362299 30.5887265,98.9526345 C28.2004175,94.9687997 26.3632568,90.6478711 25.1997216,86.1430733 C24.7710508,84.5801843 23.4850383,83.3850338 21.8928323,83.1092299 L8.94084899,80.9027983 C8.54279749,80.8415085 8.26722338,80.5044148 8.26722338,80.1060313 L8.26722338,67.2045354 C8.26722338,66.806152 8.54279749,66.4690582 8.94084899,66.4077685 L21.7091162,64.2626266 C23.3319415,63.9868227 24.6485734,62.7916723 25.0466249,61.1981383 C26.1795407,56.6933405 27.9248434,52.3417671 30.2825331,48.3272874 C31.1092554,46.9176227 31.0173974,45.1708644 30.0681976,43.8531344 L22.4439805,33.1274253 C22.2296451,32.8209764 22.2602644,32.3613032 22.5358386,32.0854992 L31.6604036,22.953324 C31.874739,22.7388098 32.0890745,22.7081649 32.2421712,22.7081649 C32.4258873,22.7081649 32.578984,22.7694547 32.7014614,22.8613894 L43.2651357,30.4000306 C44.6123869,31.350022 46.388309,31.4113118 47.7967989,30.5838999 C51.7773138,28.1935991 56.0946416,26.3549061 60.5956855,25.1904005 C62.1572721,24.7613721 63.3514266,23.474287 63.6270007,21.8807531 L65.8315936,8.91796748 C65.8928323,8.519584 66.2296451,8.24378005 66.6276966,8.24378005 L79.5184412,8.24378005 C79.9164927,8.24378005 80.2533055,8.519584 80.3145442,8.91796748 L82.4578984,21.6968838 C82.7334725,23.3210626 83.927627,24.6387926 85.519833,25.0371761 C90.1433542,26.2016816 94.55254,28.0097298 98.6555324,30.4306755 C100.064022,31.2580874 101.809325,31.1967976 103.156576,30.2468062 L113.720251,22.6468752 C113.873347,22.5549405 114.026444,22.4936508 114.179541,22.4936508 C114.302018,22.4936508 114.546973,22.5242956 114.761308,22.7388098 L123.885873,31.870985 C124.161447,32.146789 124.192067,32.5758174 123.977731,32.9129111 L116.414753,43.5466856 C115.465553,44.8644155 115.404315,46.6418188 116.231037,48.0514834 C118.619346,52.0659631 120.395268,56.3868917 121.558803,60.8916895 C121.956855,62.4852234 123.273486,63.6803739 124.865692,63.9255329 L137.725818,66.1013196 C138.123869,66.1626094 138.399443,66.4997031 138.399443,66.8980866 L138.399443,79.7995825 L138.368824,79.7995825 Z" id="Shape"></path>
                    <path d="M73.302714,41.6773477 C55.8496868,41.6773477 41.6729297,55.8659286 41.6729297,73.3335121 C41.6729297,90.8010956 55.8496868,104.989677 73.302714,104.989677 C90.7557411,104.989677 104.932498,90.8010956 104.932498,73.3335121 C104.932498,55.8659286 90.7557411,41.6773477 73.302714,41.6773477 Z M73.302714,96.715558 C60.4119694,96.715558 49.9401531,86.2350079 49.9401531,73.3335121 C49.9401531,60.4320162 60.4119694,49.9514662 73.302714,49.9514662 C86.1934586,49.9514662 96.6652749,60.4320162 96.6652749,73.3335121 C96.6652749,86.2350079 86.1934586,96.715558 73.302714,96.715558 Z" id="Shape"></path>
                </g>
                <g id="OTHER">
                    <ellipse id="Oval-2" fill="#F6F9FD" cx="34.375" cy="184.178587" rx="14.7321429" ry="14.6967133"></ellipse>
                    <ellipse id="Oval-2" stroke="#ECF0F4" stroke-width="3.93184797" fill="#FFFFFF" cx="168.756266" cy="180.312906" rx="7.68319882" ry="7.65374289"></ellipse>
                    <ellipse id="Oval-2" stroke="#F6F9FD" stroke-width="4.08021959" fill="#FFFFFF" cx="9.82142857" cy="87.1802797" rx="7.78131878" ry="7.75769906"></ellipse>
                    <polygon id="Star" fill="#F6F9FD" transform="translate(57.946429, 14.676494) rotate(33.000000) translate(-57.946429, -14.676494) " points="57.9464286 21.1269719 51.2694542 24.474303 52.5446429 17.3845419 47.1428571 12.3635452 54.6079414 11.329163 57.9464286 4.87868531 61.2849157 11.329163 68.75 12.3635452 63.3482143 17.3845419 64.6234029 24.474303"></polygon>
                    <path d="M215.943941,84.5438445 C216.34765,84.9347501 216.549501,85.4328319 216.549501,86.038105 C216.549501,86.643378 216.34765,87.1414599 215.943941,87.5323654 C215.540232,87.9232709 215.035604,88.1187207 214.43004,88.1187207 L209.131389,88.1187207 L209.131389,93.0743692 C209.131389,93.7805212 208.897999,94.3605658 208.43121,94.8145206 C207.964422,95.2684754 207.377791,95.4954494 206.671301,95.4954494 C205.964811,95.4954494 205.37818,95.2684754 204.911392,94.8145206 C204.444604,94.3605658 204.211213,93.7805212 204.211213,93.0743692 L204.211213,88.1187207 L199.026104,88.1187207 C198.420541,88.1187207 197.915913,87.9169661 197.512204,87.5134507 C197.108495,87.1099353 196.906644,86.6055487 196.906644,86.0002756 C196.906644,85.3950025 197.108495,84.9032255 197.512204,84.5249299 C197.915913,84.1466342 198.420541,83.9574892 199.026104,83.9574892 L204.211213,83.9574892 L204.211213,78.3209119 C204.211213,77.61476 204.444604,77.0347153 204.911392,76.5807605 C205.37818,76.1268057 205.977426,75.8998317 206.709149,75.8998317 C207.415639,75.8998317 207.995962,76.1268057 208.450134,76.5807605 C208.904306,77.0347153 209.131389,77.61476 209.131389,78.3209119 L209.131389,83.9574892 L214.43004,83.9574892 C215.035604,83.9574892 215.540232,84.152939 215.943941,84.5438445 Z" id="+" fill="#F6F9FD" transform="translate(206.728072, 85.697641) rotate(17.000000) translate(-206.728072, -85.697641) "></path>
                </g>
            </g>
        </g>
    </g>
</svg>