<?xml version="1.0" encoding="UTF-8"?>
<svg width="217px" height="193px" viewBox="0 0 217 193" version="1.1" xmlns="http://www.w3.org/2000/svg" xmlns:xlink="http://www.w3.org/1999/xlink">
    <!-- Generator: Sketch 51.2 (57519) - http://www.bohemiancoding.com/sketch -->
    <title>08</title>
    <desc>Created with Sketch.</desc>
    <defs></defs>
    <g id="Page-1" stroke="none" stroke-width="1" fill="none" fill-rule="evenodd">
        <g id="NO-DATA-ICONS" transform="translate(-2500.000000, -62.000000)">
            <g id="08" transform="translate(2500.000000, 56.000000)">
                <g id="ICON" transform="translate(50.000000, 33.000000)" fill="#ECF0F4" fill-rule="nonzero">
                    <path d="M32.0101388,88.917193 C21.5089143,88.917193 12.9170531,97.491306 12.9170531,107.970838 C12.9170531,113.686823 15.4627796,118.768031 19.2815061,122.261209 L19.2815061,136.551579 C19.2815061,137.504288 19.9178694,138.456998 20.5545061,139.092047 C21.5091878,139.727096 22.4638694,140.044756 23.418551,139.409708 L32.0104122,136.551579 L40.6022735,139.409708 C40.9205918,139.409708 41.2386367,139.727368 41.5569551,139.727368 C42.1933184,139.727368 42.8299551,139.409708 43.4663184,139.09232 C44.421,138.457271 44.7393184,137.504561 44.7393184,136.551852 L44.7393184,122.261209 C48.5580449,118.768031 51.1037714,113.687096 51.1037714,107.970838 C51.103498,97.491306 42.5113633,88.917193 32.0101388,88.917193 Z M38.3745918,132.105692 L32.9648204,130.200273 C32.3284571,129.882612 31.6918204,129.882612 31.0554571,130.200273 L25.6456857,132.105692 L25.6456857,125.754386 C27.555049,126.389435 29.7824571,127.024756 32.0101388,127.024756 C34.2378204,127.024756 36.4652286,126.707096 38.3745918,125.754386 L38.3745918,132.105692 Z M32.0101388,120.67345 C25.0093224,120.67345 19.2815061,114.957466 19.2815061,107.971111 C19.2815061,100.984756 25.0093224,95.2687719 32.0101388,95.2687719 C39.0109551,95.2687719 44.7387714,100.984756 44.7387714,107.971111 C44.7390449,114.957193 39.0109551,120.67345 32.0101388,120.67345 Z" id="Shape"></path>
                    <ellipse id="Oval" cx="32.0101388" cy="107.970838" rx="6.36445306" ry="6.35130604"></ellipse>
                    <path d="M130.658204,59.0663548 L128.748841,57.1609357 C126.839478,55.2555166 123.975433,53.9854191 121.111661,53.9854191 C118.247616,53.9854191 115.383845,55.2557895 113.474482,57.1609357 L102.018576,68.5931774 L102.018576,34.9317739 L102.018576,30.8035478 C102.018576,26.6753216 100.427531,22.5468226 97.2451673,19.6889669 L82.2888531,4.76354776 C79.4248082,1.58775828 75.6063551,0 71.1512653,0 L67.0144939,0 L9.73496327,0 C4.32519184,0 0.188420408,4.12822612 0.188420408,9.52682261 L0.188420408,123.848967 C0.188420408,129.247563 4.32519184,133.375789 9.73496327,133.375789 L12.9170531,133.375789 C14.8264163,133.375789 16.0991429,132.105419 16.0991429,130.200273 C16.0991429,128.295127 14.8261429,127.024756 12.9170531,127.024756 L9.73496327,127.024756 C7.8256,127.024756 6.55287347,125.754386 6.55287347,123.84924 L6.55287347,9.52682261 C6.55287347,7.62140351 7.82587347,6.35130604 9.73496327,6.35130604 L67.0144939,6.35130604 C70.514902,6.35130604 73.3789469,9.2094347 73.3789469,12.7026121 L73.3789469,19.0539181 C73.3789469,24.4525146 77.5157184,28.5807407 82.9254898,28.5807407 L89.2899429,28.5807407 C92.790351,28.5807407 95.6543959,31.4388694 95.6543959,34.9320468 L95.6543959,73.0393372 C95.6543959,73.674386 95.9727143,73.9920468 95.9727143,74.6270955 L77.5159918,93.045692 C77.1976735,93.3633528 76.8796286,93.9984016 76.5613102,94.6334503 L74.0155837,107.971111 L67.0147673,107.971111 C65.1054041,107.971111 63.8326776,109.241481 63.8326776,111.146628 C63.8326776,113.052047 65.1056776,114.322144 67.0147673,114.322144 L76.5613102,114.322144 C76.8796286,114.322144 76.8796286,114.322144 77.1976735,114.322144 L93.1086694,111.146628 C93.7450327,111.146628 94.3816694,110.828967 94.6997143,110.193918 L130.658204,74.3094347 C132.567567,72.4040156 133.840294,69.5458869 133.840294,66.6880312 C133.840294,63.8301754 132.567567,60.9717739 130.658204,59.0663548 Z M89.2896694,22.2294347 L82.9252163,22.2294347 C81.0158531,22.2294347 79.7431265,20.9590643 79.7431265,19.0539181 L79.7431265,12.7023392 C79.7431265,12.0672904 79.7431265,11.4319688 79.4248082,10.4795322 L91.1990327,22.2294347 C90.5626694,22.2294347 89.9260327,22.2294347 89.2896694,22.2294347 Z M80.6978082,107.018129 L81.6524898,101.619532 L86.1075796,106.065419 L80.6978082,107.018129 Z M126.203114,69.8635478 L92.4717592,103.524951 L84.1979429,95.2682261 L117.929024,61.6068226 C119.520069,60.0190643 122.702433,60.0190643 124.293478,61.6068226 L126.202841,63.5122417 C127.157522,64.4649513 127.475841,65.4176608 127.475841,66.6877583 C127.475841,67.9578558 127.157796,68.9108382 126.203114,69.8635478 Z" id="Shape"></path>
                    <path d="M98.8362122,111.146628 C96.926849,111.146628 95.6541224,112.416998 95.6541224,114.322144 L95.6541224,123.848967 C95.6541224,125.754386 94.3811224,127.024483 92.4720327,127.024483 L51.103498,127.024483 C49.1941347,127.024483 47.9214082,128.294854 47.9214082,130.2 C47.9214082,132.105146 49.1944082,133.375517 51.103498,133.375517 L92.4720327,133.375517 C97.8818041,133.375517 102.018576,129.24729 102.018576,123.848694 L102.018576,114.321871 C102.018302,112.416725 100.745576,111.146628 98.8362122,111.146628 Z" id="Shape"></path>
                    <path d="M47.9211347,38.1072904 L16.0994163,38.1072904 C14.1900531,38.1072904 12.9173265,39.3776608 12.9173265,41.282807 C12.9173265,43.1882261 14.1903265,44.4583236 16.0994163,44.4583236 L47.9214082,44.4583236 C49.8307714,44.4583236 51.103498,43.1879532 51.103498,41.282807 C51.103498,39.3776608 49.830498,38.1072904 47.9211347,38.1072904 Z" id="Shape"></path>
                    <path d="M79.7431265,50.8099025 L41.5569551,50.8099025 C39.6475918,50.8099025 38.3748653,52.0802729 38.3748653,53.9854191 C38.3748653,55.8905653 39.6478653,57.1609357 41.5569551,57.1609357 L79.7431265,57.1609357 C81.6524898,57.1609357 82.9252163,55.8905653 82.9252163,53.9854191 C82.9252163,52.0802729 81.6524898,50.8099025 79.7431265,50.8099025 Z" id="Shape"></path>
                    <path d="M79.7431265,38.1072904 L60.6500408,38.1072904 C58.7406776,38.1072904 57.467951,39.3776608 57.467951,41.282807 C57.467951,43.1882261 58.740951,44.4583236 60.6500408,44.4583236 L79.7431265,44.4583236 C81.6524898,44.4583236 82.9252163,43.1879532 82.9252163,41.282807 C82.9252163,39.3776608 81.6524898,38.1072904 79.7431265,38.1072904 Z" id="Shape"></path>
                    <path d="M60.6500408,25.4049513 L41.5569551,25.4049513 C39.6475918,25.4049513 38.3748653,26.6753216 38.3748653,28.5804678 C38.3748653,30.485614 39.6478653,31.7559844 41.5569551,31.7559844 L60.6500408,31.7559844 C62.5594041,31.7559844 63.8321306,30.485614 63.8321306,28.5804678 C63.8321306,26.6753216 62.5594041,25.4049513 60.6500408,25.4049513 Z" id="Shape"></path>
                    <path d="M44.7390449,63.5122417 L16.0994163,63.5122417 C14.1900531,63.5122417 12.9173265,64.7826121 12.9173265,66.6877583 C12.9173265,68.5929045 14.1900531,69.8635478 16.0994163,69.8635478 L44.7390449,69.8635478 C46.6484082,69.8635478 47.9211347,68.5931774 47.9211347,66.6880312 C47.9211347,64.782885 46.6484082,63.5122417 44.7390449,63.5122417 Z" id="Shape"></path>
                    <path d="M28.828049,76.2148538 L16.0994163,76.2148538 C14.1900531,76.2148538 12.9173265,77.4852242 12.9173265,79.3903704 C12.9173265,81.2955166 14.1903265,82.5658869 16.0994163,82.5658869 L28.828049,82.5658869 C30.7374122,82.5658869 32.0101388,81.2955166 32.0101388,79.3903704 C32.0101388,77.4852242 30.7374122,76.2148538 28.828049,76.2148538 Z" id="Shape"></path>
                    <path d="M28.828049,50.8099025 L16.0994163,50.8099025 C14.1900531,50.8099025 12.9173265,52.0802729 12.9173265,53.9854191 C12.9173265,55.8905653 14.1903265,57.1609357 16.0994163,57.1609357 L28.828049,57.1609357 C30.7374122,57.1609357 32.0101388,55.8905653 32.0101388,53.9854191 C32.0101388,52.0802729 30.7374122,50.8099025 28.828049,50.8099025 Z" id="Shape"></path>
                    <path d="M79.7431265,63.5122417 L57.4676776,63.5122417 C55.5583143,63.5122417 54.2855878,64.7826121 54.2855878,66.6877583 C54.2855878,68.5929045 55.5585878,69.8635478 57.4676776,69.8635478 L79.7431265,69.8635478 C81.6524898,69.8635478 82.9252163,68.5931774 82.9252163,66.6880312 C82.9252163,64.782885 81.6524898,63.5122417 79.7431265,63.5122417 Z" id="Shape"></path>
                    <path d="M67.0142204,76.2148538 L41.5566816,76.2148538 C39.6473184,76.2148538 38.3745918,77.4852242 38.3745918,79.3903704 C38.3745918,81.2955166 39.6475918,82.5658869 41.5566816,82.5658869 L67.0142204,82.5658869 C68.9235837,82.5658869 70.1963102,81.2955166 70.1963102,79.3903704 C70.1963102,77.4852242 68.9235837,76.2148538 67.0142204,76.2148538 Z" id="Shape"></path>
                </g>
                <g id="OTHER">
                    <ellipse id="Oval-2" fill="#F6F9FD" cx="34.375" cy="184.178587" rx="14.7321429" ry="14.6967133"></ellipse>
                    <ellipse id="Oval-2" stroke="#F6F9FD" stroke-width="3.93184797" fill="#FFFFFF" cx="168.756266" cy="180.312906" rx="7.68319882" ry="7.65374289"></ellipse>
                    <ellipse id="Oval-2" stroke="#F6F9FD" stroke-width="4.08021959" fill="#FFFFFF" cx="9.82142857" cy="87.1802797" rx="7.78131878" ry="7.75769906"></ellipse>
                    <polygon id="Star" fill="#F6F9FD" transform="translate(57.946429, 14.676494) rotate(33.000000) translate(-57.946429, -14.676494) " points="57.9464286 21.1269719 51.2694542 24.474303 52.5446429 17.3845419 47.1428571 12.3635452 54.6079414 11.329163 57.9464286 4.87868531 61.2849157 11.329163 68.75 12.3635452 63.3482143 17.3845419 64.6234029 24.474303"></polygon>
                    <path d="M215.943941,84.5438445 C216.34765,84.9347501 216.549501,85.4328319 216.549501,86.038105 C216.549501,86.643378 216.34765,87.1414599 215.943941,87.5323654 C215.540232,87.9232709 215.035604,88.1187207 214.43004,88.1187207 L209.131389,88.1187207 L209.131389,93.0743692 C209.131389,93.7805212 208.897999,94.3605658 208.43121,94.8145206 C207.964422,95.2684754 207.377791,95.4954494 206.671301,95.4954494 C205.964811,95.4954494 205.37818,95.2684754 204.911392,94.8145206 C204.444604,94.3605658 204.211213,93.7805212 204.211213,93.0743692 L204.211213,88.1187207 L199.026104,88.1187207 C198.420541,88.1187207 197.915913,87.9169661 197.512204,87.5134507 C197.108495,87.1099353 196.906644,86.6055487 196.906644,86.0002756 C196.906644,85.3950025 197.108495,84.9032255 197.512204,84.5249299 C197.915913,84.1466342 198.420541,83.9574892 199.026104,83.9574892 L204.211213,83.9574892 L204.211213,78.3209119 C204.211213,77.61476 204.444604,77.0347153 204.911392,76.5807605 C205.37818,76.1268057 205.977426,75.8998317 206.709149,75.8998317 C207.415639,75.8998317 207.995962,76.1268057 208.450134,76.5807605 C208.904306,77.0347153 209.131389,77.61476 209.131389,78.3209119 L209.131389,83.9574892 L214.43004,83.9574892 C215.035604,83.9574892 215.540232,84.152939 215.943941,84.5438445 Z" id="+" fill="#F6F9FD" transform="translate(206.728072, 85.697641) rotate(17.000000) translate(-206.728072, -85.697641) "></path>
                </g>
            </g>
        </g>
    </g>
</svg>